<svg width="20" height="16" viewBox="0 0 20 16" fill="none" xmlns="http://www.w3.org/2000/svg">
<path d="M0.284561 8.70731L7.07701 15.7073C7.26623 15.9023 7.51461 16.0003 7.76302 16.0003C8.01143 16.0003 8.25981 15.9023 8.44903 15.7073C8.82844 15.3163 8.82844 14.6842 8.44903 14.2933L3.313 9.00028H18.4369C18.9735 9.00028 19.4072 8.55328 19.4072 8.00028C19.4072 7.44728 18.9735 7.00028 18.4369 7.00028H3.313L8.44903 1.70731C8.82844 1.31631 8.82844 0.68425 8.44903 0.29325C8.06962 -0.09775 7.45642 -0.09775 7.07701 0.29325L0.284561 7.29325C-0.0948467 7.68425 -0.0948467 8.31631 0.284561 8.70731Z" fill="black"/>
</svg>
