<svg width="20" height="16" viewBox="0 0 20 16" fill="none" xmlns="http://www.w3.org/2000/svg">
<path d="M19.1227 8.70731L12.3302 15.7073C12.141 15.9023 11.8926 16.0003 11.6442 16.0003C11.3958 16.0003 11.1474 15.9023 10.9582 15.7073C10.5788 15.3163 10.5788 14.6842 10.9582 14.2933L16.0942 9.00028H0.97035C0.433747 9.00028 0 8.55328 0 8.00028C0 7.44728 0.433747 7.00028 0.97035 7.00028H16.0942L10.9582 1.70731C10.5788 1.31631 10.5788 0.68425 10.9582 0.29325C11.3376 -0.09775 11.9508 -0.09775 12.3302 0.29325L19.1227 7.29325C19.5021 7.68425 19.5021 8.31631 19.1227 8.70731Z" fill="black"/>
</svg>
