<svg width="41" height="41" viewBox="0 0 41 41" fill="none" xmlns="http://www.w3.org/2000/svg">
<path d="M18.6001 26.1579V32.1569C18.6001 33.2627 17.7052 34.1565 16.6026 34.1565C15.4999 34.1565 14.605 33.2627 14.605 32.1569V26.1579C14.605 25.052 15.4999 24.1582 16.6026 24.1582C17.7052 24.1582 18.6001 25.052 18.6001 26.1579ZM24.5928 24.1582C23.4902 24.1582 22.5953 25.052 22.5953 26.1579V32.1569C22.5953 33.2627 23.4902 34.1565 24.5928 34.1565C25.6955 34.1565 26.5904 33.2627 26.5904 32.1569V26.1579C26.5904 25.052 25.6955 24.1582 24.5928 24.1582ZM37.4351 21.4006L35.935 33.1687C35.4276 37.15 32.0197 40.1536 28.0086 40.1536H13.2307C9.23359 40.1536 5.82774 37.1621 5.30837 33.1948L3.76423 21.4026C1.9025 20.3827 0.62207 18.4292 0.62207 16.1595C0.62207 12.8521 3.31079 10.1605 6.61476 10.1605H9.47924L14.8907 1.13201C15.458 0.184164 16.6825 -0.12182 17.6313 0.446085C18.5782 1.01399 18.8838 2.24193 18.3165 3.18977L14.1396 10.1586H27.0598L22.8829 3.18977C22.3156 2.24193 22.6212 1.01399 23.5681 0.446085C24.5149 -0.12182 25.7414 0.184164 26.3087 1.13201L31.7201 10.1605H34.5806C37.8846 10.1605 40.5733 12.8521 40.5733 16.1595C40.5733 18.4272 39.2949 20.3808 37.4351 21.4006ZM4.6172 16.1595C4.6172 17.2633 5.5141 18.1592 6.61476 18.1592H34.5806C35.6813 18.1592 36.5782 17.2633 36.5782 16.1595C36.5782 15.0557 35.6813 14.1599 34.5806 14.1599H6.61476C5.5141 14.1599 4.6172 15.0557 4.6172 16.1595ZM33.3102 22.1585H7.89323L9.27149 32.6768C9.52918 34.6605 11.2331 36.1562 13.2307 36.1562H28.0086C30.0142 36.1562 31.7181 34.6545 31.9698 32.6648L33.3102 22.1585Z" fill="#0DA70E"/>
</svg>
