<svg width="35" height="28" viewBox="0 0 35 28" fill="none" xmlns="http://www.w3.org/2000/svg">
<path d="M34.25 3.03125C34.25 1.76769 33.2111 0.75 31.9375 0.75H3.0625C1.78888 0.75 0.75 1.76769 0.75 3.03125C0.75 4.29481 1.78888 5.3125 3.0625 5.3125H31.9375C33.2111 5.3125 34.25 4.29481 34.25 3.03125ZM34.25 14C34.25 12.7364 33.2111 11.7187 31.9375 11.7187H3.0625C1.78888 11.7187 0.75 12.7364 0.75 14C0.75 15.2636 1.78888 16.2812 3.0625 16.2812H31.9375C33.2111 16.2812 34.25 15.2636 34.25 14ZM34.25 24.9688C34.25 23.7052 33.2111 22.6875 31.9375 22.6875H3.0625C1.78888 22.6875 0.75 23.7052 0.75 24.9688C0.75 26.2323 1.78888 27.25 3.0625 27.25H31.9375C33.2111 27.25 34.25 26.2323 34.25 24.9688Z" fill="black" stroke="black" stroke-width="0.5"/>
</svg>
