<svg width="22" height="18" viewBox="0 0 22 18" fill="none" xmlns="http://www.w3.org/2000/svg">
<path d="M10.6227 0.0502668H10.6467L10.6469 0.0500215C16.4761 0.0604828 21.1955 3.88246 21.1955 8.55717C21.1955 13.2379 16.4634 17.0634 10.6229 17.0634C9.56272 17.0634 8.52037 16.9388 7.52034 16.6928L7.49777 16.6873L7.47897 16.701C6.70992 17.2607 5.73678 17.5735 4.83083 17.746C3.92546 17.9184 3.09113 17.95 2.60267 17.95C2.44631 17.95 2.32134 17.9469 2.23555 17.9439C2.19266 17.9423 2.15958 17.9408 2.13727 17.9396L2.11201 17.9383L2.10567 17.9379L2.10412 17.9378L2.10375 17.9378L2.10367 17.9378L2.10353 17.9377L1.14206 17.8771C0.936154 17.864 0.760021 17.7249 0.699989 17.5276L0.699971 17.5275C0.639764 17.3305 0.708258 17.1166 0.871797 16.9912L0.871828 16.9911L1.63879 16.402L1.63881 16.402C1.83209 16.2534 2.27962 15.7557 2.65888 14.1923L2.66581 14.1637L2.6442 14.1438C0.967388 12.5963 0.05 10.6237 0.05 8.55744C0.05 3.87632 4.78215 0.0502668 10.6227 0.0502668ZM7.51303 15.6698C8.50952 15.938 9.55579 16.0742 10.6223 16.0742L10.6223 16.0743C15.8945 16.0743 20.2057 12.713 20.2055 8.55749C20.2055 4.4013 15.8947 1.03972 10.6223 1.03972C5.35024 1.03972 1.03901 4.40144 1.03901 8.55749C1.03901 10.4333 1.92758 12.2289 3.5356 13.6139L3.53565 13.614C3.6731 13.7321 3.73471 13.9163 3.69606 14.0937L3.69605 14.0937C3.41415 15.3919 3.03178 16.323 2.56048 16.8783L2.49059 16.9607H2.59861H2.60222C3.05907 16.9607 3.85364 16.9319 4.69363 16.7691C5.5326 16.6066 6.42273 16.3094 7.06579 15.7686L7.03542 15.7325L7.06579 15.7686C7.18936 15.6647 7.35635 15.628 7.51303 15.6698ZM16.4559 6.22876V6.22879C16.4559 6.50172 16.2343 6.72344 15.9612 6.72344H5.67998C5.40704 6.72344 5.18532 6.5019 5.18532 6.22879C5.18532 5.95586 5.40687 5.73414 5.67998 5.73414H15.9612C16.2344 5.73414 16.456 5.95587 16.4559 6.22876ZM14.0728 8.95227V8.9523C14.0728 9.22523 13.8513 9.44695 13.5782 9.44695H5.67998C5.40704 9.44695 5.18532 9.22541 5.18532 8.9523C5.18532 8.67937 5.40687 8.45765 5.67998 8.45765H13.5782C13.8513 8.45765 14.073 8.67938 14.0728 8.95227ZM5.68012 11.1812H11.7399C12.0129 11.1812 12.2346 11.4029 12.2346 11.6758C12.2346 11.9487 12.013 12.1705 11.7399 12.1705H5.68012C5.40719 12.1705 5.18547 11.9489 5.18547 11.6758C5.18547 11.4029 5.40701 11.1812 5.68012 11.1812Z" fill="black" stroke="white" stroke-width="0.1"/>
</svg>
