<svg width="35" height="59" viewBox="0 0 35 59" fill="none" xmlns="http://www.w3.org/2000/svg">
<path d="M33.6888 24.5796C33.1461 23.629 32.4111 22.6079 31.2001 21.4882C30.0812 20.46 28.7617 19.5939 27.2501 18.8827C26.4985 18.5305 26.2312 18.1361 26.2813 17.4319C26.3565 16.3686 26.2896 15.2982 26.3064 14.2278C26.3064 14.0518 26.2981 13.8898 26.2395 13.763V11.9392C26.2395 11.1927 25.5214 10.5941 24.6444 10.5941H24.5777C24.4525 10.5448 24.2937 10.5167 24.085 10.5237C23.5088 10.5378 22.9326 10.5307 22.3562 10.5307V5.56612C23.6423 5.55908 24.9368 5.55908 26.2229 5.55204C26.3231 5.02388 26.3898 4.36898 26.3397 3.62251C26.3147 3.24224 26.2563 2.90424 26.1894 2.58734C26.1894 2.53804 26.1728 2.48171 26.1561 2.42536C26.1561 2.41834 26.1561 2.40425 26.1478 2.39721C25.9974 1.98877 25.4796 1.53808 25.3126 1.40428C24.8448 1.01697 23.7843 0.298674 21.805 0.108541C19.5167 -0.03934 16.8529 -0.0604664 13.9048 0.200086C8.04226 0.721202 3.31544 2.15777 0 3.45351C0.0167079 4.18589 0.0417608 4.91825 0.0584503 5.65063C5.0692 5.6295 10.0883 5.61541 15.099 5.59428V5.60132V10.5307C14.4977 10.5378 13.8965 10.5448 13.2952 10.5096C12.9861 10.4955 12.7606 10.5237 12.5937 10.5941H12.4517C11.5664 10.5941 10.8566 11.1997 10.8566 11.9392V15.4954C10.8566 15.7066 10.8566 15.9109 10.8566 16.1221V17.9743C10.773 18.3615 10.5142 18.6291 10.0048 18.8756C6.63922 20.5304 4.21737 22.8685 2.97303 26.0302C2.48867 27.2696 2.27988 28.5443 2.27988 29.8399C2.27154 38.7481 2.28824 47.6563 2.24648 56.5574C2.24648 56.973 2.34669 57.2758 2.55548 57.501C2.81437 57.7898 3.17347 57.8955 3.54091 58.0011C5.12765 58.4447 5.67048 58.494 5.67048 58.494C10.6144 58.9306 24.561 59.3108 30.5906 58.6207C31.15 58.5573 32.0186 58.4376 33.0875 58.1561C33.8977 57.9377 34.5408 57.6982 35 57.5081C35 47.769 35 38.0228 35 28.2837C34.8497 27.3682 34.5157 26.0443 33.6888 24.5796Z" fill="url(#paint0_linear_165_1902)"/>
<defs>
<linearGradient id="paint0_linear_165_1902" x1="17.5" y1="-16.225" x2="17.499" y2="106.2" gradientUnits="userSpaceOnUse">
<stop stop-color="#BDE483"/>
<stop offset="1" stop-color="#FBFF21"/>
</linearGradient>
</defs>
</svg>
