<svg width="327" height="382" viewBox="0 0 327 382" fill="none" xmlns="http://www.w3.org/2000/svg">
<path opacity="0.08" d="M316.829 295.508L161.47 377.084C150.678 382.717 134.131 382.473 123.841 376.536L48.2924 332.711C38.1544 326.866 37.5759 317.474 46.9681 311.233L186.678 220.63C197.06 213.719 215.418 213.338 226.622 219.808L317.834 272.675C328.885 279.038 328.428 289.465 316.829 295.508Z" fill="#04003B"/>
<path d="M323.738 58.0708L317.71 51.8296C317.36 49.6681 316.112 47.6587 314.087 46.4409L239.757 1.83962C236.956 0.165171 233.531 0.484836 231.095 2.3724C230.897 2.26584 230.699 2.15928 230.471 2.06795C222.586 -0.291507 213.97 0.697947 206.709 5.08197L194.486 12.4648C179.735 21.3546 170.83 37.4293 171.104 54.6457L171.15 57.2488C168.927 57.4314 166.72 57.7815 164.589 58.2534C169.11 58.7253 173.722 59.8365 177.939 61.6176C178.137 61.3436 178.319 61.0543 178.533 60.7803C179.431 59.6387 180.39 58.6035 181.41 57.6598C180.009 57.4619 178.609 57.2944 177.193 57.2031L177.147 54.4631C176.934 39.9867 184.424 26.4693 196.815 18.9799L209.099 11.5667C214.198 8.49176 220.211 7.65453 225.813 9.05499C226.117 9.16154 226.391 9.22243 226.665 9.2681C226.909 11.5819 228.188 13.7587 230.334 15.0526L304.664 59.6539C305.897 60.3998 307.268 60.7499 308.622 60.7499C309.688 60.7499 310.738 60.5215 311.712 60.0953C311.758 60.0344 317.269 64.8599 317.269 64.8599C317.771 66.1995 317.923 67.6913 317.664 69.2135C317.269 71.6186 315.716 73.6736 313.676 74.9979L306.232 79.7778C295.455 86.7039 288.483 97.1616 286.489 115.641C284.906 121.365 271.602 207.325 271.602 207.325C270.658 206.564 269.653 205.834 268.512 205.179L209.129 170.99L192.72 161.506C188.61 159.132 183.662 157.655 178.517 157.046L171.53 156.452C164.574 156.787 156.278 158.644 151.178 162.039L122.499 180.641L74.9905 212.44L73.1943 211.405L80.3335 224.405C86.1789 227.784 93.5922 229.535 101.082 229.687L105.648 229.58C111.813 229.169 117.826 227.662 122.865 225.029L209.129 179.758L264.66 211.816C267.537 213.475 269.364 215.5 269.912 217.509L270.019 219.412C269.668 221.802 267.476 224.207 263.884 226.079L120.551 301.064C104.415 307.473 93.4552 302.358 90.4716 300.638L28.3647 264.957C24.9853 263.008 23.0064 260.542 22.9303 258.183C22.8542 255.976 24.4221 253.692 27.3143 251.774C27.3143 251.774 56.2975 232.244 59.5703 230.859L74.336 221.284C71.5046 220.614 68.9016 219.062 66.7857 217.007L23.0977 245.335C22.3214 245.853 21.606 246.416 20.9362 246.979L10.9504 184.309C9.59557 182.924 8.34731 183.411 7.11431 181.95C5.31808 179.834 3.78063 177.581 2.50195 175.237L16.0498 260.497L16.2477 260.466C17.1001 264.805 20.236 268.702 25.2745 271.609L67.3185 295.889L60.0574 300.608C54.8362 304.078 52.0506 308.736 52.2028 313.699C52.3702 318.844 55.6582 323.532 61.4731 326.896L107.718 353.612C113.229 356.793 120.307 358.407 127.386 358.407C133.992 358.407 140.614 357.006 146.018 354.19L168.866 342.195L171.469 340.825C171.469 340.916 171.454 341.007 171.454 341.099C171.454 346.046 173.144 349.562 175.899 351.298C178.822 353.14 183.891 355.941 183.891 355.941L183.936 355.864C186.829 357.554 190.847 357.326 195.308 354.768C204.137 349.669 211.291 337.324 211.291 327.186C211.291 324.567 210.804 322.375 209.951 320.61L249.21 299.999C249.971 302.099 251.189 303.698 252.756 304.687C254.629 305.859 257.354 307.427 259.089 308.401C262.012 310.898 266.502 311.004 271.556 308.097C280.385 302.997 287.539 290.652 287.539 280.514C287.539 280.301 287.524 280.103 287.509 279.89L289.701 278.733C295.622 275.369 299.047 270.528 299.154 265.307C299.169 264.5 299.078 263.709 298.941 262.932V231.042L278.984 216.398L279.091 215.941L295.516 114.317C297.434 101.439 302.944 91.986 311.88 86.2472L319.232 81.5131C323.144 79.0014 326.021 75.0284 326.752 70.4313C327.513 65.8798 326.326 61.4806 323.738 58.0708ZM119.303 218.224C109.378 223.4 93.6074 223.187 84.1696 217.737L82.5103 216.778L156.43 168.782C160.783 165.89 166.994 164.414 173.25 164.414C178.989 164.414 184.743 165.647 189.066 168.158L201.259 175.206L119.303 218.224ZM291.36 266.083C290.964 267.834 289.594 269.569 287.433 271.092L285.18 272.279C284.769 271.761 284.328 271.289 283.84 270.894C283.84 270.894 283.795 270.863 283.749 270.833C283.384 270.559 283.003 270.315 282.592 270.102C280.994 269.082 278.223 267.301 276.549 266.053C273.596 263.876 269.257 263.922 264.417 266.723C256.364 271.366 249.712 282.021 248.54 291.581L203.741 315.16C202.432 314.46 200.879 313.546 199.692 312.664C196.738 310.487 192.4 310.532 187.559 313.318C181.47 316.835 176.173 323.791 173.433 331.098L170.419 332.681L142.456 347.37C133.733 351.922 119.881 351.739 111.57 346.944L65.3244 320.229C61.945 318.281 59.9661 315.815 59.89 313.455C59.8139 311.248 61.397 308.965 64.274 307.047L74.7926 300.227L87.077 307.321C92.5875 310.502 99.6658 312.116 106.744 312.116C113.351 312.116 119.972 310.715 125.376 307.899L254.69 240.008L286.048 258.122C289.031 259.842 290.888 261.943 291.345 264.028V266.083H291.36ZM291.36 234.984V252.399C290.888 252.079 290.416 251.759 289.899 251.455L262.742 235.776L268.192 232.914C272.363 230.737 275.346 227.845 277.021 224.603L291.36 234.984Z" fill="#C6E4A1"/>
<path d="M174.687 64.8144C167.578 64.8144 160.484 66.4888 155.522 69.7768L13.6046 162.054C10.21 164.307 8.38331 167.017 8.45942 169.665C8.55075 172.482 10.8493 175.389 14.7919 177.657L84.1904 217.722C93.6282 223.172 109.383 223.4 119.323 218.209L277.361 135.278C281.882 132.919 284.516 129.798 284.592 126.723C284.653 123.816 282.339 120.787 278.259 118.427L192.71 69.0309C187.763 66.23 181.217 64.8144 174.687 64.8144ZM102.183 229.717C94.3131 229.717 86.4584 227.936 80.3391 224.405L10.9407 184.34C4.56252 180.656 0.939627 175.541 0.772182 169.924C0.604736 164.52 3.64919 159.451 9.37277 155.631L151.29 63.353C163.285 55.3613 183.607 54.9351 196.546 62.394L282.095 111.79C288.778 115.657 292.401 121.03 292.279 126.921C292.157 132.888 288.017 138.429 280.923 142.128L122.87 225.044C116.888 228.165 109.52 229.717 102.183 229.717Z" fill="white"/>
<path d="M289.143 251.47L261.667 235.593C261.637 235.624 261.621 235.654 261.591 235.669C260.008 236.917 258.09 237.526 256.385 238.546C255.533 239.049 254.665 239.49 253.782 239.916L285.307 258.122C288.809 260.147 290.787 262.704 290.742 265.14C290.696 267.195 289.25 269.295 286.677 271.092L245.318 292.981L141.7 347.386C132.978 351.937 119.126 351.754 110.814 346.959L64.5689 320.244C61.1896 318.296 59.2107 315.83 59.1346 313.47C59.0585 311.263 60.6416 308.98 63.5186 307.062L191.995 223.735C196.348 220.843 202.574 219.366 208.831 219.366C214.569 219.366 220.323 220.599 224.662 223.111L245.136 234.939C245.318 234.832 245.516 234.725 245.729 234.649C248.439 233.614 250.996 232.214 253.599 230.95L228.513 216.459C216.868 209.73 198.571 210.126 187.778 217.311L59.302 300.638C54.0807 304.109 51.2951 308.767 51.4473 313.729C51.6148 318.89 54.9027 323.563 60.7177 326.927L106.963 353.642C112.473 356.823 119.552 358.437 126.63 358.437C133.237 358.437 139.858 357.037 145.262 354.22L246.414 301.11L288.961 278.748C294.882 275.384 298.307 270.543 298.414 265.322C298.536 259.979 295.156 254.941 289.143 251.47Z" fill="#C6E4A1"/>
<path d="M276.736 225.151L291.365 235.746V267.667H298.976V231.803L278.35 215.957L276.736 225.151Z" fill="#C6E4A1"/>
<path fill-rule="evenodd" clip-rule="evenodd" d="M260.007 309.345C260.007 309.345 254.938 306.529 252.015 304.702C249.26 302.967 247.57 299.451 247.57 294.504C247.57 284.289 254.77 271.853 263.66 266.723C268.501 263.937 272.839 263.876 275.793 266.068C278.259 267.895 282.353 269.843 282.353 269.843L260.007 309.345Z" fill="#C6E4A1"/>
<path d="M282.006 296.334C288.28 285.58 288.333 273.926 282.125 270.304C275.917 266.682 265.798 272.464 259.524 283.217C253.25 293.971 253.197 305.625 259.405 309.247C265.613 312.869 275.732 307.088 282.006 296.334Z" fill="#F2F2F2"/>
<path d="M277.003 292.849C279.966 287.658 279.953 282.071 276.974 280.371C273.995 278.67 269.178 281.5 266.215 286.692C263.252 291.883 263.265 297.47 266.244 299.17C269.223 300.87 274.04 298.04 277.003 292.849Z" fill="#04003B"/>
<path fill-rule="evenodd" clip-rule="evenodd" d="M183.151 355.956C183.151 355.956 178.082 353.14 175.16 351.313C172.404 349.578 170.715 346.061 170.715 341.114C170.715 330.9 177.915 318.463 186.805 313.333C191.646 310.548 195.984 310.487 198.937 312.679C201.403 314.506 205.498 316.454 205.498 316.454L183.151 355.956Z" fill="#C6E4A1"/>
<path d="M205.899 341.996C212.173 331.242 212.226 319.588 206.018 315.966C199.809 312.344 189.691 318.126 183.417 328.879C177.143 339.633 177.089 351.287 183.298 354.909C189.506 358.531 199.625 352.75 205.899 341.996Z" fill="#F2F2F2"/>
<path d="M200.885 340.038C203.848 334.847 203.835 329.26 200.856 327.56C197.877 325.86 193.06 328.69 190.097 333.881C187.134 339.073 187.147 344.659 190.126 346.36C193.105 348.06 197.922 345.23 200.885 340.038Z" fill="#04003B"/>
<path d="M312.464 60.0954C311.49 60.5217 310.439 60.75 309.374 60.75C308.034 60.75 306.664 60.3999 305.416 59.654L231.085 15.0527C227.447 12.8607 226.26 8.14175 228.452 4.50362C230.644 0.865496 235.363 -0.321847 239.001 1.87016L313.331 46.4715C315.843 47.9785 317.198 50.7033 317.061 53.4433L312.464 60.0954Z" fill="#F2F2F2"/>
<path d="M317.532 53.4586L312.6 50.5055C310.773 49.4095 308.413 50.0031 307.317 51.8298C306.221 53.6565 306.815 56.0159 308.642 57.1119L313.574 60.0651C314.198 60.4304 314.883 60.6131 315.553 60.6131C316.862 60.6131 318.141 59.9433 318.856 58.7407C319.937 56.914 319.343 54.5546 317.532 53.4586Z" fill="#C6E4A1"/>
<path d="M126.642 359.183C119.183 359.183 112.059 357.447 106.594 354.296L60.3491 327.581C54.3059 324.095 50.8657 319.179 50.6983 313.759C50.5308 308.523 53.4383 303.637 58.8879 300.014L66.1641 295.295L66.986 296.573L59.7251 301.292C54.7474 304.611 52.0683 309.025 52.2205 313.714C52.3727 318.6 55.5389 323.06 61.1103 326.272L107.356 352.987C112.592 356.017 119.442 357.676 126.642 357.676C133.325 357.676 139.825 356.214 144.909 353.551L167.758 341.555L168.458 342.895L145.609 354.89C140.297 357.661 133.568 359.183 126.642 359.183ZM126.642 351.435C120.721 351.435 114.815 350.156 110.431 347.629L64.1852 320.914C60.5775 318.828 58.4616 316.134 58.3703 313.501C58.2941 311.019 59.9686 308.508 63.0891 306.422L73.623 299.588L74.445 300.866L63.9264 307.686C61.2625 309.452 59.8316 311.507 59.8925 313.44C59.9534 315.525 61.7953 317.763 64.9463 319.574L111.192 346.289C119.29 350.963 132.807 351.145 141.347 346.701L169.31 332.011L170.011 333.351L142.047 348.04C137.724 350.323 132.183 351.435 126.642 351.435ZM211.735 320.168L211.035 318.828L246.076 300.44L246.777 301.78L211.735 320.168ZM205.829 314.581L205.128 313.242L244.965 292.326L245.665 293.666L205.829 314.581ZM82.0104 295.98L81.1885 294.701L98.8464 283.254L99.6683 284.533L82.0104 295.98ZM74.3689 291.763L73.5468 290.485L90.2457 279.662L91.0677 280.94L74.3689 291.763ZM95.2386 278.231L94.4166 276.952L100.429 273.055L101.251 274.334L95.2386 278.231ZM109.395 278.231L108.573 276.952L156.006 246.188L156.828 247.466L109.395 278.231ZM104.829 272.02L104.007 270.741L156.25 236.856L157.072 238.135L104.829 272.02ZM287.1 271.731L286.233 270.482C288.607 268.823 289.932 266.92 289.962 265.139C290.008 262.993 288.166 260.679 284.908 258.807L253.748 240.814L254.509 239.49L285.67 257.483C289.414 259.644 291.53 262.445 291.484 265.17C291.439 267.453 289.886 269.782 287.1 271.731ZM288.76 252.124L261.984 236.659L262.745 235.334L289.521 250.8L288.76 252.124ZM161.791 244.239L160.969 242.961L191.596 223.095C195.873 220.249 202.16 218.605 208.843 218.605C213.531 218.605 218.006 219.396 221.812 220.888L221.249 222.304C217.626 220.873 213.333 220.127 208.843 220.127C202.449 220.127 196.467 221.665 192.433 224.359L161.791 244.239ZM245.33 235.928L226.516 225.059L227.277 223.735L246.092 234.604L245.33 235.928ZM162.506 234.604L161.684 233.325L187.379 216.672C196.193 210.811 210.441 209.228 222.04 212.82L221.584 214.282C210.395 210.796 196.68 212.318 188.216 217.95L162.506 234.604ZM253.459 231.742L234.705 220.903L235.466 219.579L254.22 230.417L253.459 231.742Z" fill="#04003B"/>
<path d="M169.627 57.614L169.582 54.6609C169.323 37.2313 178.426 20.8217 193.344 11.8253L205.567 4.45772C212.874 0.0432572 221.764 -1.08319 229.953 1.3676C230.227 1.44371 230.44 1.68727 230.486 1.96127C230.532 2.25049 230.425 2.53972 230.181 2.70717C229.436 3.25517 228.903 3.90972 228.522 4.74695C227.883 6.11696 227.487 7.59352 227.35 9.14619C227.335 9.3593 227.213 9.57242 227.03 9.69419C226.848 9.81597 226.619 9.86164 226.406 9.81598C220.881 8.43075 215.142 9.29841 210.271 12.2363L197.986 19.6496C185.869 26.9715 178.471 40.3062 178.684 54.463L178.73 57.614L177.208 57.6444L177.162 54.4934C176.934 39.7887 184.621 25.9516 197.21 18.3557L209.494 10.9424C214.472 7.92841 220.287 6.95418 225.95 8.15674C226.163 6.74107 226.559 5.38629 227.152 4.12284C227.441 3.51395 227.792 2.96594 228.218 2.47883C220.82 0.636934 212.935 1.82427 206.374 5.76684L194.15 13.1344C179.689 21.8568 170.875 37.7641 171.134 54.6456L171.18 57.5988L169.627 57.614Z" fill="#04003B"/>
<path d="M293.294 127.971L291.787 127.728L294.025 114.211C295.973 101.104 301.605 91.4836 310.739 85.623L318.441 80.6606C322.932 77.7835 325.55 72.8668 325.474 67.539C325.428 64.2509 324.348 61.1304 322.384 58.5426L323.602 57.614C325.763 60.4758 326.951 63.8856 326.996 67.5085C327.088 73.3691 324.195 78.7578 319.263 81.924L311.561 86.8865C302.808 92.5035 297.419 101.774 295.532 114.439L293.294 127.971Z" fill="#04003B"/>
<path d="M287.921 113.252L286.414 113.023C288.697 97.6639 295.487 86.2624 306.568 79.1383L314.271 74.1911C316.509 72.7602 317.818 70.3246 317.772 67.6607C317.757 66.7931 317.605 65.9406 317.3 65.1338L318.731 64.6011C319.096 65.5753 319.279 66.5952 319.294 67.6303C319.34 70.8118 317.772 73.7344 315.093 75.4546L307.39 80.4018C296.689 87.2975 290.144 98.3337 287.921 113.252Z" fill="#04003B"/>
<path d="M106.002 312.877C98.5275 312.877 91.4187 311.141 85.9539 307.99L24.1362 272.309C18.8997 269.295 15.6573 265.261 14.744 260.649L0.267578 172.223L1.77462 171.979L16.251 260.375C17.073 264.515 20.0718 268.199 24.9125 270.985L86.7302 306.666C91.9667 309.695 98.8167 311.354 106.017 311.354C112.699 311.354 119.199 309.893 124.299 307.229L267.114 232.244C271.24 230.083 274.254 227.19 275.821 223.872L277.633 215.789L285.929 163.287L290.542 135.385L292.048 135.628L287.436 163.531L279.14 216.063L277.313 224.283C277.298 224.344 277.283 224.39 277.268 224.435C275.563 228.104 272.305 231.27 267.845 233.584L125.029 308.569C119.671 311.354 112.928 312.877 106.002 312.877ZM105.56 305.144C105.073 305.144 104.601 305.144 104.114 305.113L101.009 304.794C96.8226 304.23 93.0475 303.028 90.0944 301.323L27.9874 265.642C24.3797 263.556 22.2638 260.847 22.1725 258.229C22.1116 256.524 14.7288 210.278 10.8167 186.075L12.3237 185.831C12.7803 188.693 23.6186 255.945 23.6947 258.183C23.7556 260.268 25.5975 262.506 28.7485 264.333L90.8555 300.014C93.6412 301.627 97.2184 302.754 101.191 303.287L104.221 303.606C110.112 303.819 115.957 302.647 120.204 300.425L263.537 225.44C266.856 223.705 268.956 221.482 269.276 219.336L281.545 141.641L283.052 141.885L270.783 219.579C270.387 222.243 268.058 224.816 264.253 226.81L120.92 301.795C116.703 303.956 111.299 305.144 105.56 305.144Z" fill="#04003B"/>
<path d="M289.339 279.403L288.593 278.078C294.256 274.867 297.559 270.209 297.666 265.292L297.453 231.437L278.973 217.889L279.871 216.656L298.655 230.433C298.853 230.57 298.96 230.798 298.96 231.042L299.173 265.307C299.066 270.787 295.474 275.917 289.339 279.403Z" fill="#04003B"/>
<path d="M289.961 264.622L289.839 235.38L277.053 226.11L277.951 224.877L291.057 234.375C291.255 234.512 291.377 234.741 291.377 234.984L291.499 264.607L289.961 264.622Z" fill="#04003B"/>
<path d="M259.639 310.015C259.593 309.984 254.524 307.168 251.601 305.342C248.511 303.393 246.791 299.542 246.791 294.503C246.791 284.061 254.174 271.305 263.262 266.068C268.178 263.222 272.912 263.008 276.216 265.459C278.621 267.24 282.67 269.706 282.716 269.721L281.924 271.031C281.757 270.924 277.784 268.504 275.318 266.677C272.517 264.607 268.407 264.865 264.023 267.377C255.361 272.385 248.313 284.548 248.313 294.503C248.313 299.009 249.759 302.404 252.408 304.048C255.285 305.859 260.324 308.645 260.369 308.675L259.639 310.015Z" fill="#04003B"/>
<path d="M264.403 311.811C262.743 311.811 261.221 311.43 259.851 310.639C256.609 308.767 254.812 304.885 254.812 299.709C254.812 289.343 262.15 276.678 271.176 271.472C275.713 268.854 280.005 268.458 283.263 270.346C286.505 272.218 288.302 276.1 288.302 281.275C288.302 291.642 280.964 304.306 271.938 309.512C269.304 311.05 266.732 311.811 264.403 311.811ZM278.727 270.711C276.672 270.711 274.358 271.411 271.953 272.812C263.352 277.774 256.35 289.861 256.35 299.74C256.35 304.337 257.872 307.747 260.627 309.345C263.398 310.943 267.158 310.548 271.192 308.219C279.792 303.256 286.795 291.17 286.795 281.29C286.795 276.693 285.272 273.283 282.517 271.685C281.406 271.031 280.127 270.711 278.727 270.711Z" fill="#04003B"/>
<path d="M267.402 299.633C266.549 299.633 265.758 299.435 265.058 299.024C263.368 298.05 262.439 296.056 262.439 293.407C262.439 288.293 266.017 282.036 270.431 279.464C272.699 278.139 274.891 277.941 276.566 278.9C278.255 279.875 279.184 281.869 279.184 284.517C279.184 289.632 275.607 295.889 271.192 298.461C269.868 299.253 268.574 299.633 267.402 299.633ZM274.221 279.844C273.308 279.844 272.288 280.164 271.192 280.803C267.204 283.132 263.962 288.795 263.962 293.422C263.962 295.508 264.616 297.03 265.819 297.715C267.006 298.4 268.65 298.202 270.431 297.167C274.419 294.838 277.662 289.175 277.662 284.548C277.662 282.462 277.007 280.94 275.805 280.255C275.333 279.981 274.8 279.844 274.221 279.844Z" fill="#04003B"/>
<path d="M182.784 356.625C182.738 356.595 177.669 353.779 174.761 351.952C171.671 350.004 169.951 346.168 169.951 341.114C169.951 330.671 177.334 317.915 186.422 312.679C191.339 309.832 196.073 309.619 199.376 312.07C201.751 313.836 205.769 315.754 205.8 315.769L205.145 317.139C204.978 317.063 200.959 315.145 198.462 313.288C195.662 311.217 191.536 311.476 187.168 313.988C178.506 318.996 171.458 331.158 171.458 341.114C171.458 345.62 172.904 349.014 175.553 350.658C178.43 352.47 183.469 355.255 183.514 355.286L182.784 356.625Z" fill="#04003B"/>
<path d="M188.293 357.478C186.634 357.478 185.112 357.097 183.742 356.306C180.499 354.433 178.703 350.552 178.703 345.376C178.703 335.01 186.04 322.345 195.067 317.139C199.603 314.52 203.896 314.125 207.154 316.012C210.396 317.885 212.192 321.766 212.192 326.942C212.192 337.308 204.855 349.973 195.828 355.179C193.195 356.717 190.622 357.478 188.293 357.478ZM202.617 316.378C200.562 316.378 198.249 317.078 195.843 318.478C187.243 323.441 180.241 335.527 180.241 345.407C180.241 350.004 181.763 353.413 184.518 355.012C187.289 356.61 191.048 356.214 195.082 353.885C203.683 348.923 210.685 336.836 210.685 326.957C210.685 322.36 209.163 318.95 206.408 317.352C205.296 316.697 204.018 316.378 202.617 316.378Z" fill="#04003B"/>
<path d="M191.295 346.822C190.442 346.822 189.65 346.624 188.95 346.213C187.261 345.239 186.332 343.245 186.332 340.596C186.332 335.482 189.909 329.225 194.324 326.653C196.592 325.328 198.769 325.13 200.458 326.089C202.148 327.064 203.077 329.058 203.077 331.706C203.077 336.821 199.499 343.077 195.085 345.65C193.761 346.442 192.467 346.822 191.295 346.822ZM198.114 327.033C197.201 327.033 196.181 327.353 195.085 327.992C191.097 330.321 187.854 335.984 187.854 340.611C187.854 342.697 188.509 344.219 189.711 344.904C190.899 345.589 192.543 345.391 194.324 344.356C198.312 342.027 201.554 336.364 201.554 331.737C201.554 329.651 200.9 328.129 199.697 327.444C199.225 327.17 198.693 327.033 198.114 327.033Z" fill="#04003B"/>
<path d="M309.366 61.511C307.844 61.511 306.337 61.1 305.028 60.3084L230.698 15.7071C228.764 14.5502 227.394 12.6931 226.846 10.5011C226.298 8.30907 226.633 6.04096 227.805 4.10773C228.962 2.17449 230.819 0.80449 233.011 0.256487C235.203 -0.291515 237.471 0.043371 239.405 1.21549L313.735 45.8168C316.414 47.4151 317.982 50.353 317.83 53.4736L316.308 53.3975C316.43 50.8402 315.151 48.435 312.944 47.1107L238.613 2.50938C237.03 1.55038 235.158 1.27638 233.362 1.73305C231.565 2.18972 230.043 3.30094 229.099 4.89928C228.14 6.4824 227.866 8.35475 228.323 10.151C228.764 11.9472 229.891 13.4542 231.489 14.4132L305.82 59.0145C307.722 60.1562 310.127 60.3084 312.167 59.4255L312.776 60.826C311.68 61.2674 310.539 61.511 309.366 61.511Z" fill="#04003B"/>
<path d="M315.535 61.3588C314.698 61.3588 313.891 61.1305 313.16 60.7042L313.937 59.3951C315.367 60.2476 317.316 59.7452 318.168 58.3296C318.594 57.6293 318.716 56.7921 318.518 55.9853C318.321 55.1786 317.818 54.5088 317.118 54.0826L317.894 52.7734C318.945 53.4128 319.691 54.4174 319.995 55.6048C320.299 56.8073 320.101 58.0403 319.477 59.0907C318.671 60.5064 317.148 61.3588 315.535 61.3588Z" fill="#04003B"/>
<path d="M313.177 60.7042L308.245 57.7359C307.195 57.0965 306.449 56.0919 306.144 54.9045C305.84 53.702 306.038 52.469 306.662 51.4186C307.971 49.2418 310.803 48.5264 312.979 49.8355L317.911 52.8039L317.135 54.113L312.203 51.1446C310.742 50.2617 308.839 50.7488 307.971 52.195C307.545 52.8952 307.423 53.7324 307.621 54.5392C307.819 55.346 308.321 56.0158 309.021 56.442L313.954 59.4103L313.177 60.7042Z" fill="#04003B"/>
<path d="M102.179 230.478C93.8985 230.478 86.0134 228.56 79.9549 225.059L10.5565 184.994C3.93479 181.173 0.190119 175.83 0.00745119 169.939C-0.175216 164.261 3.00623 158.949 8.94293 154.991L150.876 62.7135C163.084 54.5696 183.756 54.1433 196.923 61.7393L282.472 111.136C289.414 115.139 293.158 120.756 293.036 126.936C292.9 133.193 288.607 138.962 281.27 142.798L123.232 225.714C117.341 228.789 109.867 230.478 102.179 230.478ZM174.653 57.8119C166.235 57.8119 157.863 59.8821 151.713 63.9922L9.78014 156.27C4.30011 159.923 1.36224 164.764 1.52968 169.894C1.69713 175.237 5.18302 180.123 11.3176 183.67L80.716 223.735C86.5462 227.099 94.1725 228.956 102.179 228.956C109.623 228.956 116.854 227.327 122.516 224.374L280.539 141.458C287.374 137.896 291.377 132.584 291.484 126.906C291.606 121.304 288.12 116.174 281.681 112.46L196.131 63.0636C190.073 59.5472 182.355 57.8119 174.653 57.8119ZM102.195 222.73C95.4816 222.73 88.7686 221.284 83.791 218.407L14.3925 178.342C10.2216 175.937 7.78605 172.786 7.6795 169.711C7.58816 166.788 9.53658 163.85 13.1595 161.445L155.092 69.1678C159.948 65.9254 167.087 64.0683 174.668 64.0683C181.655 64.0683 188.201 65.6209 193.057 68.4219L278.606 117.818C282.944 120.315 285.395 123.587 285.319 126.784C285.243 130.148 282.457 133.497 277.677 135.994L119.655 218.894C114.768 221.452 108.481 222.73 102.195 222.73ZM174.683 65.5753C167.392 65.5753 160.557 67.3411 155.945 70.416L14.0119 162.693C10.8457 164.794 9.14081 167.275 9.21692 169.65C9.29303 172.192 11.4698 174.871 15.1688 177.018L84.5673 217.083C93.8072 222.411 109.243 222.624 118.954 217.555L276.992 134.624C281.27 132.401 283.751 129.524 283.812 126.738C283.873 124.12 281.696 121.335 277.86 119.127L192.311 69.731C187.668 67.0518 181.411 65.5753 174.683 65.5753Z" fill="#04003B"/>
<path d="M103.626 229.139H102.104V304.383H103.626V229.139Z" fill="#04003B"/>
<path d="M159.672 205.1L156.674 281.911L158.195 281.97L161.193 205.159L159.672 205.1Z" fill="#04003B"/>
<path d="M225.814 171.08L222.377 247.389L223.898 247.457L227.335 171.148L225.814 171.08Z" fill="#04003B"/>
<path d="M232.255 92.2682L226.742 156.132L228.259 156.263L233.771 92.3991L232.255 92.2682Z" fill="#04003B"/>
<path d="M173.924 64.7927L172.402 64.8206L174.075 156.227L175.597 156.199L173.924 64.7927Z" fill="#04003B"/>
<path d="M187.37 166.792L105.402 214.431L106.167 215.747L188.135 168.108L187.37 166.792Z" fill="#04003B"/>
<path d="M127.069 187.414L126.391 188.777L147.701 199.392L148.38 198.03L127.069 187.414Z" fill="#04003B"/>
<path d="M118.019 94.5744L116.5 94.6646L121.578 180.288L123.098 180.198L118.019 94.5744Z" fill="#04003B"/>
<path d="M66.1841 128.311L64.666 128.423L70.6887 210.477L72.2068 210.366L66.1841 128.311Z" fill="#04003B"/>
<path d="M51.8724 207.483L50.3535 207.584L55.2408 280.916L56.7597 280.814L51.8724 207.483Z" fill="#04003B"/>
<path d="M103.292 255.002C98.8775 255.002 94.4782 253.89 90.49 251.698L14.957 209.974L15.6877 208.634L91.2207 250.359C98.5122 254.393 107.28 254.514 114.693 250.709L277.876 166.773L278.577 168.128L115.394 252.064C111.588 254.012 107.432 255.002 103.292 255.002Z" fill="#04003B"/>
<path d="M104.156 282.676C99.7416 282.676 95.3423 281.58 91.354 279.373L19.6875 239.779L20.4182 238.44L92.0848 278.033C99.3762 282.052 108.144 282.189 115.558 278.383L273.032 197.385L273.732 198.74L116.258 279.738C112.452 281.686 108.296 282.676 104.156 282.676Z" fill="#04003B"/>
<path d="M25.8259 181.737L25.0039 180.458L148.715 100.465C164.318 90.3725 183.925 90.0071 199.908 99.4906L265.151 138.247L264.374 139.556L199.132 100.8C183.666 91.6055 164.668 91.9708 149.553 101.743L25.8259 181.737Z" fill="#04003B"/>
<path d="M247.078 161.818L246.275 163.111L275.727 181.388L276.53 180.094L247.078 161.818Z" fill="#04003B"/>
<path d="M53.9696 197.811L53.1172 196.548L147.069 133.452C162.885 122.826 183.572 122.461 199.769 132.508L235.206 154.504L234.4 155.798L198.962 133.802C183.283 124.059 163.235 124.425 147.906 134.715L53.9696 197.811Z" fill="#04003B"/>
<path d="M41.9185 204.064L16.8613 220.896L17.7101 222.16L42.7673 205.328L41.9185 204.064Z" fill="#04003B"/>
<path d="M240.349 187.48L239.588 188.799L261.721 201.578L262.482 200.259L240.349 187.48Z" fill="#04003B"/>
<path d="M232.261 191.665L231.5 192.984L253.633 205.763L254.395 204.445L232.261 191.665Z" fill="#04003B"/>
<path d="M269.351 218.925L269.244 217.113C268.727 215.287 267.007 213.46 264.373 211.953L265.134 210.629C268.148 212.364 270.142 214.556 270.736 216.794C270.751 216.839 270.751 216.9 270.766 216.946L270.873 218.849L269.351 218.925Z" fill="#04003B"/>
<path d="M258.343 206.746L257.582 208.064L264.371 211.984L265.132 210.666L258.343 206.746Z" fill="#04003B"/>
<path d="M271.21 207.356C270.19 206.534 269.2 205.849 268.211 205.27L268.972 203.946C270.022 204.555 271.073 205.286 272.154 206.153L271.21 207.356Z" fill="#04003B"/>
<path d="M266.392 202.444L265.631 203.762L268.202 205.246L268.963 203.927L266.392 202.444Z" fill="#04003B"/>
<path d="M21.5168 247.04L20.5273 245.883C21.3037 245.214 22.0344 244.666 22.765 244.178L23.6023 245.442C22.9325 245.899 22.2627 246.401 21.5168 247.04Z" fill="#04003B"/>
<path d="M50.6999 235.214L36.5312 244.391L37.3587 245.669L51.5274 236.492L50.6999 235.214Z" fill="#04003B"/>
<path d="M83.031 216.87L82.209 215.591L156.128 167.61C160.406 164.764 166.693 163.12 173.36 163.12C179.525 163.12 185.279 164.49 189.557 166.971L201.75 174.019L200.989 175.343L188.796 168.295C184.731 165.951 179.251 164.657 173.36 164.657C166.982 164.657 161 166.195 156.966 168.889L83.031 216.87Z" fill="#04003B"/>
<path d="M209.605 178.596L208.844 179.914L223.173 188.187L223.934 186.869L209.605 178.596Z" fill="#04003B"/>
<path d="M217.445 174.39L216.717 175.726L223.292 179.311L224.021 177.975L217.445 174.39Z" fill="#04003B"/>
<path d="M75.511 212.516L74.6738 211.253L150.846 160.852C155.854 157.518 162.674 155.493 170.057 155.143L178.855 155.737C184.35 156.392 189.359 157.959 193.377 160.304L209.787 169.787L209.026 171.112L192.616 161.628C188.765 159.406 183.955 157.883 178.703 157.259L170.026 156.666C163.009 157 156.448 158.949 151.668 162.13L75.511 212.516Z" fill="#04003B"/>
<path d="M228.146 180.364L227.385 181.682L235.677 186.471L236.438 185.152L228.146 180.364Z" fill="#04003B"/>
<path d="M47.8087 227.933L29.0918 240.058L29.9194 241.336L48.6364 229.211L47.8087 227.933Z" fill="#04003B"/>
<path d="M25.4474 242.397L22.7676 244.14L23.5975 245.416L26.2773 243.673L25.4474 242.397Z" fill="#04003B"/>
<path d="M32.9545 246.727L27.0137 250.576L27.8413 251.853L33.7822 248.005L32.9545 246.727Z" fill="#04003B"/>
<path d="M22.2623 257.681C22.1861 255.199 23.8606 252.688 26.9812 250.602L27.8184 251.866C25.1545 253.647 23.7084 255.687 23.7692 257.62L22.2623 257.681Z" fill="#04003B"/>
<path d="M66.5018 215.81L53.9414 223.944L54.7689 225.222L67.3293 217.088L66.5018 215.81Z" fill="#04003B"/>
<path d="M73.9852 220.132L58.8711 229.921L59.6986 231.199L74.8127 221.41L73.9852 220.132Z" fill="#04003B"/>
</svg>
