<svg width="20" height="19" viewBox="0 0 20 19" fill="none" xmlns="http://www.w3.org/2000/svg">
<path d="M11.1043 1.67701L12.9317 5.32776C13.1108 5.68616 13.4565 5.93467 13.8573 5.99218L17.9453 6.58062C18.9554 6.72644 19.3573 7.9505 18.6263 8.6519L15.6702 11.4924C15.3797 11.7718 15.2474 12.1733 15.3162 12.5676L16.0138 16.5778C16.1856 17.5698 15.1298 18.3267 14.227 17.8574L10.5732 15.9627C10.215 15.7768 9.786 15.7768 9.4268 15.9627L5.773 17.8574C4.87023 18.3267 3.81439 17.5698 3.98724 16.5778L4.68385 12.5676C4.75257 12.1733 4.62033 11.7718 4.32982 11.4924L1.37368 8.6519C0.642719 7.9505 1.04464 6.72644 2.05466 6.58062L6.14265 5.99218C6.54354 5.93467 6.89028 5.68616 7.06937 5.32776L8.8957 1.67701C9.3477 0.77433 10.6523 0.77433 11.1043 1.67701Z" stroke="#868686" stroke-linecap="round" stroke-linejoin="round"/>
</svg>
