<svg width="42" height="40" viewBox="0 0 40 38" fill="none" xmlns="http://www.w3.org/2000/svg">
<path d="M38.8097 18.2196L32.2538 24.5368L33.8012 33.4482C34.0538 34.9028 33.4686 36.3532 32.2727 37.2315C31.0538 38.1245 29.4621 38.2472 28.1189 37.5526L20.0009 33.3363L11.8828 37.5526C11.3059 37.8524 10.6807 38 10.0596 38C9.23854 38 8.42373 37.7403 7.72898 37.2315C6.53526 36.3532 5.94792 34.9028 6.20056 33.4482L7.74793 24.5368L1.19202 18.2196C0.118316 17.1851 -0.266999 15.6632 0.187748 14.2487C0.646706 12.8173 1.86357 11.7977 3.36255 11.5824L12.4344 10.2793L16.4892 2.16174C17.1545 0.827444 18.5019 0 20.0009 0C21.4998 0 22.8472 0.829555 23.5125 2.16174L27.5673 10.2793L36.6392 11.5824C38.1361 11.7977 39.3529 12.8173 39.8119 14.2487C40.2666 15.6632 39.8834 17.1851 38.8097 18.2196Z" fill="#FEF400"/>
</svg>
