<svg width="37" height="38" viewBox="0 0 37 38" fill="none" xmlns="http://www.w3.org/2000/svg">
<path d="M35.6778 34.0483L27.6569 25.6051C29.6767 22.9116 30.8942 19.5207 30.8942 15.8321C30.8942 7.11367 24.1563 0.0209961 15.8739 0.0209961C7.59148 0.0209961 0.853516 7.11367 0.853516 15.8321C0.853516 24.5505 7.59148 31.6432 15.8739 31.6432C19.3798 31.6432 22.5995 30.3634 25.1582 28.2354L33.1791 36.6786C33.5237 37.0414 33.9761 37.2236 34.4285 37.2236C34.8808 37.2236 35.3332 37.0414 35.6778 36.6786C36.3687 35.9513 36.3687 34.7756 35.6778 34.0483ZM4.38772 15.8321C4.38772 9.1654 9.54059 3.74126 15.8739 3.74126C22.2072 3.74126 27.36 9.1654 27.36 15.8321C27.36 22.4988 22.2072 27.923 15.8739 27.923C9.54059 27.923 4.38772 22.4988 4.38772 15.8321Z" fill="#232323"/>
</svg>
