<svg width="22" height="34" viewBox="0 0 22 34" fill="none" xmlns="http://www.w3.org/2000/svg">
<path d="M11.0007 5.59973C7.96725 5.59973 5.50035 8.1112 5.50035 11.1995C5.50035 14.2877 7.96725 16.7992 11.0007 16.7992C14.0341 16.7992 16.501 14.2877 16.501 11.1995C16.501 8.1112 14.0341 5.59973 11.0007 5.59973ZM11.0007 13.9993C9.48397 13.9993 8.25052 12.7436 8.25052 11.1995C8.25052 9.65533 9.48397 8.39959 11.0007 8.39959C12.5174 8.39959 13.7509 9.65533 13.7509 11.1995C13.7509 12.7436 12.5174 13.9993 11.0007 13.9993ZM10.9952 0C4.72618 0 0 4.81437 0 11.1995C0 20.0554 6.61691 25.5627 9.46197 27.5184C9.92675 27.839 10.4617 28 10.9952 28C11.5274 28 12.0595 27.8404 12.5243 27.5212C15.3735 25.5627 22 20.0526 22 11.1995C22.0014 4.81437 17.2697 0 10.9952 0ZM11.0021 25.1988C8.52142 23.4923 2.75017 18.7129 2.75017 11.1995C2.75017 6.33189 6.21677 2.79986 10.9952 2.79986C15.7021 2.79986 19.2512 6.41029 19.2512 11.1995C19.2512 18.7087 13.4717 23.4923 11.0021 25.1988Z" fill="black"/>
<ellipse cx="11.5" cy="32.5" rx="10.5" ry="1.5" fill="black"/>
</svg>
