<svg width="54" height="58" viewBox="0 0 54 58" fill="none" xmlns="http://www.w3.org/2000/svg">
<path d="M2.69934 34.7832H8.09941V55.0979C8.09941 55.8677 8.38388 56.6058 8.89024 57.15C9.39658 57.6943 10.0833 58 10.7994 58H43.1998C43.916 58 44.6027 57.6943 45.1091 57.15C45.6154 56.6058 45.9 55.8677 45.9 55.0979V34.7832H51.3C51.8218 34.7837 52.3325 34.6213 52.77 34.3158C53.2076 34.0103 53.5534 33.5749 53.7651 33.0622C53.9784 32.55 54.0484 31.9819 53.967 31.4276C53.8855 30.8732 53.6558 30.3563 53.3061 29.9396L29.0057 0.918517C27.9824 -0.306172 26.0168 -0.306172 24.9935 0.918517L0.693201 29.9396C0.344073 30.3565 0.114825 30.8732 0.0332131 31.4272C-0.0483881 31.9814 0.0211351 32.5489 0.233391 33.0613C0.445629 33.5738 0.791499 34.0091 1.22915 34.3147C1.66678 34.6204 2.17744 34.783 2.69934 34.7832ZM17.9626 27.9371C19.0865 26.7445 20.6023 26.0759 22.1814 26.0759C23.7607 26.0759 25.2765 26.7445 26.4002 27.9371L27.005 28.5755L27.6071 27.9371C28.7314 26.7444 30.2476 26.0755 31.8274 26.0755C33.4071 26.0755 34.9232 26.7444 36.0475 27.9371C36.6053 28.5139 37.049 29.2056 37.3522 29.9712C37.6551 30.7366 37.8113 31.5599 37.8113 32.3919C37.8113 33.2237 37.6551 34.0471 37.3522 34.8125C37.049 35.578 36.6053 36.2698 36.0475 36.8467L27.005 46.3916L17.9626 36.8467C17.4049 36.2698 16.9612 35.578 16.6581 34.8125C16.355 34.0471 16.1987 33.2237 16.1987 32.3919C16.1987 31.5599 16.355 30.7366 16.6581 29.9712C16.9612 29.2056 17.4049 28.5139 17.9626 27.9371Z" fill="url(#paint0_linear_165_1888)"/>
<defs>
<linearGradient id="paint0_linear_165_1888" x1="27" y1="4.67722e-07" x2="26.9986" y2="101.5" gradientUnits="userSpaceOnUse">
<stop stop-color="#FF1100"/>
<stop offset="0.672928" stop-color="#BDE483"/>
</linearGradient>
</defs>
</svg>
