<svg width="3648" height="878" viewBox="0 0 3648 878" fill="none" xmlns="http://www.w3.org/2000/svg">
<path fill-rule="evenodd" clip-rule="evenodd" d="M1926.22 795.809H1889.72L1883.48 821.23H1860.89L1893.39 688.893H1923.95L1956.44 821.23H1932.47L1926.22 795.809V795.809ZM2021.76 707.827H1987.73V821.23H1963.95V688.893H2045.54V821.23H2021.76V707.827V707.827ZM2083.04 707.827H2053.21V688.893H2136.65V707.827H2106.82V821.23H2083.04V707.827ZM2168.1 744.783H2207.64V763.537H2168.1V802.296H2216.66V821.23H2144.32V688.893H2216.66V707.827H2168.1V744.783V744.783ZM2257.74 768.492L2251.35 776.886V821.23H2227.57V688.893H2251.35V743.739L2290.06 688.893H2315.54L2272.34 749.6L2316.47 821.23H2291.12L2257.74 768.492V768.492ZM2382 795.809H2345.5L2339.25 821.23H2316.67L2349.16 688.893H2379.72L2412.21 821.23H2388.24L2382 795.809V795.809ZM2535.35 821.23H2474.96V838.538H2451.87V802.657H2464.08C2468.38 798.425 2469.05 793.311 2469.45 787.12L2475.88 688.893H2546.41V802.657H2558.66V838.538H2535.35V821.23V821.23ZM2567.26 787.694V722.429C2567.26 715.603 2568.7 708.913 2572.28 703.187C2579.92 690.99 2594.23 687.631 2607.13 687.631C2620.12 687.631 2634.62 690.976 2642.28 703.312C2645.81 709.01 2647.23 715.653 2647.23 722.429V787.694C2647.23 794.337 2645.84 800.849 2642.44 806.471C2634.83 819.02 2620.25 822.492 2607.13 822.492C2594.11 822.492 2579.71 819.006 2572.12 806.597C2568.67 800.946 2567.26 794.387 2567.26 787.694V787.694ZM2696.39 687.631C2709.15 687.631 2723.26 690.89 2730.79 702.988C2734.39 708.772 2735.8 715.551 2735.8 722.429V736.854H2712.94V721.708C2712.94 710.552 2706.81 706.565 2696.85 706.565C2687.02 706.565 2680.76 710.663 2680.76 721.708V788.415C2680.76 799.46 2687.02 803.558 2696.85 803.558C2706.81 803.558 2712.94 799.57 2712.94 788.415V768.942H2735.8V787.694C2735.8 794.571 2734.39 801.351 2730.79 807.135C2723.26 819.233 2709.15 822.492 2696.39 822.492C2683.73 822.492 2669.8 819.221 2662.29 807.263C2658.64 801.451 2657.21 794.622 2657.21 787.694V722.429C2657.21 715.5 2658.64 708.671 2662.29 702.859C2669.8 690.902 2683.73 687.631 2696.39 687.631ZM2771.22 707.827H2741.39V688.893H2824.82V707.827H2794.99V821.23H2771.22V707.827V707.827ZM2886.64 791.398C2884.65 798.167 2882.02 804.939 2877.43 810.193C2868.16 820.802 2853.32 821.877 2840.59 821.408L2837.81 821.306V802.543L2840.79 802.659C2846.01 802.862 2853.45 802.772 2857.54 798.695C2859.27 796.967 2860.34 794.678 2861.09 792.306L2861.14 792.131L2864.36 784.921L2825.93 688.893H2850.26L2867.41 734.663L2875.62 758.133L2882.59 734.79L2897.86 688.893H2922.76L2886.64 791.398V791.398ZM2986.73 707.827H2952.7V821.23H2928.92V688.893H3010.51V821.23H2986.73V707.827V707.827ZM3081.08 764.438H3047.05V821.23H3023.27V688.893H3047.05V745.685H3081.08V688.893H3104.86V821.23H3081.08V764.438ZM3141.39 738.653H3154.48C3176.04 738.653 3195.04 746.081 3195.04 772.189V787.334C3195.04 794.222 3193.68 801.043 3189.98 806.788C3182.46 818.47 3168.25 821.23 3155.87 821.23H3117.62V688.893H3141.39V738.653V738.653ZM3204.33 688.893H3227.88V821.23H3204.33V688.893ZM3283.73 770.277L3258.41 821.23H3234.78L3268.93 753.076L3236.87 688.893H3262.12L3285.37 735.903L3308.85 688.893H3332.21L3300.4 753.076L3334.3 821.23H3308.83L3283.73 770.277ZM3449.22 821.23H3378.69V688.893H3402.23V802.296H3436.27V688.893H3460.28V802.657H3472.53V838.177H3449.22V821.23V821.23ZM3506.06 744.783H3545.6V763.537H3506.06V802.296H3554.62V821.23H3482.28V688.893H3554.62V707.827H3506.06V744.783V744.783ZM3623.34 764.438H3589.31V821.23H3565.53V688.893H3589.31V745.685H3623.34V688.893H3647.12V821.23H3623.34V764.438ZM1907.66 719.814L1893.54 777.596H1922.15L1907.66 719.814ZM2363.44 719.814L2349.31 777.596H2377.93L2363.44 719.814ZM2497.89 707.827L2492.75 787.384L2492.75 787.405C2492.32 793.076 2491.52 798.254 2488.96 802.657H2522.4V707.827H2497.89V707.827ZM2590.81 721.708V788.415C2590.81 799.577 2597.27 803.558 2607.13 803.558C2617.11 803.558 2623.45 799.686 2623.45 788.415V721.708C2623.45 710.532 2617.03 706.565 2607.13 706.565C2597.36 706.565 2590.81 710.642 2590.81 721.708V721.708ZM3141.39 802.296H3155.87C3160.19 802.296 3165.93 801.689 3168.93 797.88C3171.02 795.219 3171.5 791.412 3171.5 788.055V771.288C3171.5 767.996 3171 764.345 3168.87 761.8C3165.6 757.898 3159.02 757.407 3154.48 757.407H3141.39V802.296V802.296Z" fill="#2B2B2A"/>
<path fill-rule="evenodd" clip-rule="evenodd" d="M403.028 29.1016C625.532 29.1016 805.907 209.477 805.907 431.981C805.907 654.485 625.532 834.86 403.028 834.86C180.523 834.86 0.148438 654.485 0.148438 431.981C0.148438 209.477 180.523 29.1016 403.028 29.1016V29.1016Z" fill="#58B03A"/>
<path fill-rule="evenodd" clip-rule="evenodd" d="M403.03 97.7393C587.625 97.7393 737.27 247.384 737.27 431.98C737.27 616.576 587.625 766.221 403.03 766.221C218.434 766.221 68.7891 616.576 68.7891 431.98C68.7891 247.384 218.434 97.7393 403.03 97.7393Z" fill="white"/>
<path fill-rule="evenodd" clip-rule="evenodd" d="M369.472 690.679L372.271 688.705C374.298 691.114 379.721 696.497 378.626 700.248C377.469 704.213 374.712 708.792 372.468 711.143L374.141 715.621L364.152 712.655L364.238 708.614L366.855 699.646L369.472 690.679V690.679ZM345.407 671.275C346.123 672.823 352.75 708.001 352.724 708.086C351.707 711.574 319.671 711.87 326.235 689.374L328.851 680.408C330.528 674.664 345.756 660.404 350.054 660.113L347.81 667.8C346.382 672.697 348.067 668.379 345.407 671.275V671.275ZM320.414 686.361L319.986 691.747C318.727 696.064 315.105 700.065 310.961 698.875C300.857 695.975 300.336 687.682 303.003 678.542C305.101 671.35 322.502 650.83 327.205 651.079L327.841 656.554L320.414 686.361V686.361ZM211.144 636.537C211.194 636.215 211.265 635.894 211.358 635.575C212.162 632.82 216.961 634.03 220.342 630.333C224.773 625.488 222.286 626.662 227.899 622.499C230.868 620.297 243.129 612.378 245.964 612.187L243.347 621.155C240.119 632.218 242.85 628.87 233.542 636.668C230.25 639.427 223.794 645.562 218.568 645.683C218.392 645.888 218.21 646.096 218.015 646.311C215.389 649.194 216.311 659.512 220.546 657.105C221.366 656.639 239.268 646.246 237.418 651.293C237.124 652.095 230.519 658.916 225.087 665.132C226.951 666.576 228.825 667.993 230.702 669.371C239.509 664.029 251.109 656.638 260.061 652.742C262.436 649.293 264.768 644.492 267.272 643.048C276.13 637.941 269.68 643.628 279.208 635.324C280.043 634.595 303 624.301 305.138 623.618L303.613 628.714L286.452 646.248C283.303 659.789 288.753 665.491 287.087 671.197L285.592 676.321C284.5 680.065 276.588 683.455 272.722 682.346C267.479 680.841 265.089 678.044 263.293 674.986C259.919 680.564 258.458 685.447 264.414 687.827C272.703 691.139 271.681 688.818 263.57 692.808C262.585 693.293 261.984 693.878 261.588 694.503L349.361 719.616L351.924 720.352C410.374 737.128 523.243 704.395 558.295 677.677C571.65 667.498 585.09 658.454 599.115 647.933C612.872 637.615 621.335 624.78 632.816 611.439L623.122 601.424L600.269 597.773C600.211 597.916 600.153 598.061 600.094 598.215L589.737 595.621C584.852 594.22 584.103 591.227 582.795 590.852C578.651 589.663 559.843 593.983 557.106 593.198C557.004 593.168 533.964 575.448 520.362 571.543L516.517 570.44C507.308 567.797 489.793 578.043 479.08 574.967C475.57 573.96 475.647 571.205 472.013 570.624L464.447 567.99C455.073 565.299 451.789 568.455 448.757 559.675L440.307 555.508C439.261 555.726 432.891 557.545 432.777 557.511C430.093 556.741 425.533 550.933 423.636 548.578C418.567 542.286 422.168 541.5 423.911 535.528C425.209 531.077 421.917 532.837 423.216 528.387L423.59 527.106C425.979 518.919 428.998 518.092 431.387 509.906L434.751 498.376C436.402 492.715 433.525 493.056 436.299 483.548C432.846 472.661 434.121 467.21 438.449 452.276L433.894 446.556L433.254 436.856C436.703 425.034 435.135 427.877 429.875 421.521C425.938 416.764 428.88 411.711 429.397 404.586C430.179 393.825 420.054 382.12 422.785 372.76C424.193 367.936 424.335 370.581 426.31 365.441C425.435 362.685 424.403 362.454 425.242 359.581L425.615 358.301C427.929 350.369 430.651 350.561 434.055 346.188C439.145 339.65 437.353 337.119 439.34 330.305C440.646 325.829 442.643 323.601 445.631 322.447L445.588 327.934L450.545 329.41L450.522 334.734L459.849 336.193C460.906 335.304 463.15 332.881 464.723 333.715L474.981 337.724L475.849 328.012L478.758 326.488L479.851 319.811L471.169 311.674C474.444 301.316 500.758 291.009 514.28 295.785L506.198 300.676L503.979 302.098L496.697 305.116L500.542 306.22L498.678 312.798L504.175 312.817C504.757 316.342 505.102 319.157 503.747 323.801C502.886 326.753 501.733 327.388 498.781 326.541C498.611 326.492 486.363 310.705 484.574 308.579C484.355 318.169 493.368 313.046 491.729 326.132C491.086 331.257 488.358 347.981 487.46 351.06C485.107 359.122 461.292 357.022 457.085 360.182L459.147 362.335L469.248 361.105C467.399 365.92 461.668 371.425 456.912 370.06C453.45 369.067 453.556 368.433 451.153 367.184L444.05 375.81L455.043 376.466L456.164 372.622C459.731 373.732 463.658 375.5 462.733 378.674C461.646 382.398 458.671 382.573 456.271 386.537L457.533 386.087L459.529 394.414C463.345 394.485 463.88 393.782 465.243 389.112L466.738 383.988C463.585 381.52 464.002 379.084 465.51 373.916C466.64 370.044 468.052 370.807 471.758 371.545C470.421 378.114 474.206 379.071 479.782 382.174L480.196 371.189L471.224 368.615C474.059 359.646 485.397 358.264 490.779 352.077L492.384 343.062L500.403 351.807L501.398 350.896C499.094 344.575 494.207 346.976 496.699 338.44L497.82 334.595C500.174 326.528 509.336 332.347 513.414 333.518C518.061 334.851 520.882 334.496 524.416 333.899L524.941 335.221L514.685 338.102L514.355 343.921L503.938 334.925L502.947 336.068C499.831 347.701 510.035 345.098 507.433 354.016C506.018 358.867 502.668 359.167 497.873 358.214C497.73 364.464 502.604 363.342 509.196 367.018C509.027 370.083 509.618 370.332 508.609 373.791C506.568 380.787 503.974 380.153 501.933 387.148C500.533 391.95 511.685 398.98 514.27 411.515C510.994 417.339 509.1 421.897 502.633 420.192L499.588 414.263L488.436 416.559L488.665 418.195L500.582 424.414L502.313 428.95L498.274 433.254L502.362 442.808C503.696 441.497 504.044 441.805 504.765 439.332L505.886 435.49L509.369 435.717L504.818 429.629L505.939 425.786C506.908 422.465 510.712 423.05 514.965 418.656C516.659 420.853 527.578 432.561 527.356 433.321C525.547 439.517 524.096 432.746 519.986 439.536L522.549 440.272L521.428 444.115C519.998 449.013 520.898 444.468 521.588 448.326C529.679 445.357 528.847 443.216 531.201 434.424L539.474 437.276L542.523 443.228L543.271 440.665L550.961 442.873C551.183 433.131 545.126 434.255 538.73 432.42L536.168 431.684C524.529 428.344 521.416 418.926 519.487 409.713C519.412 409.361 508.46 387.782 507.203 384.671L515.391 374.351C518.607 376.059 525.663 377.232 524.15 382.418L522.712 388.332L530.505 393.96C540.123 383.065 509.929 369.267 512.72 359.699C513.559 356.826 514.556 357.178 516.326 355.249L517.444 347.215L518.655 346.46L525.26 354.98L521.824 360.853L523.179 359.866L531.199 367.779C532.304 347.708 526.919 355.336 523.081 343.235C525.476 342.469 531.744 342.111 532.267 340.317C533.277 336.858 532.686 336.61 532.859 333.563L538.136 332.523L538.041 325.071L543.535 325.503C543.786 322.169 542.85 319.753 547.593 321.114L554.949 323.281L553.542 333.904L546.567 340.186L545.636 346.653L555.338 346.94C557.059 349.606 558.737 349.576 557.688 353.168L556.94 355.73C553.026 369.147 545.116 357.711 540.011 366.143C546.66 366.481 552.823 368.999 555.979 363.785C567.261 368.066 579.321 387.377 575.483 401.423L571.575 396.029C569.038 396.458 565.143 396.96 561.854 396.016C561.09 395.797 559.711 393.486 558.605 392.256L554.328 399.054L557.99 404.655L552.147 410.007L545.673 403.868L543.319 409.524L537.182 413.926L544.872 416.134C544.832 417.751 545.135 419.994 545.032 420.345C543.625 425.169 543.483 422.526 541.508 427.664L547.916 429.503C551.204 430.447 550.925 430.702 552.67 432.256C554.538 431.865 557.655 430.911 559.826 431.533C564.001 432.731 563.707 436.587 564.415 439.957L574.718 437.332L581.402 443.28C579.95 450.412 582.759 447.614 581.437 450.269L579.236 464.436L587.705 464.526C585.685 468.117 578.835 473.088 583.433 474.408C592.12 476.901 590.464 470.872 593.899 471.859C597.908 473.009 596.861 475.2 598.029 479.08L607.452 470.915L614.159 482.709L629.558 482.261L631.29 486.797L627.172 491.127C632.82 492.886 633.24 492.427 632.079 498.013L636.001 497.887L635.741 504.817L647.094 503.789L647.841 501.225L643.996 500.121C646.257 494.238 648.216 496.365 647.748 494.38L650.723 477.062C660.022 474.088 660.271 477.666 664.556 462.982L659.73 461.518L659.642 456.017C656.188 455.953 651.942 457.973 650.954 457.227L643.14 455.446C639.965 454.535 640.57 450.267 641.465 447.301L660.918 448.85L669.352 463.539L668.039 463.943L663.553 476.821L656.385 481.464C656.755 483.53 657.046 483.959 656.172 486.956L655.05 490.798L655.744 491.961L666.261 485.679L664.922 485.154L672.794 468.091L682.661 472.344L682.622 472.477L692.374 472.857C694.527 461.302 696.864 449.514 697.262 438.492C698.092 415.472 696.76 403.531 694.356 383.124C690.076 346.792 677.968 315.831 661.631 286.159C631.898 232.156 576.976 172.656 493.704 148.755L482.167 145.444C406.267 123.658 320.092 140.619 271.095 167.82C205.693 204.128 170.727 238.211 130.374 319.928C114.386 352.304 107.04 411.933 108.186 439.879C109.441 470.439 114.725 502.984 124.734 529.526L132.146 528.449L151.433 526.74L154.073 514.264L152.962 507.146L158.039 509.151L156.721 499.101L160.565 500.205C160.744 496.533 159.988 497.421 160.779 494.712C161.64 491.76 162.792 491.124 165.746 491.972C169.207 492.966 169.101 493.599 171.327 494.269L176.747 492.353L175.454 497.845L181.874 493.825C181.893 493.852 183.891 495.793 184.064 495.842C185.612 496.286 190.066 496.488 191.461 496.049L186.326 487.045L184.73 487.534L190.459 481.592L180.863 463.249L179.742 464.115L176.319 470.017C174.272 467.362 173.784 464.423 175.091 459.944C175.106 459.892 181.113 453.342 182.461 453.729C187.89 455.287 184.059 458.699 186.187 463.499C188.358 468.392 192.484 466.61 193.828 472.182C195.5 479.111 190.909 489.476 201.687 492.571L206.268 493.268L201.689 486.917L204.304 483.602C194.838 480.885 194.574 479.62 197.129 470.313L206.173 477.197C203.545 464.451 183.459 470.851 187.783 452.944L184.928 446.721L197.14 442.157L206.708 442.704L201.205 450.715L202.855 451.052L201.527 455.036C208.46 455.166 222.377 443.924 226.199 437.127L228.763 437.862C228.591 440.989 229.38 441.907 228.487 444.773L223.138 457.085L224.224 462.941L226.28 463.286L231.74 456.22L232.876 457.093C231.327 452.207 227.954 450.155 229.831 443.722L231.711 438.142L238.27 443.368C239.777 440.688 240.41 440.791 241.42 437.33L243.811 430.167L249.552 428.54L253.917 432.587L255.494 427.851L262.36 426.64L265.984 417.463L262.835 411.543C260.497 411.939 258.831 411.548 256.661 412.09C252.375 413.159 253.216 415.726 250.712 415.006C247.251 414.013 247.357 413.38 244.677 411.886C246.817 406.316 271.166 402.987 275.706 405.519C276.888 404.608 288.027 400.725 288.203 400.775C289.028 401.013 295.931 409.244 298.081 411.451C298.999 412.394 303.574 424.27 303.478 424.598C301.558 431.175 293.86 435.82 290.698 440.588C284.897 449.338 286.99 454.868 275.209 452.76L270.26 462.27C282.738 462.903 286.966 451.997 294.211 441.165L291.865 454.674L299.282 462.275L302.411 452.06C297.79 450.621 294.883 449.29 296.214 444.728L298.084 438.322C299.45 433.641 304.612 429.088 308.765 430.281L315.174 432.121C318.636 433.115 318.53 433.747 321.481 435.378L318.058 441.279C319.781 443.399 320.568 442.198 319.5 445.857L316.884 454.825L320.232 455.715L322.651 439.819C326.755 442.109 337.177 450.931 337.445 451.008C341.863 452.277 342.684 451.486 346.791 452.302L345.562 453.586L355.279 461.65L355.652 450.401L337.284 446.797C332.725 445.97 325.743 436.252 324.894 432.133C310.315 427.949 302.058 421.082 305.774 407.208C300.126 404.058 295.928 402.864 298.136 395.296C299.105 391.976 299.379 394.226 301.287 389.258L298.724 388.522C302.545 376.434 311.12 379.015 316.775 374.266C317.785 369.303 316.707 364.977 317.949 360.719C319.006 357.094 324.635 352.918 328.256 353.959L332.101 355.063C340.118 357.363 335.992 371.204 348.421 375.083C363.157 379.681 365.672 382.134 370.41 393.052C372.175 397.117 381.05 415.576 381.131 417.235C381.722 429.191 385.887 437.332 383.32 446.126C384.926 448.035 386.67 448.929 385.67 452.355L384.922 454.917C383.922 458.343 381.966 458.174 380.111 459.194L363.08 491.688C358.623 489.997 356.202 486.938 353.574 486.184C348.898 484.84 350.184 486.455 344.228 484.888L343.48 487.451C348.95 490.737 350.549 494.382 349.088 501.557L345.194 500.467L347.219 507.962C340.879 519.233 341.083 528.807 328.744 533.208C323.755 534.988 302.729 542.398 297.338 540.852C284.973 537.302 279.484 527.939 267.645 537.882C254.524 534.115 240.449 549.917 230.868 557.328C228.749 558.966 219.499 561.797 210.063 563.94V563.94L210.057 563.942C203.082 565.525 196.01 566.731 191.636 566.8L174.714 569.427L167.649 578.313L159.177 590.597L167.413 587.005C173.574 574.327 196.286 573.288 209.692 573.75C219.233 574.08 238.93 552.534 248.686 550.489C243.861 565.754 236.992 560.057 229.172 567.969C217.087 580.194 224.251 576.423 207.618 581.743L194.522 579.595L169.459 588.342L158.886 596.167C163.55 603.294 168.588 610.224 174.13 616.921L187.451 610.162C191.62 605.603 206.127 595.785 209.381 594.745L211.285 588.431L219.288 586.638L203.121 613.572L195.282 624.02L195.15 623.978L189.38 633.508C190.169 634.296 190.984 635.103 191.821 635.923C195.268 637.229 204.054 636.363 211.144 636.537V636.537ZM319.451 622.173L321.229 623.156L325.588 633.932L305.993 668.293L303.43 667.557C306.324 657.641 307.594 651.056 309.63 641.561C313.74 622.399 315.095 633.507 319.451 622.173V622.173ZM370.561 632.677C371.942 627.941 374.464 627.151 376.489 621.883L378.888 622.62L378.198 644.588C383.291 647.429 385.629 652.444 383.805 658.693C382.311 663.816 375.906 664.805 372.034 668.677C367.222 673.489 365.833 678.36 362.39 684.48C358.909 674.126 358.581 664.214 362.016 652.439C363.714 646.623 366.588 642.293 369.973 639.45C370.142 636.385 369.551 636.137 370.561 632.677V632.677ZM416.157 640.501C420.401 644.57 421.904 647.763 422.886 653.261C424.356 661.491 426.729 659.056 429.274 665.86C431.897 672.867 426.658 674.45 431.468 680.774C435.408 685.952 439.445 686.294 438.227 694.473L441.278 703.575L439.479 704.585L429.557 695.196L428.347 696.47C427.52 693.862 423.727 685.431 422.083 682.727C417.283 674.83 424.158 676.609 417.131 668.259L418.657 668.116L416.157 640.501V640.501ZM484.529 651.505C489.929 657.923 494.879 673.159 491.686 684.105C484.09 675.078 479.837 667.585 484.529 651.505ZM485.385 696.18C482.186 707.142 472.527 683.011 471.68 680.092C470.924 677.481 471.582 653.032 472.619 649.475L474.115 644.351C475.124 640.89 475.757 640.993 477.266 638.313C481.888 641.091 478.216 661.111 479.138 667.378C480.881 679.228 489.212 683.063 485.385 696.18V696.18ZM529.443 654.678C532.122 656.172 532.015 656.805 535.478 657.799C541.783 659.609 548.654 663.336 548.99 668.619L545.146 667.515C541.1 666.355 537.655 664.774 534.583 662.591C530.205 659.481 530.766 658.065 529.443 654.678V654.678ZM298.535 618.909C293.035 621.277 269.534 637.002 264.176 635.464C260.223 634.33 262.369 617.85 263.374 614.407L263.749 613.126C267.545 600.113 299.719 585.746 309.87 584.673L298.535 618.909V618.909ZM203.506 629.157C200.554 628.309 199.922 627.162 200.783 624.21C202.542 618.181 207.436 616.173 210.93 613.239C210.56 611.171 210.269 610.743 211.143 607.746C211.334 607.092 220.853 593.067 222.483 591.101C228.226 584.175 230.035 582.774 237.283 578.78C246.494 573.705 247.463 579.412 254.154 572.181C257.868 568.168 266.25 565.46 271.17 563.885C276.756 565.488 282.272 563.922 280.677 569.391L280.303 570.672C278.233 577.765 268.502 584.938 263.992 590.049C254.637 600.654 248.79 589.874 243.446 601.734C239.299 610.936 210.736 631.233 203.506 629.157V629.157ZM413.927 684L412.75 697.151L393.313 697.521C392.377 694.573 388.775 684.589 390.153 681.338L394.945 661.667L384.231 675.052L386.53 696.963C381.563 694.192 379.697 692.67 379.251 687.005C378.796 681.248 376.905 677.581 378.039 673.699L378.412 672.417C379.192 669.742 386.143 665.551 388.867 662.006C395.269 653.671 392.272 653.481 394.7 645.159C396.681 638.375 400.685 635.514 398.97 628.833C398.107 625.473 394.744 616.444 395.607 613.486C397.024 608.632 400.27 605.976 403.725 604.709C398.311 614.334 401.442 616.316 403.637 624.107C405.913 632.19 402.602 637.553 402.936 645.991C403.205 652.787 401.706 660.404 406.155 665.714C411.12 671.64 411.68 676.916 413.927 684V684ZM342.217 584.304L347.915 581.747L345.441 589.536L347.114 594.014C347.087 594.032 345.135 596.036 345.085 596.207C344.54 598.075 347.279 606.688 347.269 613.277C347.259 620.871 353.052 621.554 355.179 628.263C352.158 633.633 342.821 651.042 337.449 650.942L338.972 650.593L335.297 634.315L333.933 634.689L336.273 631.166C331.257 627.527 334.989 627.027 333.955 621.696C332.988 616.715 330.733 620.112 330.189 613.024C329.579 605.053 330.496 598.147 338.357 595.668L342.217 584.304V584.304ZM487.787 626.06L497.827 634.496C502.168 635.743 519.994 649.859 521.869 652.406C522.538 653.315 533.73 677.555 533.717 678.119L528.589 676.647C519.925 674.161 509.786 658.898 506.163 652.471C499.841 641.256 494.539 647.351 487.787 626.06ZM427.212 603.321C438.226 606.535 444.408 623.328 449.281 624.727L450.562 625.095C455.209 626.428 458.031 626.073 461.564 625.476C466.549 629.92 471.838 633.11 469.362 641.598C468.643 644.063 464.032 649.187 463.051 650.83L461.191 660.078C467.323 667.367 457.806 700.871 451.579 707.303C445.088 699.59 444.583 702.162 443.003 691.61C442.21 686.312 436.785 683.72 435.618 675.781L433.687 659.127C428.223 657.053 428.045 646.695 427.589 640.992C426.992 633.521 421.804 633.2 425.461 620.667C425.045 619.429 423.821 616.768 424.019 616.088C424.856 613.219 426.618 612.643 427.862 611.717L427.212 603.321V603.321ZM562.929 635.133C574.045 638.593 571.663 642.57 576.975 648.883C575.63 650.014 571.58 654.276 569.979 653.818C569.744 653.749 563.227 636.6 562.929 635.133ZM505.57 593.677C511.169 595.285 509.477 597.575 515.076 599.183C539.964 606.326 537.273 601.387 552.279 618.434C560.929 628.257 552.648 629.582 555.063 638.397C557.264 646.432 559.784 645.907 559.138 657.648C551.53 653.405 550.15 650.582 538.373 646.986C528.193 643.874 526.04 645.03 522.768 634.712C515.501 632.627 505.923 623.204 498.608 617.942C488.332 610.549 497.365 599.975 484.1 595.845C488.819 594.247 499.585 591.96 505.57 593.677V593.677ZM558.656 611.691C569.201 614.974 594.4 622.491 591.18 633.523L589.685 638.647L581.995 636.44C581.776 636.377 568.346 628.738 565.755 627.124C560.105 623.606 559.813 617.388 558.656 611.691V611.691ZM566.131 609.95L566.542 609.06L577.887 608.336L601.861 625.481C600.929 627.907 600.427 630.622 597.802 629.869C597.739 629.851 579.792 613.354 577.964 612.35L566.131 609.95ZM496.473 587.102C505.057 579.651 509.106 580.809 520.844 584.177C521.034 584.233 527.386 594.363 535.596 595.7L546.636 596.782L548.989 601.975C542.356 600.07 535.588 600.018 531.288 597.817C527.471 595.863 519.383 589.311 518.067 588.934C513.166 587.527 517.715 588.407 513.789 589.171L509.433 584.866L496.473 587.102V587.102ZM409.959 547.555L412.312 540.801L419.746 559.325C442.138 565.752 436.08 552.734 450.185 569.291L468.88 576.273L487.745 583.042L488.212 581.754L487.021 585.868L441.855 574.001C436.084 572.536 434.973 574.803 428.291 572.885C424.109 571.684 424.263 571.011 422.738 569.426L434.005 567.583L443.332 569.962L440.249 565.556L422.098 565.39L420.926 566.24L409.959 547.555V547.555ZM411.2 512.442C410.364 516.546 411.153 517.361 409.864 521.778C408.983 524.801 405.686 526.757 404.638 528.667L400.925 538.558L406.786 555.888L400.892 552.525C402.632 543.988 393.823 542.403 395.402 538.462L399.104 527.16L404.766 517.71L402.989 516.31L386.587 535.749L391.755 550.817L393.203 550.317L392.455 552.88C385.134 550.6 380.84 540.316 382.841 533.459C387.283 518.239 410.782 513.872 416.807 493.225C418.854 495.879 419.342 498.82 418.036 503.296C416.637 508.089 413.888 510.185 411.2 512.442V512.442ZM229.757 434.016C221.988 429.276 229.786 418.719 222.461 416.616C216.731 414.971 201.974 425.751 197.989 429.011C193.073 433.032 177.509 441.195 175.505 445.271L181.227 443.639L182.397 444.992L167.399 457.737L165.75 464.314L173.275 456.646C167.929 474.965 170.216 486.009 154.404 490.973C146.986 493.3 142.508 492.704 139.088 502.358C135.19 513.363 133.291 512.746 129.804 524.698C122.814 516.39 132.162 508.381 136.373 497.425C132.709 498.598 128.793 502.192 125.531 501.256L124.249 500.889C120.703 499.871 121.455 499.015 121.526 495.942C128.452 497.32 128.254 494.172 133.215 491.692C138.061 489.268 139.981 491.584 145.581 488.671C150.763 485.977 163.524 480.026 165.49 473.014L146.319 472.575L148.387 480.048L144.785 478.95L143.929 483.473L138.347 486.448L130.484 481.313L139.025 473.646L140.164 474.911L140.912 472.349C131.134 470.403 120.569 486.213 116.841 476.048L132.269 470.738L132.315 469.309L126.381 465.485L132.392 458.746L138.5 461.964L137.28 465.753C139.586 467.78 158.394 469.559 160.03 463.952C161.168 460.051 160.816 459.1 161.031 455.931L165.72 450.481L164.138 450.795L159.959 441.274L161.259 440.702L166.385 442.173C171.586 443.666 170.626 439.986 170.817 436.503C173.796 435.55 191.585 427.219 192.34 424.632C192.973 422.462 192.03 419.353 191.645 417.49C185.347 416.235 170.328 419.141 168.681 424.782L167.532 428.119L156.415 428.15L159.335 423.489L155.036 421.56L159.907 419.488L161.952 414.521C165.149 416.33 163.994 416.496 166.705 417.274C169.641 418.117 168.322 417.268 172.206 417.464L172.953 414.902L168.966 412.727L184.282 410.657L184.485 409.061L173.007 405.198C175.055 402.391 175.601 401.778 180.537 403.195L183.1 403.93C190.809 406.143 192.214 410.711 199.923 412.924C211.278 416.183 217.407 404.058 230.573 408.172L229.757 434.016V434.016ZM387.937 421.726L393.97 431.281L395.71 427.468L398.362 428.198L400.73 448.347L401.478 445.785L405.613 447.039L401.799 454.207L405.644 455.311L404.523 459.154C403.684 462.026 404.716 462.258 405.792 465.38L398.968 468.668C394.547 483.82 377.474 498.485 366.712 498.285C370.662 491.262 375.405 490.307 375.839 486.822L387.565 465.159L386.419 483.115C388.277 477.237 388.953 479.188 390.317 474.515C393.197 464.645 389.455 460.062 389.89 452.177C396.499 456.148 393.674 462.026 396.405 467.931L398.036 461.587L387.937 421.726V421.726ZM164.481 377.844C162.48 384.148 161.025 393.428 154.742 391.625L150.896 390.521C146.209 389.175 149.141 386.258 142.575 382.858L142.555 384.628L133.689 387.261L142.851 393.598L146.512 391.023L152.904 393.943L134.768 421.99L132.506 421.262L132.458 415.796L136.751 409.862L132.258 411.551C124.783 402.669 124.093 410.971 126.811 401.658L127.777 398.595L143.313 402.229L145.182 395.824C143.94 396.243 141.27 397.477 140.589 397.282C133.879 395.356 128.523 391.029 130.388 384.635C131.615 380.432 134.377 380.571 138.292 381.35L139.414 377.507C153.125 381.442 151.383 379.998 153.566 371.85L148.439 370.378C151.403 365.482 171.405 362.294 178.121 363.582L164.481 377.844V377.844ZM165.956 386.514C167.718 380.478 180.478 368.834 184.613 365.517C191.634 359.882 198.14 354.098 210.496 357.645C212.292 358.16 212.55 360.128 211.938 362.225C209.878 369.287 200.958 376.053 198.427 384.726L195.864 383.99L194.743 387.834L189.716 383.372L188.173 381.783L184.318 391.751L179.047 389.571L177.443 395.335L172.152 393.846L170.657 398.969C169.727 402.156 166.046 402.868 163.287 405.184L158.579 399.068L154.762 403.113C150.426 397.569 155.471 396.245 159.495 394.377L164.901 399.075C165.425 393.888 164.349 392.023 165.956 386.514V386.514ZM425.803 447.266C421.195 442.603 419.783 440.889 421.745 432.328L419.418 419.429L420.845 418.971L428.24 432.089L426.933 432.406L425.803 447.266ZM136.796 319.83C138.988 314.124 163.024 308.329 167.663 309.252C167.594 312.326 166.842 313.182 170.388 314.199L175.515 315.671L177.578 325.533L176.339 325.01L169.718 328.662L185.518 326.951L186.519 329.528L168.143 341.733L157.973 343.175L157.192 341.77L165.849 333.561C166.231 330.718 165.64 330.47 166.65 327.011C167.37 324.538 167.718 324.846 169.052 323.535L164.215 314.405C159.699 313.912 151.049 320.554 136.796 319.83V319.83ZM683.035 471.063C674.474 466.288 669.402 459.222 669.95 449.258L684.598 460.644L683.622 464.29C682.613 467.75 683.203 467.998 683.035 471.063V471.063ZM225.289 335.511C224.327 329.692 229.5 325.66 234.155 324.172C234.367 326.128 225.629 346.561 221.157 347.606C218.733 348.173 196.737 350.92 195.863 350.668C192.048 349.573 192.366 343.597 184.006 338.934C185.462 342.929 192.218 348.879 190.896 353.408C190.109 356.101 167.953 362.095 162.431 360.51L156.022 358.671L155.98 364.159L147.341 364.072C146.68 360.66 145.781 365.205 147.21 360.307C148.6 355.543 155.443 353.092 161.362 354.65L162.484 350.806C170.92 353.025 176.28 351.489 180.108 347.535L178.206 342.217C181.893 334.572 189.948 330.218 197.224 325.699C209.738 317.928 211.723 314.658 211.03 327.253L205.189 331.668L203.704 341.875L208.032 339.196L210.23 339.519L209.107 343.362L211.671 344.098L213.54 337.693L216.429 341.501L218.134 336.234L225.289 335.511V335.511ZM660.817 442.47C663.517 438.012 665.857 437.487 671.658 438.641L670.163 443.766L660.817 442.47V442.47ZM601.429 403.21C612.313 406.334 617.448 402.255 623.432 403.973L629.841 405.812L629.093 408.374L625.248 407.27C621.786 406.276 621.535 406.868 618.465 406.712L622.077 416.503L631.888 418.056C633.49 426.673 636.555 433.49 635.723 442.339C634.294 457.553 641.823 456.229 644.743 464.237L636.198 460.274L638.556 470.852L631.099 463.186L628.976 470.816C622.664 462.679 629.22 460.305 631.604 452.135L631.977 450.855C632.696 448.395 631.962 434.362 631.224 431.921C629.604 426.563 622.634 423.239 617.291 420.259L614.301 430.508C613.185 434.331 619.433 439.442 621.19 444.981L615.495 440.619L613.188 444.102L614.318 457.142C608.475 454.623 608.641 451.398 610.176 444.608C612.139 435.919 609.943 436.717 610.081 430.686L598.814 448.134L596.783 447.694L598.652 441.289C600.954 433.402 606.205 436.954 601.643 431.041L598.405 434.65C601.203 423.883 607.944 428.491 609.761 422.263L611.256 417.139C612.464 412.997 608.472 409.397 604.152 408.158C601.802 407.484 601.91 410.291 599.559 409.616C596.849 408.838 598.005 408.672 594.807 406.863L590.981 409.763L594.519 415.73L590.355 418.378L591.31 423.869L583.473 427.414C586.017 417.942 587.206 419.872 588.606 409.209C589.826 399.905 584.507 398.954 586.795 396.233C590.619 395.708 587.715 399.274 595.021 401.372L601.429 403.21V403.21ZM237.145 313.923C238.285 312.965 240.606 311.58 240.83 310.815C243.45 301.836 239.255 302.884 243.873 290.862C248.244 293.488 249.447 310.945 250.336 316.321L237.917 328.563L237.791 321.063C233.927 319.58 233.659 318.476 229.241 317.208L227.96 316.84C222.401 315.245 223.408 317.743 216.957 316.459C220.977 309.818 227.952 311.284 237.145 313.923V313.923ZM205.058 279.566L204.513 278.177C210.848 281.982 206.446 281.696 204.086 289.161L206.65 289.898L205.154 295.022L214.497 300.772C213.826 304.627 215.518 310.492 209.48 308.759C207.675 308.241 200.108 301.036 196.61 298.659C189.668 293.945 189.533 293.376 190.124 285.463L205.058 279.566V279.566ZM200.722 267.369L205.848 268.841L204.726 272.684C201.657 272.528 201.406 273.12 197.945 272.126C192.462 270.552 188.477 261.723 189.025 259.847C189.097 259.598 193.181 256.7 195.113 253.263L197.677 254L197.351 264.983L201.447 264.541L200.722 267.369ZM172.11 266.124L182.615 262.185L183.718 256.98L185.333 256.752L189.151 268.713L187.692 269.133L180.897 268.905L172.662 276.767C172.756 278.51 173.788 278.741 172.951 281.613L171.829 285.457L181.019 280.718L182.382 271.881C185.793 272.079 186.044 271.487 189.506 272.481L193.352 273.585C195.826 274.294 195.515 274.642 196.823 275.968C193.894 280.805 177.493 290.649 170.708 289.3L169.96 291.862L175.087 293.333L173.592 298.458C172.443 302.392 170.162 305.805 166.222 304.673C164.685 304.233 163.813 282.042 163.978 279.038L166.542 279.773L172.11 266.124V266.124ZM288.735 303.739C295.058 292.496 303.387 276.011 317.84 280.16L320.405 280.896C323.357 281.744 323.989 282.89 323.128 285.842L322.754 287.123C321.255 292.258 313.669 291.737 308.975 291.499L311.687 298.602L313.197 298.64L307.907 304.336L306.258 311.479L305.15 310.291L296.49 316.128L297.281 317.3L303.69 319.139C301.389 325.123 295.268 324.195 292.794 332.673L291.673 336.516L296.999 343.198L290.883 346.798L302.265 347.227L304.116 341.476C305.309 337.392 310.483 332.716 312.982 330.136L328.238 334.978C331.073 335.329 329.918 335.494 333.116 337.304L332.368 339.866L328.523 338.762C318.265 335.819 313.54 344.584 313.035 353.756C308.999 348.522 311.226 345.675 313.676 337.278C311.137 338.918 310.463 338.768 309.244 342.948L308.87 344.229C306.503 352.338 309.944 354.832 308.23 360.706L307.856 361.987C307.018 364.859 306.02 364.509 303.797 366.376C304.486 370.234 305.386 365.69 303.957 370.587C302.87 374.311 297.197 370.7 293.213 374.594C289.753 377.974 288.114 379.081 285.372 381.914C285.196 385.115 285.55 386.065 284.411 389.968L283.663 392.53C282.788 395.529 280.041 397.044 277.041 396.183L273.196 395.079C263.407 392.27 263.549 386.302 256.857 381.52C248.966 375.879 248.639 372.711 249.162 363.19L258.239 356.134L257.539 347.15L250.277 359.589L248.767 358.961L250.272 340.201L243.909 334.634C238.373 340.919 245.705 345.18 246.098 350.906C246.329 354.259 244.178 365.99 242.701 371.054C230.741 367.331 239.369 364.441 230.844 359.32L231.858 367.693L221.79 366.739L216.507 374.585C222.079 372.684 221.549 369.129 229.346 370.17C233.431 370.716 238.062 373.888 244.143 375.633C247.502 379.626 262.934 392.165 261.447 397.261C259.755 403.062 249.559 401.431 243.721 402.404C243.455 402.448 227.202 402.649 226.573 402.523L228.441 396.119L239.122 397.436L245.09 393.2L242.287 385.16L232.127 383.651L229.564 386.622L223.367 384.942L224.279 393.285C220.407 391.536 219.226 389.308 216.746 388.596C208.968 386.363 207.157 392.398 199.656 394.798C198.051 392.89 196.306 391.996 197.306 388.57C198.144 385.697 199.141 386.048 201.365 384.181L206.242 386.726C207.453 362.674 215.679 373.208 219.095 361.501L220.216 357.659L229.34 354.598C231.823 346.443 235.229 344.29 236.826 338.821C237.716 335.77 237.262 325.064 245.691 327.483C248.564 328.308 248.208 329.305 250.069 331.517L266.196 326.059L269.723 326.05C275.936 327.833 270.886 340.528 270.524 347.107L278.717 351.681L280.24 350.449L277.468 344.415L279.388 341.419C275.687 341.083 271.998 342.056 273.515 336.857L275.01 331.733C276.044 328.19 276.898 328.935 279.977 328.994L281.098 325.15C281.973 322.153 282.449 321.945 283.875 320.394L282.726 314.551L289.86 313.159L291.459 308.686L295.304 309.79C295.374 306.715 296.125 305.861 292.58 304.843L288.735 303.739V303.739ZM344.277 308.573C348.023 295.734 336.382 289.144 331.032 282.558C347.224 287.205 349.576 295.076 348.42 309.513C348.083 313.733 359.68 326.157 358.964 339.169L346.362 318.188C345.354 325.272 359.283 347.596 358.537 350.154L357.416 353.997C354.514 352.896 347.755 345.964 344.751 343.786C334.159 336.099 345.094 338.876 337.922 330.354L340.263 326.831C338.721 324.969 336.975 324.076 337.975 320.649L338.35 319.368C339.982 313.772 342.27 315.451 343.904 309.855L344.277 308.573V308.573ZM628.357 391.672L626.957 396.654L616.884 398.074L613.974 394.114C611.888 397.358 609.794 398.67 605.861 397.541C605.689 397.491 603.69 395.551 603.672 395.524L592.296 396.425C585.07 387.836 565.709 358.787 566.34 347.321L577.876 350.632C582.129 351.852 581.299 348.838 583.75 349.541C590.869 351.585 612.542 355.603 610.079 364.041C608.721 368.695 604.588 361.51 600.34 363.621C599.641 363.97 596.591 369.749 595.179 372.259L595.77 373.906L612.131 367.996C613.144 374.885 604.403 380.979 613.818 384.552L618.265 377.338L613.828 364.033L618.791 362.175L625.504 367.613L623.494 370.697L630.649 374.321C630.58 377.204 631.17 377.453 630.161 380.911L629.787 382.192C628.752 385.737 627.899 384.99 624.82 384.933L623.699 388.775L628.357 391.672V391.672ZM257.587 254.889L258.186 256.095C254.246 263.099 249.665 261.494 248.413 265.786L247.665 268.346C246.665 271.773 248.409 272.669 250.015 274.575L254.548 263.171L255.943 263.782C253.659 271.609 255.65 274.304 253.647 281.173C252.952 283.552 248.667 285.462 246.651 286.105C244.52 284.051 243.619 282.46 239.708 281.337L235.862 280.233L238.479 271.264L234.725 266.278L257.587 254.889V254.889ZM224.86 246.529C230.267 245.966 230.508 237.044 236.823 238.855C242.595 240.513 238.469 242.738 237.516 245.998C237.318 246.678 238.543 249.338 238.959 250.576C245.694 252.509 245.658 250.966 245.528 256.627C233.973 256.411 215.336 285.014 235.062 292.498L234.315 295.062L231.75 294.325L230.629 298.168L234.475 299.272L233.72 307.34C229.629 307.129 230.948 307.978 228.012 307.136C227.661 307.035 225.927 305.581 224.541 304.752L226.93 294.347L225.341 289.36C222.369 290.45 222.175 289.054 221.122 292.663C220.924 293.343 222.148 296.005 222.564 297.242L218.058 301.263L212.031 295.49L219.715 286.494L222.525 272.283L208.532 273.507L211.765 267.775C210.119 264.282 208.069 261.227 209.586 256.03L211.829 248.343C213.292 243.328 213.805 248.758 216.635 241.392L222.528 244.755C220.791 250.457 219.634 253.385 214.552 253.289C212.615 259.931 212.542 265.208 218.879 267.027C223.447 268.338 228.146 263.36 229.934 257.704L223.525 255.864L224.86 246.529V246.529ZM352.389 242.009L353.621 243.223C357.144 260.301 345.813 267.929 351.913 287.163C342.324 283.525 348.566 276.483 341.713 274.516L339.149 273.78C335.962 272.865 333.395 275.599 329.963 276.697C311.058 271.271 303.501 273.035 294.297 286.4C289.835 292.88 276.819 319.198 273.782 321.663C273.95 318.595 273.359 318.348 274.369 314.889L276.986 305.92L285.247 286.2L276.246 284.411L271.708 277.565L272.919 276.79L263.212 277.17L256.756 270.794C262.448 264.431 263.109 260.816 272.087 257.823C283.653 253.967 283.985 259.125 292.632 261.817L292.001 260.34L301.596 256.224L301.5 257.668L302.147 267.321L304.702 268.059C306.347 265.341 312.64 262.006 315.917 262.947C317.652 263.444 316.226 264.535 320.297 266.98L321.044 264.418L324.89 265.522C327.972 266.406 328.052 268.68 330.177 271.204C335.351 265.258 325.202 254.503 320.19 253.066C313.333 251.097 291.04 255.401 286.437 254.484L285.881 253.139L302.461 246.251L311.591 249.209C314.91 248.149 316.979 246.591 321.684 247.941L322.966 248.309C330.778 250.551 333.993 254.069 338.512 256.044L352.389 242.009V242.009ZM660.691 322.996L662.358 328.906L669.089 327.849L644.432 344.043C640.074 356.457 636.035 349.985 631.388 357.662C643.12 361.028 661.981 362.926 667.01 349.836L664.446 349.101L670.406 338.326L674.219 339.41L671.83 349.815L675.074 350.762L674.327 353.325L673.502 352.276L666.777 357.555L667.529 358.741L678.138 354.347L680.241 356.619L676.29 360.82L682.876 371.008L681.323 372.093L669.606 364.603L644.777 367.376L648.976 386.523C659.597 389.361 656.808 392.727 661.083 393.953C662.614 394.392 676.698 387.839 679.828 386.837L678.333 391.962L666.408 397.775C669.225 406.177 670.688 400.279 671.492 410.785C671.846 415.425 671.451 421.037 671.177 426.007L663.635 434.558L661.779 434.416L662.234 428.93C664.531 427.284 665.205 427.434 666.423 423.255L667.919 418.13L665.356 417.395C662.805 424.032 658.918 425.176 657.399 430.382L654.409 440.632L639.502 434.696L634.61 422.517C636.264 421.563 647.796 417.908 649.761 418.472C651.496 418.97 650.07 420.061 654.141 422.505C655.276 416.928 653.172 413.897 647.412 412.244C643.22 411.041 645.381 418.602 632.724 414.97C634.616 408.987 636.902 407.559 642.491 407.228C646.454 406.993 653.436 405.642 654.781 406.028C658.404 407.068 660.748 410.913 663.914 412.815C664.445 403.155 656.707 398.323 650.455 392.291L646.258 392.733L644.727 395.021L643.9 401.446L640.86 402.958L634.091 399.831C638.642 398.445 639.602 396.163 641.109 390.997C642.914 384.812 639.275 373.712 639.4 368.291L612.355 356.288L613.07 353.791L616.915 354.896C623.456 356.773 628.679 351.852 634.256 349.148C644.099 344.376 639.256 340.221 641.428 332.775C642.428 329.348 649.392 327.486 651.575 321.803C652.359 322.768 653.938 323.227 653.391 325.102C651.86 330.347 643.891 332.31 645.778 335.738C647.916 339.619 653.52 333.979 656.33 332.839L660.691 322.996V322.996ZM216.421 213.562C217.874 213.979 227.17 226.863 229.194 219.514C231.018 212.888 229.558 206.588 229.705 200.558L234.798 196.245C232.93 204.588 232.29 226.447 238.532 228.239L239.813 228.607C242.281 229.315 247.209 225.4 253.218 225.512L256.694 231.285L256.893 229.732L263.27 227.788C264.386 232.884 269.214 242.102 268.332 245.124L267.211 248.966C257.036 248.45 260.747 249.888 251.082 247.113C246.255 245.728 248.413 247.261 243.017 246.187C244.857 237.16 234.684 229.912 224.966 227.122C220.851 225.941 216.06 232.896 206.061 230.026C203.89 229.403 201.769 226.945 200.399 225.624L204.518 221.293C207.739 223.066 208.92 225.292 211.401 226.006C215.335 227.134 217.427 225.822 219.305 222.72L211.378 217.175C212.437 214.053 212.546 212.449 216.421 213.562V213.562ZM577.821 327.013C574.624 316.935 576.695 293.369 593.202 298.106L600.892 300.314L594.03 312.055L588.733 313.56L587.037 324.101L589.571 324.833L595.909 319.035C596.736 316.832 596.144 316.585 597.154 313.124L598.276 309.281C599.138 306.329 600.288 305.694 603.242 306.542C606.225 307.398 604.295 313.108 611.627 315.89L609.758 322.296L613.361 325.514L618.353 325.981L620.525 342.101L623.217 342.821L628.627 333.222L620.118 325.135L625.972 314.463L639.932 318.859L641.936 323.896L636.739 342.533C626.756 343.359 629.661 352.904 618.999 352.817C605.361 352.705 602.203 343.731 598.276 342.603C596.58 342.117 579.209 342.684 576.273 341.841C573.562 341.064 574.718 340.898 571.52 339.089L577.821 327.013V327.013ZM307.337 218.018L300.528 221.327C283.494 212.026 294.755 214.146 288.519 209.264L296.055 201.53L298.977 188.739L315.659 197.986C303.3 208.832 304.3 194.722 298.773 212.208C317.426 213.153 301.038 194.809 338.239 205.487L344.648 207.325C353.353 209.824 349.467 232.966 347.212 241.384L342.086 239.912L343.208 236.069C345.01 229.889 340.703 222.82 342.032 216.294L337.539 217.983L332.628 213.477C331.058 213.197 327.646 214.941 324.621 214.073C322.886 213.576 324.312 212.485 320.242 210.039L320.668 214.228L313.994 212.412L316.037 221.861L314.536 225.093L318.32 226.15C315.135 238.043 324.104 236.139 332.739 238.618L330.871 245.025L323.18 242.817C318.727 241.538 321.972 239.693 317.52 238.414C312.708 237.034 312.291 242.006 305.396 241.877L310.263 231.999L309.936 223.991L307.337 218.018V218.018ZM516.457 246.921L501.063 254.399C503.011 247.341 508.158 246.08 512.985 244.536L513.732 241.974L520.042 237.903L516.457 246.921ZM405.745 235.97C409.778 237.128 408.069 231.226 412.741 231.036L414.484 219.081C410.248 214.723 408.462 212.379 410.872 204.119C411.662 201.409 411.823 202.562 413.65 199.364C420.62 203.551 416.913 209.611 418.093 217.335C419.29 225.157 422.291 228.087 424.277 234.348C417.434 241.414 409.343 238.395 402.604 245.945C397.268 251.923 392.111 263.191 383.956 263.039L384.97 271.411L376.982 273.976L378.34 279.176L384.6 279.834L385.624 271.834L389.385 268.928C391.251 261.841 395.47 256.732 401.046 256.835L400.922 265.291C398.96 269.537 397.047 270.543 395.439 276.053C394.825 278.156 399.657 280.64 397.576 287.774C396.738 290.646 395.741 290.295 393.517 292.162L395.348 300.897L397.682 301.689L400.924 295.337L402.115 296.019C402.183 293.082 398.231 280.764 399.285 277.156L400.406 273.312C401.415 269.853 402.048 269.957 403.557 267.275L408.764 273.019C409.03 264.819 400.941 261.957 404.197 250.798C407.411 239.784 417.456 246.664 424.064 239.839C429.893 241.654 438.864 246.244 437.202 251.942C436.411 254.651 436.25 253.499 434.425 256.697L428.415 253.534L423.968 257.561L418.321 254.803L420.039 261.314L416.821 263.974C418.437 265.298 419.412 270.066 418.563 272.971C417.842 275.445 417.494 275.136 416.161 276.447L418.298 292.396L414.036 296.364L419.056 299.663L417.283 305.926C421.9 305.146 429.279 302.897 427.537 308.869C426.513 312.377 423.754 312.312 422.73 315.821C421.993 318.347 426.932 320.463 425.615 324.978C422.801 334.621 406.29 343.599 400.461 363.576C396.996 375.453 403.644 373.493 401.636 383.352L398.118 381.028L398.635 388.145L396.244 391.423C391.169 385.299 393.381 374.572 384.653 369.071C376.25 363.776 374.076 356.246 371.568 348.341C377.649 327.501 366.368 338.384 361.907 321.422C359.603 312.659 359.012 300.215 359.231 290.652C370.692 295.001 355.99 302.068 368.149 302.931L371.039 306.737L373.436 300.282L380.163 295.314L375.019 293.623L374.119 285.407L368.55 288.009L362.726 267.06L367.24 267.959C369.595 261.833 369.937 260.871 374.976 260.405C386.271 259.361 375.392 257.481 382.888 257.178L383.344 251.692L388.611 251.576L389.351 249.314L384.693 246.418L383.849 249.124L376.592 241.243L370.59 244.838C360.105 241.298 365.729 230.54 364.196 221.268L377.08 217.918L376.693 216.524L381.819 217.995L381.393 213.807L385.504 214.888C388.966 215.882 389.217 215.29 392.286 215.446C390.038 222.56 385.176 222.937 378.272 223.327C370.709 223.754 371.98 223.152 368.895 233.724L379.266 230.831L381.232 224.769L392.492 223.196C391.62 224.971 384.507 232.588 384.49 232.646C383.258 236.87 384.883 241.412 388.282 243.454L391.524 237.102L392.714 237.784L393.836 233.939L390.233 230.722C396.582 224.239 394.297 219.178 400.885 219.302L400.76 227.756L398.636 232.605C407.246 233.107 400.047 234.334 405.745 235.97V235.97ZM291.865 164.33L283.024 184.039L293.979 179.886C286.836 193.397 282.137 184.261 274.397 199.296C269.512 208.787 262.942 218.589 268.439 225.715L274.386 222.405L273.711 223.892L280.144 235.376C285.044 236.202 284.885 235.428 283.02 242.397L271.762 232.615L279.709 249.598C265.391 244.364 262.626 212.941 254.767 210.684C249.939 209.299 252.097 210.83 246.702 209.758L247.45 207.196L244.886 206.46L247.502 197.491L253.724 199.972L261.355 212.396L262.83 211.611C264.339 208.93 264.972 209.033 265.981 205.573L268.972 195.324C270.412 190.387 264.522 183.436 259.145 181.396C263.504 174.196 269.756 184.493 273.779 188.373L286.025 165.584L291.865 164.33V164.33ZM593.469 282.91C594.49 281.512 631.336 268.368 636.513 259.166C641.42 262.115 639.009 263.359 635.552 267.221L646.184 268.852C639.86 279.323 628.095 266.293 621.56 277.089C633.424 280.782 629.474 289.079 635.606 290.84L636.887 291.207C644.11 293.281 651.489 291.619 656.701 289.952L658.77 292.144L649.874 297.165L656.646 306.02C662.839 308.375 668.794 309.916 668.665 315.6L651.149 308.989C649.83 305.183 648.5 300.095 643.083 298.539C634.93 296.199 634.053 299.663 628.015 292.877C624.401 288.815 625.371 282.348 620.438 280.933L619.157 280.565C615.003 279.372 609.842 283.924 608.476 288.606C605.921 297.362 615.562 302.707 614.939 314.064L608.196 302.735L603.089 302.088C605.014 295.708 605.762 286.438 599.877 284.749L593.469 282.91V282.91ZM578.728 262.018C581.686 251.884 587.399 244.845 595.337 243.183C594.821 240.067 594.792 236.084 599.769 237.513C603.664 238.63 603.472 240.984 603.401 244.108C608.031 244.195 609.769 241.771 613.495 242.84C616.539 243.714 612.931 244.841 617.5 248.156C615.378 255.429 614.844 259.606 620.17 262.807L619.049 266.649C618.109 269.873 592.564 276.731 587.458 277.874C579.838 279.582 577.243 275.911 571.584 282.362C566.878 287.725 564.148 289.401 559.663 294.034C561.124 302.867 563.984 310.647 566.833 319.101C570.574 330.199 560.092 338.232 574.618 342.754L573.87 345.317L564.897 342.742C560.846 356.627 567.159 356.379 566.981 364.166C552.513 355.475 565.047 338.398 562.677 326.768C561.086 318.956 555.858 298.495 546.632 295.847C541.814 294.464 537.101 300.053 526.818 297.102L521.692 295.629C514.694 293.621 515.337 291.03 508.339 289.021C501.499 287.057 490.113 290.401 486.123 293.751L473.104 290.995L473.066 289.467L479.278 287.003L480.302 285.138C475.362 281.272 479.773 279.433 483.079 280.381C487.332 281.603 485.006 283.712 487.457 284.416C490.187 285.199 497.858 282.521 506.861 284.225C513.784 285.537 516.579 288.61 524.468 290.874C534.536 293.763 557.606 285.291 564.483 281.228C572.934 276.234 570.741 273.865 583.25 274.15C592.184 274.353 595.711 272.321 600.357 264.061L592.306 269.518L571.604 273.056L576.381 264.004C589.868 267.993 591.58 264.302 595.444 257.097L586.037 256.662L583.855 263.49L578.728 262.018V262.018ZM516.457 246.921L529.749 236.183C540.077 239.817 549.713 240.684 551.651 250.081C550.322 251.453 547.851 253.581 547.218 255.75C545.811 260.575 547.355 258.415 546.257 263.805L553.981 258.549L555.189 259.133L554.065 252.061L558.333 250.409L571.618 257.569L571.702 253.03L577.407 249.621C567.754 246.372 565.887 250.001 564.308 249.549C561.814 248.833 535.615 233.626 536.162 231.752C538.797 222.72 541.982 223.775 550.332 224.165C557.16 224.484 560.023 221.938 567.565 224.104L572.692 225.575C569.621 233.568 568.711 231.268 562.384 232.335L564.058 236.814L569.324 236.935L568.206 240.949C578.971 243.78 577.636 231.16 581.825 232.361C584.822 233.222 587.747 235.868 586.738 239.326L584.869 245.731L582.305 244.996C581.182 250.514 570.451 273.526 563.454 271.518L559.609 270.414L558.862 272.977L553.735 271.505L552.239 276.63L543.102 269.849L530.305 272.806L530.775 271.379L528.333 265.188L530.295 260.549L528.529 256.247L521.852 251.683C518.126 255.91 523.044 258.851 510.902 256.434L511.001 253.478L515.14 250.411L516.457 246.921V246.921ZM322.95 152.054C323.476 158.07 331.684 160.564 338.292 162.461L348.392 173.52L347.211 174.74C331.059 170.104 328.953 165.612 320.348 157.31L322.416 164.784L313.351 162.244L306.356 165.087C319.409 166.54 327.188 166.317 336.209 174.359L329.516 177.84L320.142 171.689L315.167 170.302L310.887 171.743L309.987 173.774L316.124 178.491L319.12 180.562L318.869 179.202L326.504 177.767L327.171 179.648L318.66 183.727L320.741 188.266C324.308 182.763 335.403 175.516 342.245 177.479C349.154 179.462 363.172 196.212 360.617 204.967L359.122 210.092C358.088 213.636 357.233 212.889 354.156 212.833C354.326 205.321 347.986 199.006 341.23 195.237L345.044 188.069L337.28 181.139L333.752 191.705L343.092 201.425L341.925 202.379C315.484 201.037 321.043 195.162 304.22 188.78L308.732 185.216L310.01 185.796L306.145 172.67C300.967 173.47 299.994 165.452 298.461 160.633L322.95 152.054V152.054ZM433.167 215.032L442.34 195.325L434.958 192.984C435.091 187.128 433.048 190.007 434.264 185.842L435.407 182.264L439.61 181.9L445.824 192.381L452.307 189.013L453.465 190.194L447.665 200.726C450.57 202.457 451.693 202.277 450.659 205.821C449.586 209.5 447.086 208.546 444.731 216.615L454.12 217.567L462.03 205.944L458.025 217.607L456.801 222.856C451.878 239.733 459.181 252.822 450.5 268.253L455.995 268.686L456.843 279.798L478.24 269.472L478.912 270.855C477.075 275.636 468.295 281.137 463.702 286.353C461.693 288.634 452.063 303.295 450.661 305.788C462.534 303.3 464.58 294.209 476.937 296.668C466.406 305.511 457.248 314.62 439.82 309.618L433.938 314.726C433.93 318.121 434.284 319.072 433.145 322.974L430.902 330.661L428.339 329.925C429.757 322.962 427.086 319.937 428.606 314.729C430.039 309.817 445.842 288.981 447.297 283.995C449.352 276.951 444.39 274.668 442.724 269.32C441.071 264.013 443.25 259.99 441.048 253.045L446.174 254.517L450.286 240.424C451.718 235.517 450.171 229.928 448.897 226.142L446.453 241.993L444.915 242.526L433.134 228.33L437.309 211.713L433.167 215.032V215.032ZM428.549 191.144L427.427 194.988L436.72 201.583L427.393 217.047L425.292 216.589C425.645 210.172 425.769 201.45 423.243 196.218C416.843 182.957 427.574 194.069 416.462 180.759L422.264 168.449L424.058 168.792L422.686 179.661L429.005 179.855L430.479 187.798C428.291 190.565 429.979 186.247 428.549 191.144V191.144ZM347.318 155.333C348.443 154.388 354.813 149.154 355.969 149.486C357.11 149.813 358.118 151.644 357.785 152.783C357.277 154.525 352.561 154.34 352.337 161.107C352.214 164.77 352.385 168.24 352.178 171.999C346.644 168.676 346.963 161.774 347.318 155.333V155.333ZM430.229 161.674L433.016 168.37C428.427 167.145 428.16 166.041 423.742 164.773L422.46 164.405C419.142 163.453 409.161 174.455 407.72 176.835L422.49 199.833C414.216 197.445 418.691 195.793 413.601 191.864C407.367 187.053 404.013 192.138 404.195 184.154L407.659 185.941L408.629 184.545L404.031 180.774L392.085 191.655L402.215 195.821L400.992 199.896L407.401 201.735L406.653 204.296L401.525 202.825C395.927 201.218 397.619 198.927 392.019 197.321L388.174 196.217C383.622 194.91 361.432 221.215 361.258 221.812L359.015 229.499L356.451 228.764C357.549 223.373 356.005 225.534 357.413 220.709C358.819 215.887 362.816 213.684 363.341 209.914L366.059 188.585L362.992 191.707C360.315 188.512 353.264 182.563 354.528 178.228L355.649 174.385L364.622 176.961C366.17 177.405 374.37 185.618 375.57 187.045L373.229 190.567C374.041 193.277 375.073 193.508 374.235 196.38L373.487 198.943C372.65 201.815 371.652 201.465 369.429 203.331L367.934 208.456C372.308 205.629 382.959 190.287 385.129 182.847L385.877 180.285C388.32 171.913 383.893 164.443 374.609 161.777L366.5 166.716C365.847 163.999 364.173 159.455 364.728 157.553C364.761 157.438 369.699 153.019 370.442 152.252L384.217 161.295L389.282 167.725L391.962 158.396L394.349 158.984L390.677 185.705C394.056 184.068 400.328 178.365 402.06 172.433C403.27 168.282 395.885 161.525 403.234 158.886L404.656 167.71L415.914 158.258L430.229 161.674V161.674ZM575.896 209.834C568.021 209.686 564.02 214.787 557.364 217.337C555.043 218.226 547.54 218.233 545.703 217.373C541.776 215.536 545.333 214.139 547.11 208.514L553.858 209.433L552.981 200.731L538.16 216.577L536.43 216.555L538.351 204.636L539.33 205.71L550.512 197.032L548.802 192.505L558.364 183.179L562.122 185.357L555.77 197.053L566.828 191.349C567.862 195.316 566.814 197.508 570.822 198.659L574.667 199.763L577.009 196.24L604.01 218.03C602.386 220.964 601.155 224.027 597.098 222.862L591.971 221.39L593.466 216.266L577.934 225.267C574.742 222.699 573.923 221.321 571.25 220.996L560.58 219.669L560.065 218.196L575.896 209.834V209.834ZM513.732 241.974L507.618 244.62C506.425 239.209 504.45 235.703 506.469 228.782C508.061 223.326 512.09 228.562 514.586 220.005L515.707 216.161L505.82 218.262L504.979 225.511C495.541 222.026 493.738 213.054 497.977 205.518L493.204 196.385L488.407 205.576C492.038 209.153 495.377 209.668 493.33 216.68L492.957 217.962C491.957 221.388 490.001 221.219 487.616 221.983L487.049 213.574L476.997 210.751L479.987 220.91L501.782 230.453L501.41 242.509L490.18 233.245L489.005 236.265L486.442 235.529L482.358 229.327L478.613 229.375C467.625 216.078 474.573 216.34 468.978 209.69L474.998 205.111L477.094 200.914L482.589 201.345C485.43 191.391 488.367 188.875 497.87 191.604L501.715 192.707L503.21 187.582C506.777 188.693 510.705 190.46 509.779 193.633C508.988 196.343 508.827 195.19 507.002 198.39L518.004 198.759L520.531 214.66L522.864 215.439L523.985 211.594L526.915 204.165L530.054 201.009C529.529 198.936 528.586 195.829 529.219 193.659C530.002 190.973 533.661 191.041 536.749 191.655L537.214 170.967L541.78 177.055L544.706 178.667L545.454 176.105L549.299 177.208L538.914 199.081L538.886 203.376L534.521 199.329C534.237 204.236 535.313 206.097 533.706 211.608L533.332 212.889C529.678 225.41 519.802 231.184 513.732 241.974V241.974ZM460.324 148.893C468.549 149.311 470.575 146.282 481.046 149.287L487.455 151.127C492.382 152.541 497.816 153.7 496.587 157.913C496.389 158.593 493.92 160.194 492.903 161.02L491.217 175.833C484.906 181.264 486.467 175.79 481.753 179.972C478.881 182.521 478.54 187.442 473.143 185.894C471.346 185.378 471.089 183.412 471.701 181.315C473.182 176.236 477.321 180.239 480.566 169.975C483.644 170.032 484.498 170.78 485.532 167.236L487.401 160.831L477.335 164.328C477.532 166.279 478.395 167.893 477.255 171.802L476.881 173.082C475.745 176.976 473.388 176.794 470.259 176.735C470.75 167.803 476.53 157.706 470.205 153.118C471.114 157.524 471.642 160.25 470.686 165.751L466.479 184.011L462.182 177.966L459.256 176.355C457.205 175.766 452.32 166.366 451.619 164.445L461.327 163.834L462.461 160.614C464.238 154.523 466.101 162.307 465.237 155.857C461.987 153 458.464 158.025 460.324 148.893V148.893ZM469.458 189.002C488.135 193.915 499.6 159.404 513.998 160.133L502.728 171.624C508.667 169.033 513.627 162.092 521.314 163.622L511.466 171.383C522.031 174.693 518.928 168.491 524.946 170.218L528.791 171.322L526.121 178.886C512.794 175.061 502.393 173.973 494.053 180.751C490.121 183.947 474.27 197.77 472.502 202.371L466.094 200.531C468.317 198.664 469.314 199.015 470.153 196.143C471.367 191.979 469.324 194.857 469.458 189.002V189.002ZM461.391 145.37C457.535 148.063 437.612 154.471 430.952 154.346L434.658 147.125L449.477 143.359L461.391 145.37V145.37Z" fill="#2B2B2A"/>
<path fill-rule="evenodd" clip-rule="evenodd" d="M3177.24 484.946C3186.1 458.495 3203.52 432.936 3219.63 412.58C3243.17 382.826 3275.75 349.462 3314.13 338.116C3324.97 334.308 3336.3 332.048 3347.87 332.048C3369.9 332.048 3390.87 338.113 3404.16 355.973L3404.25 356.091L3404.34 356.212C3406.59 359.442 3408.81 363.15 3408.81 367.149C3408.81 375.087 3401.09 377.343 3394.76 378.897C3393.79 379.134 3391.95 379.695 3391.33 380.554C3374.34 404.368 3370.9 440.088 3370.9 468.098C3370.9 478.72 3371.77 508.934 3384.12 514.611C3385.8 515.383 3387.63 515.664 3389.48 515.664C3404.34 515.664 3430.66 489.69 3439.88 480.193C3449.41 470.38 3459.02 460.513 3468.91 451.032C3471.62 448.433 3474.39 445.804 3477.27 443.377C3480.23 440.882 3483.28 438.561 3487.49 438.561C3495.62 438.561 3500.35 444.839 3500.35 452.201C3500.35 458.276 3496.59 464.208 3492.92 468.956C3473.03 496.525 3444.7 530.225 3412.16 544.455C3400.31 549.639 3387.73 552.482 3374.68 552.482C3329.02 552.482 3311.11 522.828 3308.53 484.643C3283.51 517.92 3248.03 554.867 3210.1 554.867C3185.63 554.867 3171.35 541.764 3171.35 518.176C3171.35 517.273 3171.36 516.368 3171.39 515.463C3169.97 516.941 3168.53 518.319 3167.16 519.579L3167.04 519.693L3166.91 519.804C3164.6 521.792 3162.29 523.779 3159.98 525.767C3159.69 526.011 3159.41 526.253 3159.12 526.493C3161.8 537.794 3160.45 552.028 3159.11 562.157C3157.92 574.345 3155.82 586.552 3152.3 598.332C3149.26 608.53 3145.38 618.487 3140.61 628.059C3126.92 655.523 3104.17 671.812 3072.41 674.846L3071.91 674.893H3071.41C3056.61 674.893 3039.87 669.754 3026.18 664.71L3025.81 664.576L3025.46 664.414C3013.7 659.043 2994.07 649.136 2995.51 634.144C2995.74 631.678 2996.55 629.336 2997.83 627.196C3002.11 619.287 3009.12 614.26 3018.21 613.526C3020.38 613.019 3022.73 613.17 3024.99 613.892C3026.43 614.353 3027.85 614.991 3029.22 615.642C3033.68 617.773 3038.1 620.3 3042.38 622.753L3042.65 622.908L3042.91 623.078C3048.9 627.021 3057.03 631.131 3064.58 630.204L3064.98 630.155L3065.38 630.137C3088 629.113 3101.84 614.257 3111.37 595.767C3119.73 579.544 3124.16 562.496 3125.11 544.773C3112.33 548.821 3098.73 549.694 3086.17 543.445C3069.74 535.268 3063.17 520.308 3063.17 503.073C3063.17 502.11 3063.19 501.146 3063.22 500.183C3060.47 503.475 3057.64 506.723 3054.71 509.697C3039.14 525.555 3016.91 543.739 2992.82 543.739C2975.29 543.739 2964.23 535.171 2958.19 522.33C2954.68 525.364 2951.1 528.322 2947.45 531.201C2922.32 551.024 2891.32 568.38 2857.82 568.38C2814.78 568.38 2795.95 542.367 2795.95 503.073C2795.95 501.36 2796.08 499.579 2796.29 497.768C2792.86 501.863 2789.32 505.956 2785.65 509.691C2770.08 525.57 2747.85 543.739 2723.75 543.739C2708.58 543.739 2697.87 537.212 2691.32 526.477C2667.51 545.822 2639.41 559.636 2607.25 559.636C2563.27 559.636 2544.45 532.706 2544.45 492.74C2544.45 477.031 2546.4 461.536 2550.56 446.48C2541.37 448.677 2532.22 451.037 2523.12 453.542C2508.74 457.498 2494.5 461.962 2480.42 466.801C2479.38 469.79 2478.18 472.73 2476.84 475.61C2475.25 479.047 2473.91 482.59 2472.84 486.21C2469.62 502.428 2464.26 526.341 2454.8 540.167C2447.92 550.219 2438.18 558.046 2425.1 558.046C2422.15 558.046 2419.29 557.398 2416.71 556.022C2408.51 551.644 2406.69 542.305 2406.69 534.073C2406.69 530.276 2407.76 526.656 2409.63 523.332C2417.2 507.898 2423.62 491.788 2429.43 475.674C2437.18 454.165 2443.66 432.107 2449.53 410.065L2449.59 409.865C2451 405.022 2452.1 400.052 2453.1 395.118C2454.64 387.521 2456.67 379.957 2458.83 372.505L2459.07 371.693L2459.45 370.932C2462.83 364.152 2469.85 359.21 2476.5 355.576C2483.64 351.667 2491.66 348.74 2499.99 348.74C2509.14 348.74 2516.55 353.944 2516.55 363.175C2516.55 366.522 2515.28 370.722 2514.3 373.935C2512.59 379.534 2510.6 385.102 2508.59 390.608C2503.68 404.056 2498.79 417.509 2493.89 430.962C2498.06 429.766 2502.24 428.589 2506.41 427.422C2520.92 423.369 2535.5 419.553 2550.1 415.834L2550.75 415.67L2551.41 415.588C2555.4 415.098 2559.95 413.817 2564.09 412.506C2566.81 407.552 2569.7 402.682 2572.74 397.898L2573.51 396.679L2574.62 395.726C2575.75 394.751 2577.16 392.099 2577.8 390.804C2579.8 386.798 2581.82 382.801 2583.85 378.811C2585.99 374.603 2588.18 370.42 2590.44 366.267C2592.55 362.368 2595.22 358.143 2598.66 355.187C2604.73 349.97 2612.03 347.15 2620.19 347.15C2638.83 347.15 2651.55 356.554 2651.55 375.098C2651.55 380.399 2649.19 385.435 2646.27 389.829L2646.19 389.947L2646.11 390.062C2626.09 418.333 2596.07 465.283 2596.07 500.688C2596.07 516.144 2603.58 521.228 2619.27 521.228C2637.31 521.228 2654.84 510.89 2668.38 500.343L2668.47 500.271L2668.56 500.202C2673.67 496.411 2678.52 492.27 2683.16 487.952C2683.62 466.039 2693.28 443.11 2703.65 423.988C2714.22 403.476 2731.94 377.356 2758.89 377.356C2767.32 377.356 2777.3 378.912 2781.37 387.058C2782.36 389.039 2782.84 391.188 2782.84 393.38C2782.84 396.392 2781.44 398.493 2779.94 400.901C2778.46 403.264 2776.94 405.604 2775.42 407.94C2769.57 416.912 2763.62 425.833 2757.68 434.749C2756.01 437.249 2754.38 439.772 2752.79 442.32C2753.11 443.712 2753.26 445.169 2753.26 446.637C2753.26 453.439 2749.87 460.002 2746 465.532C2742.81 470.085 2739.54 474.581 2736.16 479.008C2735.87 480.658 2735.69 482.339 2735.69 483.996C2735.69 487.468 2736.1 496.757 2739.66 499.012C2740.64 499.632 2742.03 499.766 2743.17 499.766C2752.56 499.766 2771.37 480.149 2776.96 474.043C2787.26 462.802 2796.79 450.693 2805.87 438.532C2818.05 422.202 2829.61 405.39 2840.82 388.437C2846.97 377.886 2853.68 367.509 2860.36 357.262L2860.93 356.378L2861.69 355.632C2867.4 350.027 2874.49 346.356 2882.79 346.356C2891.16 346.356 2898.58 349.457 2904.78 354.789C2911.25 360.353 2915.07 367.507 2915.07 375.893V385.558H2910.53C2910.46 385.662 2910.4 385.764 2910.33 385.866C2908.18 389.295 2906.06 392.742 2903.94 396.189C2896.21 408.769 2888.54 421.389 2880.87 434.01C2868.61 454.201 2849.42 488.622 2849.42 512.611C2849.42 526.357 2855.85 530.767 2869.84 530.767C2888.56 530.767 2908.66 518.121 2922.75 507.422C2933.37 499.353 2943.33 490.126 2952.7 480.696C2954.81 461.145 2963.37 441.236 2972.68 424.062C2983.1 402.932 3000.51 377.356 3027.95 377.356C3036.39 377.356 3046.37 378.912 3050.44 387.057C3051.43 389.038 3051.91 391.188 3051.91 393.38V396.175L3050.39 398.476C3042.46 410.765 3034.4 422.971 3026.28 435.146C3022.75 440.452 3019.35 445.87 3016.24 451.423C3015.15 456.501 3012.49 461.327 3009.49 465.567C3009.33 465.802 3009.16 466.038 3008.99 466.272C3006.78 471.744 3004.75 478.176 3004.75 483.996C3004.75 487.468 3005.17 496.757 3008.73 499.013C3009.71 499.632 3011.09 499.766 3012.23 499.766C3020.45 499.766 3035.82 484.817 3040.92 479.586C3049.57 470.703 3057.58 461.043 3065.18 451.324C3075.37 438.298 3085.01 424.831 3094.34 411.232C3099.86 402.689 3105.62 394.222 3111.8 386.099C3117.91 378.056 3122.83 367.804 3126.82 358.653L3127.7 356.642L3129.39 355.186C3135.13 350.258 3142.09 346.356 3150 346.356C3158.37 346.356 3165.79 349.457 3171.99 354.789C3178.47 360.353 3182.28 367.508 3182.28 375.893V378.565L3180.85 380.859C3169.75 398.611 3158.66 416.362 3147.66 433.958C3136.08 453.3 3116.63 488.145 3116.63 511.021C3116.63 512.585 3116.74 515.587 3117.34 517.664C3121.1 516.593 3127.2 512.21 3129.9 510.176C3139.57 502.905 3148.84 494.283 3157.57 485.995C3163.99 479.514 3172.19 479.592 3177.24 484.946V484.946ZM1269.6 421.004C1292.07 423.058 1314.94 429.767 1328.32 447.422C1336.44 458.147 1339.51 470.905 1339.51 483.996C1339.51 489.528 1338.86 495.065 1337.76 500.519C1353.06 500.45 1369.97 500.805 1385.4 502.997C1390.96 470.724 1412.74 437.905 1432.31 413.002C1455.8 383.114 1488.43 349.434 1526.92 338.09C1537.69 334.504 1549.13 332.048 1560.57 332.048C1572.53 332.048 1585.07 335.922 1595.97 340.373C1607.37 345.03 1620.59 352.94 1620.59 366.355C1620.59 374.922 1612.5 379.049 1605.07 381.179C1604.09 381.459 1601.56 382.309 1600.39 383.245C1597.02 396.054 1593.84 408.912 1590.75 421.783L1590.71 421.923L1590.67 422.063C1580.71 458.452 1571.1 494.946 1561.53 531.433C1579.12 531.588 1601.86 534.337 1609.18 549.679C1610.66 552.78 1611.35 556.107 1611.35 559.509C1611.35 567.432 1606.24 573.944 1597.56 573.944C1593.29 573.944 1588.11 570.657 1584.52 568.599C1580.42 566.249 1568.01 565.995 1563.35 565.995C1559.78 565.995 1556.22 566.089 1552.67 566.274C1534.03 629.441 1506.82 696.043 1465.02 748.216C1411.06 815.557 1337.97 877.586 1244.35 877.586C1215.01 877.586 1187.18 870.663 1163.75 853.31C1140.96 836.429 1129.78 813.589 1129.78 786.048C1129.78 773.804 1131.78 762.052 1135.41 750.81C1108.94 771.047 1080.95 789.39 1051.5 805.563C1014.53 825.86 966.1 848.176 922.582 848.176C879.931 848.176 854.242 827.978 854.242 786.048C854.242 763.766 862.481 741.694 872.906 722.052C910.915 650.436 974.648 599.724 1048.36 563.621C1122.93 527.101 1202.94 507.125 1286.34 501.757C1289.14 494.563 1291.59 486.366 1291.59 479.227C1291.59 475.877 1290.98 472.492 1289.09 469.62C1282.59 459.767 1262.36 458.687 1251.75 458.687C1221.83 458.687 1191.63 465.803 1163.67 475.587C1149.95 480.39 1136.23 485.19 1122.47 489.917C1119.09 491.08 1108.23 495.251 1104.73 495.251C1093.77 495.251 1084.47 489.788 1084.47 478.432C1084.47 467.923 1091.87 459.062 1099.63 452.35C1107.58 444.853 1130.15 439.159 1140.49 436.505C1148.76 434.385 1157.08 432.154 1165.19 429.531C1168.85 428.345 1173.9 426.735 1177.22 424.829L1177.37 424.747L1177.51 424.669C1227.38 398.208 1274.08 366.812 1317.29 331.206C1346.43 307.192 1403.47 256.681 1403.47 216.123C1403.47 209.739 1402.22 203.429 1398.66 197.948C1386.65 179.457 1352.21 177.301 1332.19 177.301C1267.18 177.301 1199.71 196.131 1139.99 219.507C1080.95 242.615 1021.89 272.919 973.593 313.231L969.946 316.276L965.183 315.457C952.691 313.31 943.006 306.143 943.006 293.226C943.006 275.17 956.104 260.03 969.594 248.785C989.893 231.865 1017.02 218.228 1041.29 207.366C1084.41 188.062 1129.17 172.372 1175.19 160.678C1223.88 148.304 1274.33 140.483 1324.79 140.483C1364.99 140.483 1420.26 146.116 1443.92 182.2C1451.9 194.374 1455.08 208.219 1455.08 222.482C1455.08 271.136 1409.48 317.344 1374.01 347.367C1357.07 361.698 1338.65 374.932 1320.31 387.554C1303.65 399.013 1286.7 410.123 1269.6 421.004V421.004ZM1769.29 575.533C1761.36 575.533 1753.43 575.533 1745.5 575.533C1742.2 575.533 1737.89 574.587 1734.65 573.937C1730.96 573.198 1727.28 572.402 1723.61 571.579C1702.83 616.223 1677.08 658.88 1648.44 699.274C1625.27 731.943 1574.21 800.483 1527.29 800.483C1502.94 800.483 1494.08 782.356 1494.08 761.407C1494.08 742.013 1506.57 717.737 1516.14 701.101C1534.13 669.82 1556.91 639.407 1579.33 610.92L1579.44 610.786L1579.55 610.654C1618.51 564.602 1657.52 518.588 1696.57 472.611V471.278C1696.57 464.344 1696.54 457.405 1696.44 450.466C1692.65 455.291 1688.75 460.001 1684.71 464.477C1679.25 470.541 1670.43 480.149 1661.36 480.149C1651.95 480.149 1645.72 473.851 1645.72 464.919C1645.72 460.241 1647.68 456.032 1650.74 452.475C1669.15 430.164 1689.18 399.809 1689.18 370.329C1689.18 367.867 1688.64 365.672 1686.84 363.845C1682.83 359.769 1679.01 354.718 1679.01 348.867C1679.01 343.659 1682.71 339.966 1687.58 338.345C1689.96 337.553 1692.6 337.158 1695.1 336.881C1702.47 336.064 1710.34 336.022 1717.76 336.022C1724.1 336.022 1730.24 337.31 1735.8 340.278C1756.39 351.271 1759.29 379.647 1759.29 399.739C1759.29 403.075 1759.16 406.454 1758.97 409.838C1770.48 394.119 1782.85 378.986 1796.23 364.674C1816.78 342.697 1850.96 310.586 1884.19 310.586C1913.61 310.586 1923.87 332.363 1923.87 357.611C1923.87 397.291 1904.82 437.929 1884.09 471.438C1870 494.2 1852.91 517.066 1832.34 535.836C1872.99 521.854 1910.55 491.147 1938.76 463.863C1947.77 445.733 1959.68 428.54 1972.31 412.58C1995.86 382.826 2028.44 349.462 2066.82 338.116C2077.65 334.308 2088.98 332.048 2100.55 332.048C2122.59 332.048 2143.55 338.113 2156.85 355.973L2156.94 356.091L2157.02 356.212C2159.27 359.442 2161.5 363.15 2161.5 367.149C2161.5 375.087 2153.77 377.343 2147.44 378.897C2146.48 379.134 2144.63 379.695 2144.02 380.554C2127.02 404.368 2123.59 440.088 2123.59 468.098C2123.59 478.72 2124.45 508.934 2136.8 514.611C2138.48 515.383 2140.31 515.664 2142.16 515.664C2157.03 515.664 2183.34 489.69 2192.56 480.193C2199.93 472.607 2207.34 465.033 2214.87 457.589C2217.86 446.001 2221.52 434.543 2225.54 423.25C2239.19 384.867 2258.29 347.256 2278.46 311.665L2278.55 311.516C2291.24 290.042 2305.25 269.036 2319.35 248.397C2339.6 218.776 2360.54 189.55 2381.69 160.515C2398.8 137.017 2416.77 113.913 2436.07 92.0114C2451.41 74.6021 2467.85 57.607 2485.72 42.5489C2509.31 22.6636 2541.19 1.37988 2573.96 1.37988C2602.99 1.37988 2625.66 13.1129 2625.66 43.6353C2625.66 101.546 2546.82 174.66 2505.88 210.537C2453.11 256.776 2393.6 295.792 2331.26 329.195C2323.14 340.46 2315.77 352.365 2308.94 364.469C2311.32 362.028 2313.73 359.613 2316.16 357.222C2337.78 335.986 2369.17 310.586 2401.98 310.586C2429.58 310.586 2439.81 330.471 2439.81 354.431C2439.81 394.954 2422.45 436.067 2402.52 471.132C2385.71 500.701 2364.14 526.784 2337.31 548.597C2308.58 571.96 2274.83 588.252 2236.47 588.252C2222.48 588.252 2195.83 587.756 2190.31 572.048C2189.7 570.311 2189.4 568.496 2189.4 566.663C2189.4 557.867 2196.04 552.228 2205.04 552.228C2209.65 552.228 2216.62 554.181 2221.1 555.352C2225.91 556.61 2231.46 557.792 2236.47 557.792C2240.07 557.792 2243.6 557.533 2247.06 557.044C2221.22 554.898 2210.36 536.315 2208.27 513.374C2195.42 526.004 2180.78 537.484 2164.84 544.455C2152.99 549.639 2140.42 552.482 2127.37 552.482C2081.71 552.482 2063.79 522.828 2061.21 484.643C2036.19 517.92 2000.72 554.867 1962.78 554.867C1939.18 554.867 1925.06 542.682 1924.09 520.66C1916.21 526.232 1908.12 531.524 1899.91 536.584C1870.37 555.618 1831.08 576.329 1794.5 576.329C1786.13 576.329 1777.65 575.933 1769.29 575.533V575.533ZM2263.62 552.884C2281.93 546.264 2298.04 533.739 2311.46 520.25C2331.73 499.888 2347.3 476.042 2359.53 450.549C2370.87 426.904 2376.17 401.889 2376.17 375.893C2376.17 371.702 2375.93 366.634 2374.62 362.604C2374.41 361.957 2373.58 359.773 2372.92 359.378C2372.8 359.332 2372.52 359.328 2372.39 359.328C2348.54 359.328 2310.91 411.107 2299.38 427.417C2283.68 449.619 2253.04 495.132 2253.04 522.945C2253.04 525.419 2253.64 527.147 2255.76 528.606C2261.22 532.358 2266.9 537.447 2266.9 544.406C2266.9 547.888 2265.67 550.751 2263.62 552.884V552.884ZM1325.81 535.517C1320.75 545.461 1314.76 554.987 1308.22 564.082C1295.65 582.715 1282.39 600.935 1268.41 618.631C1270.72 617.317 1273.04 616.017 1275.36 614.731C1319.29 590.405 1365.68 569.457 1413.95 554.229C1403.67 552.67 1394.76 548.138 1389.36 539.382C1388.37 539.099 1387.38 538.801 1386.39 538.492C1383.17 537.487 1377.85 535.69 1374.52 535.332C1372.49 535.113 1370.12 535.129 1368.06 535.093C1363.2 535.006 1358.32 534.995 1353.46 534.995C1344.24 534.995 1335.02 535.161 1325.81 535.517V535.517ZM1465.68 540.36C1478.06 537.635 1490.54 535.32 1503.12 533.449C1505.75 521.382 1508.5 509.325 1511.32 497.28C1498.02 513.506 1482.5 529.395 1465.68 540.36ZM1265.28 540.155C1158.96 552.403 1058.13 586.671 978.477 657.982C957.106 677.115 936.827 699.414 923.279 724.411C916.14 738.508 908.632 756.644 908.632 772.535C908.632 794.674 919.201 803.409 942 803.409C969.947 803.409 1004.76 787.169 1028.63 774.426C1080.26 746.851 1127.88 703.387 1167.56 661.878C1203.39 624.408 1237.53 583.771 1265.28 540.155V540.155ZM1551.54 378.053C1527.2 381.036 1505.34 398.565 1489.38 415.055C1469.16 435.941 1435.67 474.277 1435.67 504.663C1435.67 505.891 1435.9 510.554 1436.97 511.485C1437.26 511.655 1438.2 511.689 1438.52 511.689C1453.01 511.689 1475.12 488.04 1483.53 478.54L1483.66 478.403C1511.36 448.266 1533.69 414.267 1551.54 378.053V378.053ZM1497.64 568.293C1453.96 576.487 1409.45 593.14 1369.65 610.44C1344.61 621.317 1319.8 633.11 1296.09 646.461C1277.46 656.955 1259.04 668.655 1242.58 682.116C1210.37 708.468 1176.77 745.411 1176.77 788.433C1176.77 805.376 1182.42 819.652 1195.92 830.787C1210.62 842.91 1228.97 847.127 1248.05 847.127C1287.97 847.127 1323.61 830.813 1354.69 807.81C1385.03 785.345 1410.12 757.432 1430.99 726.722C1463.61 678.744 1484.49 624.006 1497.64 568.293V568.293ZM1744.81 516.298C1751.29 523.641 1759.77 530.891 1767.53 537.151C1795.99 524.052 1817.5 493.639 1831.87 468.261C1847.41 440.793 1863.01 406.108 1863.01 374.303C1863.01 371.432 1862.59 361.541 1859.5 359.731C1858.92 359.392 1858.03 359.328 1857.38 359.328C1855.43 359.328 1853.53 359.68 1851.7 360.295C1825.15 370.555 1800.29 407.477 1786.58 430.038C1769.89 457.497 1755.69 486.283 1744.81 516.298ZM1682.4 547.326C1664.35 570.428 1646.11 593.396 1627.75 616.272C1620.15 625.737 1613.07 635.684 1606.27 645.685C1596.94 659.404 1588.06 673.433 1579.46 687.58C1572.63 698.817 1549.9 736.591 1546.94 752.763C1560.2 749.802 1575.07 735.973 1583.08 727.795C1593.61 717.027 1603.18 705.082 1612.09 693.05C1623.91 677.078 1634.85 660.429 1645.29 643.599C1652.79 631.494 1658.68 617.313 1663.71 604.112C1670.79 585.518 1676.83 566.411 1682.4 547.326ZM2091.52 378.053C2067.18 381.036 2045.32 398.565 2029.36 415.055C2009.14 435.941 1975.65 474.277 1975.65 504.663C1975.65 505.891 1975.88 510.554 1976.95 511.485C1977.24 511.655 1978.18 511.689 1978.5 511.689C1992.99 511.689 2015.1 488.04 2023.51 478.54L2023.63 478.403C2051.34 448.266 2073.67 414.268 2091.52 378.053ZM2587.91 57.7445C2587.89 52.8044 2587.26 50.4608 2582.01 50.1225C2562.76 50.3359 2528.18 73.0775 2513.25 83.2953C2446.4 129.046 2397.89 197.301 2362.1 267.148C2361.02 269.434 2359.93 271.731 2358.85 274.039C2374.28 264.998 2389.25 255.124 2403.74 244.948C2431.84 225.216 2458.82 203.808 2485.02 181.826C2512.35 158.898 2586.1 95.7527 2587.91 57.7445V57.7445ZM3338.84 378.053C3314.5 381.036 3292.63 398.565 3276.68 415.054C3256.46 435.941 3222.96 474.277 3222.96 504.663C3222.96 505.891 3223.19 510.554 3224.27 511.485C3224.56 511.655 3225.5 511.689 3225.82 511.689C3240.31 511.689 3262.42 488.04 3270.83 478.54L3270.95 478.403C3298.66 448.266 3320.99 414.267 3338.84 378.053Z" fill="#201B20"/>
</svg>
