<svg width="53" height="54" viewBox="0 0 53 54" fill="none" xmlns="http://www.w3.org/2000/svg">
<path d="M49.1115 3.2477C50.1107 4.2773 50.9033 5.49962 51.4441 6.84486C51.9847 8.19012 52.2631 9.63195 52.2631 11.0881C52.2631 12.5442 51.9847 13.986 51.4441 15.3313C50.9033 16.6765 50.1107 17.8987 49.1115 18.9285L27.0552 41.6581C25.3276 43.4386 23.0632 44.56 20.6347 44.8374L11.5486 45.8741L5.36742 52.2496C4.8627 52.7693 4.1783 53.0611 3.46479 53.0609C2.75126 53.0607 2.06706 52.7684 1.56271 52.2482C1.05834 51.728 0.775139 51.0228 0.775391 50.2875C0.775639 49.5521 1.05934 48.8472 1.56404 48.3273L7.74521 41.9547L8.75387 32.5939C9.02285 30.0909 10.1122 27.7569 11.8391 25.9774L33.8955 3.2477C34.8945 2.21806 36.0807 1.4013 37.386 0.844053C38.6915 0.286803 40.0905 0 41.5036 0C42.9165 0 44.3155 0.286803 45.621 0.844053C46.9265 1.4013 48.1125 2.21806 49.1115 3.2477ZM24.3869 28.7272L20.5836 32.6466L26.2886 38.5286L30.0919 34.6063L24.3869 28.7272ZM31.9938 20.8881L28.1903 24.8076L33.8955 30.6868L37.7015 26.7674L31.9938 20.8881ZM39.6031 13.0464L35.7998 16.966L41.5022 22.8479L45.3108 18.9256L39.6058 13.0436L39.6031 13.0464Z" fill="url(#paint0_linear_165_1901)"/>
<defs>
<linearGradient id="paint0_linear_165_1901" x1="25.7391" y1="65.5458" x2="23.7701" y2="-9.3119" gradientUnits="userSpaceOnUse">
<stop stop-color="#00FFE0"/>
<stop offset="1" stop-color="#BDE483"/>
</linearGradient>
</defs>
</svg>
