<svg width="34" height="34" viewBox="0 0 34 34" fill="none" xmlns="http://www.w3.org/2000/svg">
<path d="M23.5415 0.500005C23.0788 0.49995 22.6282 0.499896 22.2466 0.531076C21.8275 0.565317 21.333 0.646107 20.8354 0.899652C20.1455 1.25119 19.5845 1.81212 19.233 2.50204C18.9794 2.99965 18.8987 3.49417 18.8644 3.91325C18.8332 4.29488 18.8333 4.74549 18.8333 5.2082V10.4585C18.8333 10.9212 18.8332 11.3718 18.8644 11.7534C18.8987 12.1725 18.9794 12.667 19.233 13.1646C19.5845 13.8546 20.1455 14.4155 20.8354 14.767C21.333 15.0206 21.8275 15.1014 22.2466 15.1356C22.6282 15.1668 23.0788 15.1667 23.5415 15.1667H28.7918C29.2545 15.1667 29.7052 15.1668 30.0868 15.1356C30.5059 15.1014 31.0004 15.0206 31.498 14.767C32.1879 14.4155 32.7488 13.8546 33.1004 13.1646C33.3539 12.667 33.4347 12.1725 33.4689 11.7534C33.5001 11.3718 33.5001 10.9212 33.5 10.4585V5.2082C33.5001 4.7455 33.5001 4.29488 33.4689 3.91325C33.4347 3.49417 33.3539 2.99965 33.1004 2.50204C32.7488 1.81212 32.1879 1.25119 31.498 0.899652C31.0004 0.646107 30.5059 0.565317 30.0868 0.531076C29.7051 0.499896 29.2545 0.49995 28.7918 0.500005L23.5415 0.500005Z" fill="white"/>
<path d="M5.2082 18.8333C4.7455 18.8333 4.29488 18.8332 3.91325 18.8644C3.49417 18.8987 2.99965 18.9794 2.50204 19.233C1.81212 19.5845 1.25119 20.1455 0.899652 20.8354C0.646107 21.333 0.565317 21.8275 0.531076 22.2466C0.499896 22.6282 0.49995 23.0788 0.500005 23.5415L0.500005 28.7918C0.49995 29.2545 0.499896 29.7051 0.531076 30.0868C0.565317 30.5059 0.646107 31.0004 0.899652 31.498C1.25119 32.1879 1.81212 32.7488 2.50204 33.1004C2.99965 33.3539 3.49417 33.4347 3.91325 33.4689C4.29488 33.5001 4.7455 33.5001 5.2082 33.5H10.4585C10.9212 33.5001 11.3718 33.5001 11.7534 33.4689C12.1725 33.4347 12.667 33.3539 13.1646 33.1004C13.8546 32.7488 14.4155 32.1879 14.767 31.498C15.0206 31.0004 15.1014 30.5059 15.1356 30.0868C15.1668 29.7052 15.1667 29.2546 15.1667 28.7919V23.5415C15.1667 23.0789 15.1668 22.6282 15.1356 22.2466C15.1014 21.8275 15.0206 21.333 14.767 20.8354C14.4155 20.1455 13.8546 19.5845 13.1646 19.233C12.667 18.9794 12.1725 18.8987 11.7534 18.8644C11.3718 18.8332 10.9212 18.8333 10.4585 18.8333H5.2082Z" fill="white"/>
<path d="M23.5415 18.8333C23.0788 18.8333 22.6282 18.8332 22.2466 18.8644C21.8275 18.8987 21.333 18.9794 20.8354 19.233C20.1455 19.5845 19.5845 20.1455 19.233 20.8354C18.9794 21.333 18.8987 21.8275 18.8644 22.2466C18.8332 22.6282 18.8333 23.0788 18.8333 23.5415V28.7918C18.8333 29.2545 18.8332 29.7051 18.8644 30.0868C18.8987 30.5059 18.9794 31.0004 19.233 31.498C19.5845 32.1879 20.1455 32.7488 20.8354 33.1004C21.333 33.3539 21.8275 33.4347 22.2466 33.4689C22.6282 33.5001 23.0788 33.5001 23.5415 33.5H28.7918C29.2545 33.5001 29.7051 33.5001 30.0868 33.4689C30.5059 33.4347 31.0004 33.3539 31.498 33.1004C32.1879 32.7488 32.7488 32.1879 33.1004 31.498C33.3539 31.0004 33.4347 30.5059 33.4689 30.0868C33.5001 29.7051 33.5001 29.2545 33.5 28.7918V23.5415C33.5001 23.0788 33.5001 22.6282 33.4689 22.2466C33.4347 21.8275 33.3539 21.333 33.1004 20.8354C32.7488 20.1455 32.1879 19.5845 31.498 19.233C31.0004 18.9794 30.5059 18.8987 30.0868 18.8644C29.7051 18.8332 29.2545 18.8333 28.7918 18.8333H23.5415Z" fill="white"/>
<path d="M5.2082 0.500005C4.7455 0.49995 4.29487 0.499896 3.91325 0.531076C3.49417 0.565317 2.99965 0.646107 2.50204 0.899652C1.81212 1.25119 1.25119 1.81212 0.899652 2.50204C0.646107 2.99965 0.565317 3.49417 0.531076 3.91325C0.499896 4.29487 0.49995 4.74548 0.500005 5.20817L0.500005 10.4585C0.49995 10.9212 0.499896 11.3718 0.531076 11.7534C0.565317 12.1725 0.646107 12.667 0.899652 13.1646C1.25119 13.8546 1.81212 14.4155 2.50204 14.767C2.99965 15.0206 3.49417 15.1014 3.91325 15.1356C4.29486 15.1668 4.74545 15.1667 5.20813 15.1667H10.4585C10.9212 15.1667 11.3718 15.1668 11.7534 15.1356C12.1725 15.1014 12.667 15.0206 13.1646 14.767C13.8546 14.4155 14.4155 13.8546 14.767 13.1646C15.0206 12.667 15.1014 12.1725 15.1356 11.7534C15.1668 11.3718 15.1667 10.9212 15.1667 10.4586V5.2082C15.1667 4.74552 15.1668 4.29486 15.1356 3.91325C15.1014 3.49417 15.0206 2.99965 14.767 2.50204C14.4155 1.81212 13.8546 1.25119 13.1646 0.899652C12.667 0.646107 12.1725 0.565317 11.7534 0.531076C11.3718 0.499896 10.9212 0.49995 10.4585 0.500005L5.2082 0.500005Z" fill="#FEB800"/>
</svg>
