<svg width="43" height="55" viewBox="0 0 43 55" fill="none" xmlns="http://www.w3.org/2000/svg">
<path d="M43 30.25V49.5C43 50.9588 42.4336 52.3577 41.4258 53.3891C40.4177 54.4206 39.0506 55 37.625 55C36.1994 55 34.8323 54.4206 33.8242 53.3891C32.8164 52.3577 32.25 50.9588 32.25 49.5V35.75H26.875V8.25C26.875 6.06197 27.7244 3.96355 29.2365 2.41636C30.7485 0.869191 32.7992 0 34.9375 0H43V30.25ZM5.375 27.5C3.94947 27.5 2.58231 26.9206 1.57429 25.8891C0.566289 24.8577 0 23.4588 0 22V2.75C0 2.02066 0.283145 1.32118 0.787146 0.805454C1.29115 0.289723 1.97472 0 2.6875 0C3.40028 0 4.08385 0.289723 4.58785 0.805454C5.09186 1.32118 5.375 2.02066 5.375 2.75V13.75H8.0625V2.75C8.0625 2.02066 8.34565 1.32118 8.84965 0.805454C9.35365 0.289723 10.0372 0 10.75 0C11.4628 0 12.1463 0.289723 12.6504 0.805454C13.1543 1.32118 13.4375 2.02066 13.4375 2.75V13.75H16.125V2.75C16.125 2.02066 16.4082 1.32118 16.9121 0.805454C17.4162 0.289723 18.0997 0 18.8125 0C19.5253 0 20.2088 0.289723 20.7129 0.805454C21.2168 1.32118 21.5 2.02066 21.5 2.75V22C21.5 23.4588 20.9336 24.8577 19.9258 25.8891C18.9177 26.9206 17.5506 27.5 16.125 27.5V49.5C16.125 50.9588 15.5586 52.3577 14.5508 53.3891C13.5427 54.4206 12.1756 55 10.75 55C9.32447 55 7.95731 54.4206 6.94929 53.3891C5.94129 52.3577 5.375 50.9588 5.375 49.5V27.5Z" fill="url(#paint0_linear_165_1894)"/>
<defs>
<linearGradient id="paint0_linear_165_1894" x1="-9.46068e-07" y1="-12.0312" x2="54.606" y2="23.1404" gradientUnits="userSpaceOnUse">
<stop stop-color="#FF3D00"/>
<stop offset="1" stop-color="#BDE483"/>
</linearGradient>
</defs>
</svg>
