<svg width="80" height="80" viewBox="0 0 80 80" fill="none" xmlns="http://www.w3.org/2000/svg">
<circle cx="40" cy="40" r="40" fill="white"/>
<path d="M52.4753 45.5857C53.5247 44.5362 53.6747 43.037 52.7751 41.5378C52.0255 40.3384 50.6762 39.7387 49.177 40.0385C48.5773 40.1885 47.9776 40.4883 47.3779 40.9381C42.7303 44.0865 36.4336 43.9365 31.7861 40.7882C31.4862 40.6382 31.1864 40.4883 30.8865 40.3384C29.2374 39.5888 27.5882 39.8886 26.6887 41.3879C25.6393 42.8871 25.7892 44.5362 27.1385 45.8855C27.4383 46.1854 27.7381 46.3353 27.8881 46.6351L28.038 46.785C30.1369 48.4342 32.6856 49.4836 35.9839 49.9334L34.0349 51.8824C32.3857 53.5315 30.5867 55.3306 28.9375 56.9797C28.4878 57.4295 27.8881 58.1791 27.8881 59.2286C27.8881 60.5779 28.6377 61.9272 29.987 62.5269C30.4368 62.8267 30.8865 62.8267 31.3363 62.8267C32.0859 62.8267 32.9854 62.5269 33.5851 61.7772C35.8339 59.5284 37.633 57.7294 39.4321 55.9303C39.582 55.7804 39.582 55.7804 39.582 55.7804C39.582 55.7804 39.7319 55.7804 39.7319 55.9303C40.9313 57.2796 42.2806 58.479 43.48 59.8283C44.0797 60.4279 44.6793 61.0276 45.279 61.6273C46.0286 62.3769 46.6283 62.6768 47.5279 62.6768C48.8772 62.8267 50.3764 61.9272 50.9761 60.5779C51.5758 59.3785 51.2759 57.8793 50.2265 56.9797C48.7272 55.4805 47.228 53.8314 45.5789 52.3321L43.0302 49.7835C44.3795 49.6336 45.8787 49.3337 47.228 48.734C49.4769 47.9844 51.126 46.935 52.4753 45.5857Z" fill="black"/>
<path d="M39.582 41.3878C46.0286 41.3878 51.2759 36.2905 51.2759 29.8438C51.2759 26.6955 50.0765 23.697 47.8277 21.4482C45.5789 19.1994 42.7304 18 39.7319 18C33.2853 18 28.1879 23.2473 28.038 29.544C28.038 32.6924 29.2374 35.5409 31.4862 37.7897C33.5851 40.1885 36.4336 41.3878 39.582 41.3878ZM36.2837 26.3956C37.1832 25.4961 38.3826 25.0463 39.582 25.0463C42.2806 25.0463 44.2296 27.1452 44.2296 29.6939C44.2296 32.3925 42.1307 34.3415 39.582 34.3415C36.8834 34.3415 34.9344 32.2426 34.9344 29.6939C34.9344 28.4945 35.3842 27.2952 36.2837 26.3956Z" fill="black"/>
<path d="M52.4753 45.5857C53.5247 44.5362 53.6747 43.037 52.7751 41.5378C52.0255 40.3384 50.6762 39.7387 49.177 40.0385C48.5773 40.1885 47.9776 40.4883 47.3779 40.9381C42.7303 44.0865 36.4336 43.9365 31.7861 40.7882C31.4862 40.6382 31.1864 40.4883 30.8865 40.3384C29.2374 39.5888 27.5882 39.8886 26.6887 41.3879C25.6393 42.8871 25.7892 44.5362 27.1385 45.8855C27.4383 46.1854 27.7381 46.3353 27.8881 46.6351L28.038 46.785C30.1369 48.4342 32.6856 49.4836 35.9839 49.9334L34.0349 51.8824C32.3857 53.5315 30.5867 55.3306 28.9375 56.9797C28.4878 57.4295 27.8881 58.1791 27.8881 59.2286C27.8881 60.5779 28.6377 61.9272 29.987 62.5269C30.4368 62.8267 30.8865 62.8267 31.3363 62.8267C32.0859 62.8267 32.9854 62.5269 33.5851 61.7772C35.8339 59.5284 37.633 57.7294 39.4321 55.9303C39.582 55.7804 39.582 55.7804 39.582 55.7804C39.582 55.7804 39.7319 55.7804 39.7319 55.9303C40.9313 57.2796 42.2806 58.479 43.48 59.8283C44.0797 60.4279 44.6793 61.0276 45.279 61.6273C46.0286 62.3769 46.6283 62.6768 47.5279 62.6768C48.8772 62.8267 50.3764 61.9272 50.9761 60.5779C51.5758 59.3785 51.2759 57.8793 50.2265 56.9797C48.7272 55.4805 47.228 53.8314 45.5789 52.3321L43.0302 49.7835C44.3795 49.6336 45.8787 49.3337 47.228 48.734C49.4769 47.9844 51.126 46.935 52.4753 45.5857Z" fill="black"/>
</svg>
