<svg width="321" height="326" viewBox="0 0 321 326" fill="none" xmlns="http://www.w3.org/2000/svg">
<path opacity="0.08" d="M5.3194 226.865L172.604 323.764C175.697 325.552 180.698 325.552 183.791 323.764L311.48 249.883C314.572 248.095 314.572 245.204 311.48 243.429L144.195 146.53C141.102 144.742 136.101 144.742 133.008 146.53L5.3194 220.411C2.22702 222.186 2.22702 225.077 5.3194 226.865Z" fill="black"/>
<path d="M5.60284 81.0114C5.58939 80.9845 11.3305 77.6905 13.67 76.3594C16.0094 75.0284 19.2363 75.23 22.7993 77.2871L137.554 143.531V45.1128C137.554 30.229 148.095 12.0377 161.042 4.56214C167.147 1.0395 172.726 0.515184 176.908 2.50507C181.587 4.73697 255.629 46.7531 255.629 46.7531C259.125 49.4153 261.249 54.269 261.249 60.9109V71.9628L313.094 101.623C317.665 103.868 320.408 107.7 320.408 114.154L320.233 196.048L314.815 199.168L294.849 187.632L294.513 228.075C294.513 239.947 286.11 254.468 275.77 260.437C270.244 263.624 265.283 263.718 261.854 261.311L220.9 237.298V288.914L215.374 292.101L195.355 280.928V298.702C195.355 302.695 193.97 305.519 191.738 306.89C189.99 307.953 186.037 310.185 184.182 311.22C181.829 313.008 178.333 313.008 174.434 310.749L14.5977 218.462C7.49869 214.361 1.74408 204.425 1.74408 196.264V89.334C1.75751 85.2197 3.23648 82.329 5.60284 81.0114Z" fill="#C6E4A1"/>
<path d="M215.536 291.186V24.2593C235.529 35.5532 255.562 46.9144 255.562 46.9144C259.098 49.6034 261.249 54.5109 261.249 61.2335V71.9627L313.094 101.623C317.665 103.868 320.408 107.7 320.408 114.154L320.233 196.048L314.815 199.168L294.849 187.632L294.513 227.752C294.513 239.839 285.948 254.629 275.434 260.693C269.814 263.947 264.759 264.027 261.263 261.58L219.556 237.123V288.833L215.536 291.186Z" fill="#EDEDED"/>
<path d="M261.252 72.0571L259.786 254.239L267.047 259.402L284.888 248.969L291.275 225.104C291.275 225.104 285.184 148.063 291.275 123.364C295.201 107.458 313.244 101.879 313.244 101.879L261.252 72.1378V72.0571Z" fill="white"/>
<path d="M159.846 4.42793C165.991 0.878401 171.597 0.353986 175.806 2.35732C180.525 4.60266 254.984 46.5248 254.984 46.5248C254.984 46.5248 239.361 50.1819 234.722 52.7364C217.324 62.3632 216.881 83.5931 216.881 83.5931L213.654 291.899L195.368 281.506L194.979 192.875C194.938 182.913 189.574 173.743 180.928 168.795L136.21 143.249V45.2206C136.21 30.2695 146.818 11.9572 159.846 4.42793Z" fill="white"/>
<path d="M274.697 260.518C285.077 254.522 293.521 239.947 293.521 228.008V127.653C293.521 121.267 298.038 113.455 303.604 110.242C309.171 107.028 313.688 109.623 313.688 116.009V199.128L319.066 196.022V112.675C319.066 102.443 311.833 98.3022 302.932 103.438C294.031 108.574 286.798 121.078 286.798 131.297V231.651C286.798 239.745 281.07 249.641 274.025 253.702C266.98 257.762 261.252 254.495 261.252 246.387V61.2338C261.252 46.3231 250.698 40.2862 237.723 47.7752C224.748 55.2642 214.194 73.4958 214.194 88.4065V291.953L219.572 288.847V85.4486C219.572 73.9395 227.72 59.8893 237.723 54.1079C247.726 48.3265 255.874 52.9919 255.874 64.4875V249.749C255.874 261.674 264.318 266.515 274.697 260.518Z" fill="black"/>
<path d="M187.302 303.408V196.573C187.302 188.412 181.548 178.476 174.448 174.375L14.6123 82.0873C11.0896 80.0571 7.903 79.8419 5.59044 81.1326C5.57698 81.1058 11.2912 77.8251 13.6172 76.494C15.9432 75.163 19.1566 75.3646 22.7061 77.4083L182.516 169.683C183.416 170.193 184.277 170.812 185.124 171.498C189.964 175.437 193.796 181.931 194.979 188.089C195.221 189.366 195.369 190.644 195.369 191.867V298.689C195.369 302.682 193.984 305.506 191.752 306.877C190.005 307.939 186.052 310.171 184.196 311.207C186.132 309.754 187.302 307.079 187.302 303.408Z" fill="#EDEDED"/>
<path d="M38.4485 123.471L58.7237 135.182C64.3842 138.449 68.9824 146.382 68.9824 152.903V176.244C68.9824 182.751 62.4883 186.744 56.8279 183.464L36.23 171.645C30.5696 168.378 25.9713 160.446 25.9713 153.925V130.651C25.9579 124.13 32.7746 120.204 38.4485 123.471ZM66.2934 160.298L56.8818 154.866V162.946L66.2934 168.378V160.298ZM29.9914 153.938C29.9914 159.437 33.8635 166.119 38.65 168.889L57.6348 179.847C62.4213 182.603 66.2934 180.385 66.2934 174.899V172.022L56.8818 166.59V166.819V170.798L48.1424 171.928L39.403 160.701V156.493L29.9914 151.061V153.938ZM52.8482 166.617V164.735V160.997V152.943V150.846V147.323L47.4701 140.412L42.0921 141.111V143.491V146.745V154.799V156.52V160.419L47.4701 167.329L52.8482 166.617ZM29.9914 147.417L39.403 152.849V144.769L29.9914 139.337V147.417ZM29.9914 135.693L39.403 141.125V136.917L48.1424 135.787L56.8818 147.014V151.222L66.2934 156.654V152.903C66.2934 147.404 62.4213 140.722 57.6348 137.952L38.65 126.994C33.8635 124.238 29.9914 126.456 29.9914 131.942V135.693Z" fill="black"/>
<path d="M95.873 225.13V241.762L126.797 259.402V242.77L95.873 225.13Z" fill="white"/>
<path d="M59.5702 205.151V221.782L90.4941 239.422V222.791L59.5702 205.151Z" fill="#EDEDED"/>
<path d="M24.6132 185.158V201.803L55.5371 219.429V202.798L24.6132 185.158Z" fill="#EDEDED"/>
<path d="M161.756 262.763L130.832 245.123V261.755L161.756 279.395V262.763Z" fill="#EDEDED"/>
<path d="M297.399 189.443L314.045 198.6L313.397 199.778L296.751 190.621L297.399 189.443Z" fill="black"/>
<path d="M261.563 71.4989L313.555 101.244L312.887 102.411L260.895 72.666L261.563 71.4989Z" fill="black"/>
<path d="M261.397 262.373L262.123 261.243L257.417 258.245L224.692 239.341L224.019 240.511L256.718 259.388L261.397 262.373Z" fill="black"/>
<path d="M199.361 282.783L214.729 291.553L214.062 292.721L198.695 283.95L199.361 282.783Z" fill="black"/>
<path d="M136.206 136.593H137.551V45.2601C137.551 30.4301 148.051 12.2925 160.959 4.84389C166.713 1.52293 172.186 0.796853 176.367 2.78674C181.032 5.00519 255.102 46.6987 255.855 47.1155L256.514 45.9458C253.462 44.2248 181.651 3.80861 176.945 1.56326C172.347 -0.6283 166.431 0.111181 160.287 3.66071C147.003 11.3245 136.206 29.9729 136.206 45.2332V136.593Z" fill="black"/>
<path d="M214.864 292.625C214.985 292.625 215.092 292.598 215.2 292.531L220.578 289.425C220.779 289.304 220.914 289.089 220.914 288.847V85.4481C220.914 74.1541 228.9 60.3593 238.729 54.6855C243.367 52.0099 247.697 51.5527 250.91 53.4082C254.11 55.2502 255.871 59.1896 255.871 64.487V249.748C255.871 255.745 257.942 260.249 261.693 262.413C265.471 264.592 270.446 264.121 275.703 261.096C286.271 254.992 294.862 240.148 294.862 228.007V127.652C294.862 121.481 299.232 113.925 304.61 110.819C307.097 109.38 309.397 109.138 311.077 110.106C312.758 111.075 313.686 113.172 313.686 115.995V199.114C313.686 199.356 313.82 199.571 314.022 199.692C314.223 199.813 314.492 199.813 314.694 199.692L320.072 196.586C320.274 196.465 320.408 196.25 320.408 196.008V112.661C320.408 107.485 318.62 103.599 315.366 101.717C312.099 99.8209 307.797 100.224 303.266 102.846C294.19 108.09 286.795 120.849 286.795 131.283V231.637C286.795 239.516 281.216 249.156 274.358 253.109C271.159 254.951 268.174 255.274 265.982 254.01C263.791 252.746 262.594 250.044 262.594 246.387V61.2333C262.594 53.7981 260.039 48.2184 255.401 45.5428C250.735 42.8537 244.577 43.4319 238.056 47.1965C224.894 54.793 214.191 73.2801 214.191 88.4059V291.953C214.191 292.195 214.326 292.41 214.527 292.531C214.635 292.598 214.743 292.625 214.864 292.625ZM219.569 288.457L215.536 290.783V88.4059C215.536 73.7103 225.942 55.7476 238.729 48.3528C244.806 44.8436 250.493 44.2655 254.729 46.699C258.937 49.1326 261.249 54.2821 261.249 61.2198V246.4C261.249 250.555 262.688 253.674 265.31 255.18C267.945 256.699 271.401 256.39 275.031 254.279C282.264 250.111 288.14 239.947 288.14 231.637V131.283C288.14 121.266 295.225 109.031 303.938 104.002C308.039 101.636 311.857 101.233 314.694 102.873C317.517 104.5 319.064 107.969 319.064 112.648V195.604L315.03 197.93V116.022C315.03 112.688 313.86 110.187 311.75 108.964C309.625 107.727 306.855 107.982 303.938 109.676C298.197 112.997 293.518 121.064 293.518 127.666V228.021C293.518 239.731 285.222 254.064 275.031 259.94C270.204 262.723 265.713 263.193 262.365 261.257C259.044 259.334 257.216 255.247 257.216 249.748V64.487C257.216 58.6921 255.213 54.3493 251.582 52.2519C247.925 50.141 243.125 50.5981 238.056 53.5291C227.865 59.4181 219.569 73.7373 219.569 85.4481V288.457Z" fill="black"/>
<path d="M146.989 125.85L204.838 159.074L204.168 160.24L146.32 127.016L146.989 125.85Z" fill="black"/>
<path d="M146.989 104.514L204.838 137.738L204.168 138.904L146.32 105.68L146.989 104.514Z" fill="black"/>
<path d="M146.983 83.19L204.832 116.414L204.162 117.58L146.314 84.3558L146.983 83.19Z" fill="black"/>
<path d="M146.983 61.8543L204.832 95.0784L204.162 96.2442L146.314 63.0201L146.983 61.8543Z" fill="black"/>
<path d="M182.828 312.376C182.896 312.336 189.094 308.88 191.42 307.468C193.961 305.922 195.359 302.803 195.359 298.716V191.894C195.359 190.684 195.225 189.379 194.956 187.981C193.746 181.662 189.78 174.993 184.872 170.986C183.985 170.26 183.07 169.628 182.17 169.118L22.3602 76.8433C18.7166 74.7324 15.2477 74.4097 12.599 75.9156C10.273 77.2467 4.54538 80.5273 4.54538 80.5273L5.21764 81.697C5.21764 81.697 10.932 78.4164 13.258 77.0853C15.4764 75.8215 18.4611 76.1441 21.6745 77.9996L181.484 170.274C182.331 170.758 183.178 171.349 184.012 172.022C188.704 175.84 192.469 182.2 193.625 188.223C193.88 189.527 194.001 190.764 194.001 191.88V298.702C194.001 302.319 192.832 305.021 190.707 306.312C188.408 307.71 182.223 311.166 182.17 311.193L182.828 312.376Z" fill="black"/>
<path d="M179.539 313.196C180.883 313.196 182.12 312.887 183.223 312.242C185.858 310.722 187.297 307.576 187.297 303.395V196.559C187.297 188.196 181.381 177.978 174.107 173.783L14.271 81.5089C10.6139 79.398 7.13153 79.0752 4.48282 80.5945C1.84756 82.1138 0.40889 85.26 0.40889 89.4415V196.277C0.40889 204.64 6.32486 214.858 13.5987 219.053L173.435 311.341C175.573 312.578 177.643 313.196 179.539 313.196ZM8.18025 81.0113C9.834 81.0113 11.676 81.576 13.5987 82.692L173.435 174.966C180.332 178.946 185.952 188.64 185.952 196.586V303.421C185.952 307.105 184.742 309.835 182.551 311.099C180.332 312.376 177.334 312.053 174.107 310.198L14.271 217.91C7.37358 213.93 1.75342 204.236 1.75342 196.29V89.4549C1.75342 85.771 2.96352 83.0416 5.15509 81.7777C6.05591 81.2533 7.0643 81.0113 8.18025 81.0113Z" fill="black"/>
<path d="M134.093 208.205L135.264 208.866L134.602 210.037L133.432 209.375L134.093 208.205Z" fill="black"/>
<path d="M157.578 223.101L158.236 221.931L155.924 220.627L155.265 221.797L157.578 223.101ZM152.966 220.492L153.625 219.323L151.325 218.019L150.667 219.188L152.966 220.492ZM148.354 217.871L149.013 216.701L146.714 215.397L146.055 216.566L148.354 217.871ZM143.742 215.262L144.401 214.093L142.102 212.788L141.443 213.958L143.742 215.262ZM139.131 212.64L139.79 211.471L137.49 210.167L136.832 211.336L139.131 212.64Z" fill="black"/>
<path d="M160.594 223.177L161.764 223.839L161.101 225.009L159.931 224.347L160.594 223.177Z" fill="black"/>
<path d="M103.649 170.02L104.816 170.686L104.15 171.854L102.982 171.188L103.649 170.02Z" fill="black"/>
<path d="M157.451 202.246L158.123 201.077L155.703 199.692L155.031 200.862L157.451 202.246ZM152.611 199.477L153.283 198.307L150.863 196.922L150.19 198.092L152.611 199.477ZM147.757 196.72L148.429 195.551L146.009 194.166L145.337 195.336L147.757 196.72ZM142.917 193.951L143.589 192.781L141.169 191.396L140.496 192.566L142.917 193.951ZM138.076 191.195L138.749 190.025L136.328 188.64L135.656 189.81L138.076 191.195ZM133.236 188.425L133.908 187.255L131.488 185.87L130.816 187.04L133.236 188.425ZM128.382 185.655L129.055 184.485L126.634 183.101L125.962 184.27L128.382 185.655ZM123.542 182.899L124.214 181.729L121.794 180.344L121.122 181.514L123.542 182.899ZM118.688 180.129L119.361 178.959L116.94 177.575L116.268 178.744L118.688 180.129ZM113.848 177.373L114.52 176.203L112.1 174.818L111.428 175.988L113.848 177.373ZM109.008 174.603L109.68 173.433L107.26 172.049L106.588 173.218L109.008 174.603Z" fill="black"/>
<path d="M160.536 202.486L161.705 203.151L161.04 204.32L159.872 203.655L160.536 202.486Z" fill="black"/>
<path d="M111.241 194.523L112.402 195.201L111.725 196.362L110.563 195.684L111.241 194.523Z" fill="black"/>
<path d="M121.582 202.207L122.254 201.051L119.767 199.598L119.094 200.755L121.582 202.207ZM116.62 199.316L117.293 198.16L114.805 196.708L114.133 197.864L116.62 199.316Z" fill="black"/>
<path d="M124.714 202.466L125.875 203.144L125.197 204.305L124.036 203.627L124.714 202.466Z" fill="black"/>
<path d="M90.8258 240L91.498 238.83L60.9103 221.392V206.306L90.8258 223.368L91.498 222.199L60.5741 204.559C60.359 204.438 60.1036 204.438 59.9019 204.559C59.7002 204.68 59.5657 204.895 59.5657 205.137V221.768C59.5657 222.01 59.7002 222.239 59.9019 222.347L90.8258 240Z" fill="black"/>
<path d="M56.2008 220.101C56.3218 220.101 56.4294 220.075 56.5369 220.007C56.7386 219.886 56.873 219.671 56.873 219.429V202.797C56.873 202.555 56.7386 202.327 56.5369 202.219L25.613 184.579C25.3979 184.458 25.1424 184.458 24.9408 184.579C24.7391 184.7 24.6046 184.915 24.6046 185.157V201.789C24.6046 202.031 24.7391 202.26 24.9408 202.367L55.8647 220.007C55.9722 220.075 56.0798 220.101 56.2008 220.101ZM55.5285 203.187V218.273L25.9491 201.399V186.314L55.5285 203.187Z" fill="black"/>
<path d="M127.461 260.074C127.582 260.074 127.689 260.047 127.797 259.98C127.998 259.859 128.133 259.644 128.133 259.402V242.77C128.133 242.528 127.998 242.299 127.797 242.192L96.8728 224.552C96.6577 224.431 96.4022 224.431 96.2005 224.552C95.9988 224.673 95.8644 224.888 95.8644 225.13V241.762C95.8644 242.004 95.9988 242.232 96.2005 242.34L127.124 259.98C127.232 260.047 127.34 260.074 127.461 260.074ZM126.788 243.16V258.245L97.2089 241.372V226.286L126.788 243.16Z" fill="black"/>
<path d="M162.418 280.067C162.539 280.067 162.646 280.04 162.754 279.973C162.955 279.852 163.09 279.637 163.09 279.395V262.978H161.745V278.238L132.166 261.365V245.499H130.821V261.754C130.821 261.996 130.956 262.225 131.158 262.333L162.081 279.973C162.189 280.04 162.297 280.067 162.418 280.067Z" fill="black"/>
</svg>
