<svg width="366" height="33" viewBox="0 0 366 33" fill="none" xmlns="http://www.w3.org/2000/svg">
<path d="M299.577 0.459717H292.989C290.997 0.459717 289.465 1.07257 288.546 3.06436L275.982 31.7154H284.869C284.869 31.7154 286.401 27.8851 286.707 26.9658C287.627 26.9658 296.36 26.9658 297.586 26.9658C297.892 28.0383 298.658 31.5622 298.658 31.5622H306.625L299.577 0.459717ZM289.159 20.5308C289.925 18.6922 292.53 11.7976 292.53 11.7976C292.53 11.9508 293.296 9.959 293.602 8.8865L294.215 11.6444C294.215 11.6444 295.9 19.1519 296.207 20.684H289.159V20.5308Z" fill="#3362AB"/>
<path d="M276.594 21.45C276.594 27.885 270.772 32.175 261.733 32.175C257.902 32.175 254.225 31.4089 252.233 30.4896L253.459 23.4418L254.532 23.9014C257.289 25.1271 259.128 25.5868 262.499 25.5868C264.95 25.5868 267.555 24.6675 267.555 22.5225C267.555 21.1436 266.482 20.2243 263.112 18.6921C259.894 17.16 255.604 14.7086 255.604 10.2654C255.604 4.13679 261.579 0 270.006 0C273.224 0 275.982 0.612857 277.667 1.37893L276.441 8.12036L275.828 7.5075C274.296 6.89464 272.304 6.28179 269.393 6.28179C266.176 6.435 264.644 7.81393 264.644 9.03964C264.644 10.4186 266.482 11.4911 269.393 12.87C274.296 15.1682 276.594 17.7729 276.594 21.45Z" fill="#3362AB"/>
<path d="M201.826 0.765933L201.979 0.153076H215.156C216.994 0.153076 218.373 0.765933 218.833 2.75772L221.744 16.547C218.833 9.19272 212.092 3.21736 201.826 0.765933Z" fill="#F9B50B"/>
<path d="M240.283 0.459367L226.953 31.5619H217.914L210.253 5.51544C215.769 9.03937 220.365 14.5551 222.05 18.3854L222.97 21.6029L231.243 0.306152H240.283V0.459367Z" fill="#3362AB"/>
<path d="M243.807 0.306152H252.234L246.871 31.5619H238.444L243.807 0.306152Z" fill="#3362AB"/>
<path d="M171.939 0H150.559C151.804 7.05774 158.654 13.7003 166.127 13.7003H183.149C183.356 13.0776 183.356 12.0397 183.356 11.4169C183.356 5.18952 178.167 0 171.939 0Z" fill="url(#paint0_linear_416_476)"/>
<path d="M152.425 14.9458V32.175H162.804V23.0414H171.937C176.919 23.0414 181.279 19.5126 182.732 14.9458H152.425Z" fill="#4FAD50"/>
<path d="M115.892 0V31.9674H125.025C125.025 31.9674 127.309 31.9674 128.554 29.684C134.781 17.4368 136.65 13.7003 136.65 13.7003H137.895V31.9674H148.274V0H139.141C139.141 0 136.857 0.207593 135.612 2.2834C130.422 12.87 127.516 18.2671 127.516 18.2671H126.271V0H115.892Z" fill="#4FAD50"/>
<path d="M72.2998 32.1754V0.208008H82.6788C82.6788 0.208008 85.585 0.208001 87.2456 4.77478C91.3972 16.8145 91.8124 18.4751 91.8124 18.4751C91.8124 18.4751 92.6427 15.569 96.3792 4.77478C98.0398 0.208001 100.946 0.208008 100.946 0.208008H111.325V32.1754H100.946V14.9462H99.7005L93.8882 32.1754H89.3214L83.5092 14.9462H82.2637V32.1754H72.2998Z" fill="#4FAD50"/>
<g clip-path="url(#clip0_416_476)">
<path d="M365.863 26.4309C365.863 29.975 363.007 32.8609 359.501 32.8609H324.888V7.39391C324.888 3.84979 327.743 0.963867 331.249 0.963867H365.863V26.4309Z" fill="white"/>
<path d="M354.592 19.8997H357.222C357.297 19.8997 357.472 19.8744 357.547 19.8744C358.048 19.7732 358.474 19.3175 358.474 18.6846C358.474 18.077 358.048 17.6214 357.547 17.4948C357.472 17.4695 357.322 17.4695 357.222 17.4695H354.592V19.8997Z" fill="url(#paint1_linear_416_476)"/>
<path d="M356.921 3.11572C354.417 3.11572 352.363 5.16625 352.363 7.72307V12.5076H358.8C358.95 12.5076 359.125 12.5076 359.251 12.5329C360.703 12.6089 361.78 13.3683 361.78 14.6847C361.78 15.7226 361.054 16.6087 359.701 16.7859V16.8365C361.179 16.9378 362.306 17.7732 362.306 19.0642C362.306 20.4566 361.054 21.3679 359.401 21.3679H352.338V30.7345H359.025C361.53 30.7345 363.583 28.684 363.583 26.1272V3.11572H356.921V3.11572Z" fill="url(#paint2_linear_416_476)"/>
<path d="M358.148 14.9886C358.148 14.3811 357.723 13.976 357.222 13.9001C357.172 13.9001 357.046 13.8748 356.971 13.8748H354.592V16.1025H356.971C357.046 16.1025 357.197 16.1025 357.222 16.0772C357.723 16.0012 358.148 15.5962 358.148 14.9886V14.9886Z" fill="url(#paint3_linear_416_476)"/>
<path d="M331.725 3.11572C329.22 3.11572 327.167 5.16625 327.167 7.72307V19.0896C328.444 19.7224 329.771 20.1275 331.099 20.1275C332.677 20.1275 333.528 19.1655 333.528 17.8491V12.4823H337.435V17.8238C337.435 19.8996 336.158 21.5958 331.825 21.5958C329.195 21.5958 327.142 21.0135 327.142 21.0135V30.7092H333.829C336.333 30.7092 338.387 28.6587 338.387 26.1018V3.11572H331.725V3.11572Z" fill="url(#paint4_linear_416_476)"/>
<path d="M344.323 3.11572C341.818 3.11572 339.765 5.16625 339.765 7.72307V13.7481C340.917 12.7608 342.92 12.1279 346.151 12.2798C347.88 12.3557 349.733 12.8367 349.733 12.8367V14.786C348.806 14.305 347.704 13.8746 346.277 13.7734C343.822 13.5962 342.344 14.8113 342.344 16.9378C342.344 19.0896 343.822 20.3047 346.277 20.1022C347.704 20.0009 348.806 19.5452 349.733 19.0896V21.0388C349.733 21.0388 347.905 21.5198 346.151 21.5958C342.92 21.7476 340.917 21.1148 339.765 20.1275V30.7598H346.452C348.956 30.7598 351.01 28.7093 351.01 26.1525V3.11572H344.323V3.11572Z" fill="url(#paint5_linear_416_476)"/>
</g>
<path d="M54.1496 16.0875C54.1496 24.915 46.9721 32.175 38.0621 32.175C29.2346 32.175 21.9746 24.915 21.9746 16.0875C21.9746 7.26 29.1521 0 37.9796 0C46.9721 0 54.1496 7.26 54.1496 16.0875Z" fill="#F9B50B"/>
<path d="M32.6169 16.17C32.6169 15.015 32.4519 13.86 32.2869 12.7875H22.3869C22.4694 12.21 22.6344 11.715 22.7994 11.055H31.6269C31.4619 10.4775 31.2144 9.9 30.9669 9.3225H23.4594C23.7069 8.745 24.0369 8.25 24.3669 7.59H30.0594C29.7294 7.0125 29.3169 6.435 28.8219 5.8575H25.6869C26.1819 5.28 26.6769 4.785 27.3369 4.2075C24.5319 1.5675 20.7369 0 16.5294 0C7.78441 0.2475 0.524414 7.26 0.524414 16.0875C0.524414 24.915 7.70191 32.175 16.6119 32.175C20.8194 32.175 24.5319 30.525 27.4194 27.9675C27.9969 27.4725 28.4919 26.895 29.0694 26.235H25.7694C25.3569 25.74 24.9444 25.1625 24.6144 24.585H30.2244C30.5544 24.09 30.8844 23.5125 31.1319 22.8525H23.6244C23.3769 22.3575 23.1294 21.78 22.9644 21.12H31.7919C32.2869 19.635 32.6169 17.985 32.6169 16.17Z" fill="#C8191C"/>
<path d="M22.3041 20.2126L22.5516 18.7276C22.4691 18.7276 22.3041 18.8101 22.1391 18.8101C21.5616 18.8101 21.4791 18.4801 21.5616 18.3151L22.0566 15.3451H22.9641L23.2116 13.6951H22.3866L22.5516 12.7051H20.8191C20.8191 12.7051 19.8291 18.3151 19.8291 18.9751C19.8291 19.9651 20.4066 20.4601 21.2316 20.4601C21.7266 20.4601 22.1391 20.2951 22.3041 20.2126Z" fill="white"/>
<path d="M22.8818 17.4902C22.8818 19.8827 24.5318 20.4602 25.8518 20.4602C27.0893 20.4602 27.6668 20.2127 27.6668 20.2127L27.9968 18.5627C27.9968 18.5627 27.0893 18.9752 26.1818 18.9752C24.2843 18.9752 24.6143 17.5727 24.6143 17.5727H28.0793C28.0793 17.5727 28.3268 16.5002 28.3268 16.0052C28.3268 14.9327 27.7493 13.5302 25.8518 13.5302C24.2018 13.4477 22.8818 15.3452 22.8818 17.4902ZM25.8518 15.0152C26.7593 15.0152 26.5943 16.0877 26.5943 16.1702H24.6968C24.7793 16.0877 24.9443 15.0152 25.8518 15.0152Z" fill="white"/>
<path d="M36.6586 20.2126L36.9886 18.3151C36.9886 18.3151 36.1636 18.7276 35.5036 18.7276C34.3486 18.7276 33.7711 17.8201 33.7711 16.7476C33.7711 14.6851 34.7611 13.6126 35.9986 13.6126C36.8236 13.6126 37.5661 14.1076 37.5661 14.1076L37.8136 12.2926C37.8136 12.2926 36.8236 11.8801 35.8336 11.8801C33.8536 11.8801 31.9561 13.6126 31.9561 16.8301C31.9561 18.9751 32.9461 20.3776 35.0086 20.3776C35.7511 20.4601 36.6586 20.2126 36.6586 20.2126Z" fill="white"/>
<path d="M12.9831 13.4475C11.8281 13.4475 10.9206 13.7775 10.9206 13.7775L10.6731 15.2625C10.6731 15.2625 11.4156 14.9325 12.5706 14.9325C13.1481 14.9325 13.6431 15.015 13.6431 15.51C13.6431 15.84 13.5606 15.9225 13.5606 15.9225H12.8181C11.3331 15.9225 9.76562 16.5 9.76562 18.48C9.76562 20.0475 10.7556 20.3775 11.4156 20.3775C12.5706 20.3775 13.1481 19.635 13.2306 19.635L13.1481 20.295H14.5506L15.2106 15.5925C15.2106 13.53 13.5606 13.4475 12.9831 13.4475ZM13.3131 17.2425C13.3131 17.49 13.1481 18.8925 12.1581 18.8925C11.6631 18.8925 11.4981 18.48 11.4981 18.2325C11.4981 17.82 11.7456 17.2425 13.0656 17.2425C13.2306 17.2425 13.3131 17.2425 13.3131 17.2425Z" fill="white"/>
<path d="M16.8594 20.3775C17.2719 20.3775 19.4169 20.46 19.4169 18.15C19.4169 16.005 17.3544 16.4175 17.3544 15.5925C17.3544 15.18 17.6844 15.015 18.2619 15.015C18.5094 15.015 19.4169 15.0975 19.4169 15.0975L19.6644 13.53C19.6644 13.53 19.0869 13.365 18.0144 13.365C16.7769 13.365 15.4569 13.86 15.4569 15.5925C15.4569 17.5725 17.6019 17.4075 17.6019 18.15C17.6019 18.645 17.0244 18.7275 16.6119 18.7275C15.8694 18.7275 15.0444 18.48 15.0444 18.48L14.7969 20.0475C14.9619 20.2125 15.4569 20.3775 16.8594 20.3775Z" fill="white"/>
<path d="M50.8489 12.1277L50.5189 14.4377C50.5189 14.4377 49.8589 13.6127 48.8689 13.6127C47.3014 13.6127 45.9814 15.5102 45.9814 17.7377C45.9814 19.1402 46.6414 20.5427 48.1264 20.5427C49.1164 20.5427 49.7764 19.8827 49.7764 19.8827L49.6939 20.4602H51.4264L52.6639 12.2927L50.8489 12.1277ZM50.0239 16.5827C50.0239 17.4902 49.6114 18.7277 48.6214 18.7277C48.0439 18.7277 47.7139 18.2327 47.7139 17.3252C47.7139 15.9227 48.2914 15.0977 49.1164 15.0977C49.6939 15.1802 50.0239 15.5927 50.0239 16.5827Z" fill="white"/>
<path d="M3.65879 20.2952L4.64879 14.1902L4.81379 20.2952H5.96879L8.19629 14.1902L7.28879 20.2952H9.10379L10.5063 12.1277H7.70129L5.96879 17.1602L5.88629 12.1277H3.41129L2.00879 20.2952H3.65879Z" fill="white"/>
<path d="M30.0596 20.295C30.5546 17.49 30.6371 15.18 31.8746 15.5925C32.0396 14.52 32.2871 14.025 32.4521 13.6125H32.1221C31.3796 13.6125 30.7196 14.6025 30.7196 14.6025L30.8846 13.695H29.2346L28.1621 20.295H30.0596V20.295Z" fill="white"/>
<path d="M40.6198 13.4475C39.4648 13.4475 38.5573 13.7775 38.5573 13.7775L38.3098 15.2625C38.3098 15.2625 39.0523 14.9325 40.2073 14.9325C40.7848 14.9325 41.2798 15.015 41.2798 15.51C41.2798 15.84 41.1973 15.9225 41.1973 15.9225H40.4548C38.9698 15.9225 37.4023 16.5 37.4023 18.48C37.4023 20.0475 38.3923 20.3775 39.0523 20.3775C40.2073 20.3775 40.7848 19.635 40.8673 19.635L40.7848 20.295H42.3523L43.0123 15.5925C43.0123 13.53 41.1973 13.4475 40.6198 13.4475ZM41.0323 17.2425C41.0323 17.49 40.8673 18.8925 39.8773 18.8925C39.3823 18.8925 39.2173 18.48 39.2173 18.2325C39.2173 17.82 39.4648 17.2425 40.7848 17.2425C40.9498 17.2425 40.9498 17.2425 41.0323 17.2425Z" fill="white"/>
<path d="M44.3321 20.295C44.8271 17.49 44.9096 15.18 46.1471 15.5925C46.3121 14.52 46.5596 14.025 46.7246 13.6125H46.3946C45.6521 13.6125 44.9921 14.6025 44.9921 14.6025L45.1571 13.695H43.5071L42.4346 20.295H44.3321V20.295Z" fill="white"/>
<defs>
<linearGradient id="paint0_linear_416_476" x1="150.522" y1="6.94835" x2="183.283" y2="6.94835" gradientUnits="userSpaceOnUse">
<stop stop-color="#27B1E6"/>
<stop offset="1" stop-color="#148ACA"/>
</linearGradient>
<linearGradient id="paint1_linear_416_476" x1="352.359" y1="18.6876" x2="363.613" y2="18.6876" gradientUnits="userSpaceOnUse">
<stop stop-color="#007940"/>
<stop offset="0.2285" stop-color="#00873F"/>
<stop offset="0.7433" stop-color="#40A737"/>
<stop offset="1" stop-color="#5CB531"/>
</linearGradient>
<linearGradient id="paint2_linear_416_476" x1="352.358" y1="16.9141" x2="363.614" y2="16.9141" gradientUnits="userSpaceOnUse">
<stop stop-color="#007940"/>
<stop offset="0.2285" stop-color="#00873F"/>
<stop offset="0.7433" stop-color="#40A737"/>
<stop offset="1" stop-color="#5CB531"/>
</linearGradient>
<linearGradient id="paint3_linear_416_476" x1="352.358" y1="14.9855" x2="363.614" y2="14.9855" gradientUnits="userSpaceOnUse">
<stop stop-color="#007940"/>
<stop offset="0.2285" stop-color="#00873F"/>
<stop offset="0.7433" stop-color="#40A737"/>
<stop offset="1" stop-color="#5CB531"/>
</linearGradient>
<linearGradient id="paint4_linear_416_476" x1="327.161" y1="16.9141" x2="338.591" y2="16.9141" gradientUnits="userSpaceOnUse">
<stop stop-color="#1F286F"/>
<stop offset="0.4751" stop-color="#004E94"/>
<stop offset="0.8261" stop-color="#0066B1"/>
<stop offset="1" stop-color="#006FBC"/>
</linearGradient>
<linearGradient id="paint5_linear_416_476" x1="339.7" y1="16.9141" x2="350.8" y2="16.9141" gradientUnits="userSpaceOnUse">
<stop stop-color="#6C2C2F"/>
<stop offset="0.1735" stop-color="#882730"/>
<stop offset="0.5731" stop-color="#BE1833"/>
<stop offset="0.8585" stop-color="#DC0436"/>
<stop offset="1" stop-color="#E60039"/>
</linearGradient>
<clipPath id="clip0_416_476">
<rect width="41.25" height="32.175" fill="white" transform="translate(324.75 0.824951)"/>
</clipPath>
</defs>
</svg>
