<svg width="54" height="55" viewBox="0 0 54 55" fill="none" xmlns="http://www.w3.org/2000/svg">
<path fill-rule="evenodd" clip-rule="evenodd" d="M34.56 1.92276C34.56 0.860859 33.7146 0 32.6722 0H21.3278C20.2852 0 19.44 0.860859 19.44 1.92276V17.8773C19.44 18.9392 18.5947 19.8 17.5522 19.8H1.8878C0.845207 19.8 0 20.6608 0 21.7228V33.2772C0 34.3392 0.845207 35.2 1.8878 35.2H17.5522C18.5947 35.2 19.44 36.0608 19.44 37.1227V53.0772C19.44 54.139 20.2852 55 21.3278 55H32.6722C33.7146 55 34.56 54.139 34.56 53.0772V37.1227C34.56 36.0608 35.4052 35.2 36.4478 35.2H52.1122C53.1546 35.2 54 34.3392 54 33.2772V21.7228C54 20.6608 53.1546 19.8 52.1122 19.8H36.4478C35.4052 19.8 34.56 18.9392 34.56 17.8773V1.92276Z" fill="url(#paint0_linear_165_1891)"/>
<defs>
<linearGradient id="paint0_linear_165_1891" x1="20.4" y1="-8.93749" x2="50.9919" y2="53.9147" gradientUnits="userSpaceOnUse">
<stop stop-color="#00893D"/>
<stop offset="1" stop-color="#63B31F"/>
</linearGradient>
</defs>
</svg>
