<svg width="32" height="33" viewBox="0 0 32 33" fill="none" xmlns="http://www.w3.org/2000/svg">
<path d="M26.91 25.6556C26.8762 25.4612 26.8357 25.2896 26.7939 25.1411C26.5225 24.1717 25.6828 23.4344 24.654 23.2616L18.8067 22.2883C17.8265 22.1303 16.8382 22.5057 16.2347 23.2725C16.1564 23.3711 16.0808 23.4736 15.9296 23.641C12.9755 22.3571 10.6412 20.0215 9.40722 16.9987C9.54628 16.9055 9.67997 16.8057 9.80688 16.7017C10.5589 16.0955 10.9315 15.1235 10.7803 14.1676L9.87437 8.42285C9.7164 7.41703 9.02515 6.59498 8.07063 6.27906C7.86406 6.2102 7.62105 6.14545 7.33888 6.09414C5.52974 5.77282 3.6787 6.28176 2.25704 7.50225C0.770573 8.77943 -0.0502679 10.6329 0.0023862 12.5891C0.302109 23.7314 9.26684 32.6976 20.4106 32.9987C20.4687 33 20.5281 33 20.5861 33C22.4614 33 24.2341 32.1884 25.4708 30.7573C26.7021 29.3343 27.2259 27.4742 26.91 25.6556ZM23.4281 28.9929C22.6842 29.8543 21.6338 30.3241 20.4821 30.3011C10.7735 30.0392 2.9618 22.2274 2.69988 12.5176C2.67017 11.3781 3.14951 10.2983 4.01628 9.55309C4.66703 8.99415 5.44601 8.69972 6.25338 8.69972C6.45319 8.69972 6.65439 8.71868 6.8569 8.75378C6.99596 8.78078 7.11609 8.81034 7.20654 8.84409L8.10573 14.6077C8.03823 14.6617 7.968 14.7129 7.89239 14.7642C6.76505 15.5311 6.34787 16.9219 6.87981 18.1464C8.43648 21.7295 11.2677 24.5604 14.8495 26.1184C16.0727 26.6503 17.466 26.2348 18.2342 25.1075L18.3597 24.9522L24.1922 25.8715C24.2124 25.9444 24.2314 26.0255 24.2476 26.12C24.4258 27.1366 24.1274 28.1856 23.4281 28.9929Z" fill="black"/>
<path d="M16.0006 16.0345C16.0196 16.5864 16.4825 17.0184 17.0345 16.9994L26.0291 16.6892C26.5811 16.6702 27.0131 16.2073 26.9941 15.6554C26.975 15.1034 26.5121 14.6714 25.9602 14.6904L17.9649 14.9661L17.6892 6.97088C17.6702 6.41893 17.2073 5.98691 16.6554 6.00594C16.1034 6.02497 15.6714 6.48785 15.6904 7.03981L16.0006 16.0345ZM30.2689 0.317682L16.2689 15.3177L17.7311 16.6823L31.7311 1.68232L30.2689 0.317682Z" fill="black"/>
</svg>
