<svg width="59" height="61" viewBox="0 0 59 61" fill="none" xmlns="http://www.w3.org/2000/svg">
<g clip-path="url(#clip0_165_1896)">
<path d="M28.7826 0.892447C28.8749 0.790667 28.9865 0.709524 29.1106 0.654048C29.2346 0.598572 29.3684 0.569946 29.5036 0.569946C29.6388 0.569946 29.7726 0.598572 29.8966 0.654048C30.0206 0.709524 30.1323 0.790667 30.2246 0.892447L37.562 8.98294C37.6582 9.08895 37.7752 9.17255 37.9053 9.22811C38.0354 9.28368 38.1756 9.30994 38.3163 9.30513L49.0559 8.93106C49.1911 8.92639 49.3257 8.95038 49.4514 9.00153C49.5772 9.05268 49.6914 9.12992 49.787 9.22844C49.8826 9.32696 49.9576 9.44468 50.0072 9.57428C50.0568 9.70388 50.0801 9.84261 50.0756 9.98187L49.7126 21.0496C49.7079 21.1947 49.7334 21.3391 49.7873 21.4732C49.8413 21.6073 49.9224 21.7279 50.0252 21.827L57.8759 29.3886C57.9747 29.4837 58.0535 29.5988 58.1073 29.7266C58.1612 29.8544 58.189 29.9923 58.189 30.1317C58.189 30.271 58.1612 30.4089 58.1073 30.5367C58.0535 30.6645 57.9747 30.7796 57.8759 30.8747L50.0252 38.4363C49.9224 38.5354 49.8413 38.6561 49.7873 38.7901C49.7334 38.9242 49.7079 39.0686 49.7126 39.2137L50.0756 50.2814C50.0801 50.4207 50.0568 50.5594 50.0072 50.689C49.9576 50.8186 49.8826 50.9364 49.787 51.0349C49.6914 51.1334 49.5772 51.2106 49.4514 51.2618C49.3257 51.3129 49.1911 51.3369 49.0559 51.3322L38.3163 50.9582C38.1756 50.9534 38.0354 50.9796 37.9053 51.0352C37.7752 51.0908 37.6582 51.1744 37.562 51.2804L30.2246 59.3709C30.1322 59.4726 30.0206 59.5537 29.8965 59.6091C29.7725 59.6646 29.6388 59.6932 29.5036 59.6932C29.3684 59.6932 29.2346 59.6646 29.1106 59.6091C28.9866 59.5537 28.8749 59.4726 28.7826 59.3709L21.4452 51.2804C21.349 51.1744 21.2319 51.0908 21.1018 51.0352C20.9717 50.9796 20.8316 50.9534 20.6908 50.9582L9.95122 51.3322C9.8161 51.3369 9.68148 51.3129 9.55572 51.2618C9.42996 51.2106 9.31574 51.1334 9.22013 51.0349C9.12453 50.9364 9.04959 50.8186 8.99995 50.689C8.95031 50.5594 8.92704 50.4207 8.93157 50.2814L9.29492 39.2137C9.29964 39.0686 9.27419 38.9242 9.22026 38.7901C9.16634 38.656 9.0852 38.5354 8.98229 38.4363L1.1313 30.8747C1.03254 30.7795 0.953799 30.6645 0.899967 30.5367C0.846136 30.4089 0.818359 30.271 0.818359 30.1317C0.818359 29.9923 0.846136 29.8545 0.899967 29.7266C0.953799 29.5988 1.03254 29.4838 1.1313 29.3886L8.98191 21.827C9.19008 21.6265 9.30363 21.3434 9.29417 21.0496L8.93157 9.98148C8.92704 9.84222 8.95031 9.70349 8.99995 9.57389C9.04959 9.44429 9.12453 9.32657 9.22013 9.22805C9.31574 9.12953 9.42996 9.05229 9.55572 9.00114C9.68148 8.94999 9.8161 8.926 9.95122 8.93067L20.6908 9.30474C20.8316 9.30962 20.9718 9.2834 21.1019 9.22783C21.232 9.17226 21.349 9.08862 21.4452 8.98255L28.7826 0.892447Z" fill="url(#paint0_linear_165_1896)"/>
<path d="M36.5041 35.9767C36.5041 36.5309 36.6441 36.9927 36.9234 37.3625C37.2308 37.7319 37.6361 37.9164 38.1391 37.9164C38.6705 37.9164 39.0759 37.7319 39.3552 37.3625C39.6349 36.9927 39.7746 36.5309 39.7746 35.9767C39.7746 35.4532 39.6349 35.0218 39.3552 34.6832C39.0759 34.3139 38.6705 34.129 38.1391 34.129C37.6361 34.129 37.2308 34.3139 36.9234 34.6832C36.6437 35.0218 36.5041 35.4532 36.5041 35.9767ZM38.1391 42.0276C37.4026 42.0316 36.6736 41.8742 36.0007 41.5657C35.3432 41.2673 34.7459 40.8443 34.2399 40.3187C33.7365 39.7645 33.3316 39.1178 33.0238 38.3786C32.7441 37.6394 32.6045 36.8543 32.6045 36.0227C32.6045 35.1915 32.7445 34.4215 33.0238 33.7136C33.3312 32.974 33.7365 32.3273 34.2399 31.773C34.7362 31.2238 35.3353 30.7838 36.001 30.4796C36.6739 30.1713 37.4027 30.0139 38.1391 30.0178C38.8942 30.0178 39.6069 30.1719 40.2776 30.4796C40.9434 30.7837 41.5425 31.2237 42.0387 31.773C42.5421 32.3273 42.9334 32.9744 43.2128 33.7132C43.5205 34.4215 43.6741 35.1915 43.6741 36.0227C43.6741 36.8543 43.5205 37.6394 43.2128 38.3786C42.9334 39.1178 42.5421 39.7645 42.0387 40.3187C41.5326 40.8444 40.9352 41.2674 40.2776 41.5657C39.6046 41.8743 38.8757 42.0317 38.1391 42.0276V42.0276ZM20.6124 22.9968C20.6124 23.5203 20.7521 23.9669 21.0318 24.3363C21.3391 24.7057 21.7585 24.8905 22.2895 24.8905C22.7929 24.8905 23.1839 24.7057 23.4636 24.3363C23.7713 23.9669 23.925 23.5203 23.925 22.9968C23.925 22.4426 23.7709 21.996 23.4636 21.657C23.1839 21.2876 22.7925 21.1031 22.2895 21.1031C21.7585 21.1031 21.3391 21.2876 21.0318 21.657C20.7521 21.996 20.6124 22.4426 20.6124 22.9968ZM22.2895 29.0017C21.553 29.0057 20.8241 28.8483 20.1511 28.5399C19.4853 28.2357 18.8862 27.7957 18.39 27.2465C17.8866 26.6922 17.4816 26.0451 17.1742 25.3063C16.8942 24.5672 16.7549 23.782 16.7549 22.9504C16.7549 22.1192 16.8945 21.3492 17.1742 20.6409C17.4816 19.9018 17.8869 19.2706 18.39 18.7472C18.8862 18.1979 19.4853 17.758 20.1511 17.4538C20.8241 17.1454 21.553 16.988 22.2895 16.992C23.0442 16.992 23.7429 17.1456 24.3864 17.4538C25.052 17.758 25.6509 18.198 26.1471 18.7472C26.6505 19.2706 27.0418 19.9018 27.3212 20.6409C27.6289 21.3492 27.7825 22.1192 27.7825 22.9504C27.7825 23.782 27.6289 24.5672 27.3212 25.3063C27.0418 26.0455 26.6505 26.6922 26.1471 27.2465C25.6508 27.7957 25.0517 28.2357 24.386 28.5399C23.7433 28.848 23.0442 29.0017 22.2895 29.0017ZM21.7029 41.1963C23.8049 37.2959 25.9153 33.4003 28.0342 29.5096C30.168 25.6121 32.2785 21.701 34.3656 17.7767H38.6005C36.5135 21.7011 34.403 25.6121 32.2691 29.5096C30.1289 33.388 28.0182 37.2837 25.9374 41.1963H21.7025H21.7029Z" fill="white"/>
</g>
<defs>
<linearGradient id="paint0_linear_165_1896" x1="0.359938" y1="0.097517" x2="0.359938" y2="60.1658" gradientUnits="userSpaceOnUse">
<stop stop-color="#FBB03B"/>
<stop offset="1" stop-color="#D4145A"/>
</linearGradient>
<clipPath id="clip0_165_1896">
<rect width="58.6658" height="60.4583" fill="white"/>
</clipPath>
</defs>
</svg>
