<svg width="28" height="25" viewBox="0 0 28 25" fill="none" xmlns="http://www.w3.org/2000/svg">
<path d="M12.8278 16.0571V19.5449C12.8278 20.1878 12.2236 20.7075 11.4792 20.7075C10.7348 20.7075 10.1306 20.1878 10.1306 19.5449V16.0571C10.1306 15.4142 10.7348 14.8945 11.4792 14.8945C12.2236 14.8945 12.8278 15.4142 12.8278 16.0571ZM16.8736 14.8945C16.1291 14.8945 15.525 15.4142 15.525 16.0571V19.5449C15.525 20.1878 16.1291 20.7075 16.8736 20.7075C17.618 20.7075 18.2222 20.1878 18.2222 19.5449V16.0571C18.2222 15.4142 17.618 14.8945 16.8736 14.8945ZM25.5437 13.2912L24.5309 20.1331C24.1884 22.4479 21.8876 24.1941 19.1797 24.1941H9.20278C6.50424 24.1941 4.20488 22.4549 3.85424 20.1483L2.81177 13.2924C1.55488 12.6995 0.69043 11.5637 0.69043 10.2441C0.69043 8.32118 2.50564 6.75632 4.73621 6.75632H6.67009L10.3234 1.50718C10.7065 0.956108 11.5332 0.77821 12.1737 1.10839C12.813 1.43857 13.0193 2.15248 12.6363 2.70355L9.81637 6.75519H18.5391L15.7192 2.70355C15.3362 2.15248 15.5425 1.43857 16.1817 1.10839C16.821 0.77821 17.649 0.956108 18.032 1.50718L21.6853 6.75632H23.6165C25.8471 6.75632 27.6623 8.32118 27.6623 10.2441C27.6623 11.5625 26.7992 12.6983 25.5437 13.2912ZM3.38762 10.2441C3.38762 10.8859 3.99314 11.4067 4.73621 11.4067H23.6165C24.3596 11.4067 24.9651 10.8859 24.9651 10.2441C24.9651 9.60236 24.3596 9.08152 23.6165 9.08152H4.73621C3.99314 9.08152 3.38762 9.60236 3.38762 10.2441ZM22.7589 13.7319H5.59933L6.52983 19.8472C6.7038 21.0005 7.85418 21.8701 9.20278 21.8701H19.1797C20.5336 21.8701 21.684 20.997 21.8539 19.8402L22.7589 13.7319Z" fill="#0DA70E"/>
</svg>
