<svg width="55" height="59" viewBox="0 0 55 59" fill="none" xmlns="http://www.w3.org/2000/svg">
<path d="M31.8422 0V23.6H55C55 10.561 44.6369 0 31.8422 0ZM50.1369 40.9755C53.2903 36.8538 55.0019 31.7764 55 26.55H12.8526L10.1026 20.65H0V26.55H6.42631C6.42631 26.55 11.8974 38.5565 12.5632 39.589C9.37894 41.3295 7.23684 44.7515 7.23684 48.675C7.23684 54.3685 11.7816 59 17.3684 59C22.4631 59 26.6894 55.165 27.3841 50.15H33.4053C34.1 55.165 38.3263 59 43.421 59C49.0078 59 53.5526 54.3685 53.5526 48.675C53.5526 45.607 52.221 42.8635 50.1369 40.9755ZM17.3684 53.1C14.9658 53.1 13.0263 51.1235 13.0263 48.675C13.0263 46.2265 14.9658 44.25 17.3684 44.25C19.771 44.25 21.7106 46.2265 21.7106 48.675C21.7106 51.1235 19.771 53.1 17.3684 53.1ZM43.421 53.1C41.0184 53.1 39.079 51.1235 39.079 48.675C39.079 46.2265 41.0184 44.25 43.421 44.25C45.8237 44.25 47.7631 46.2265 47.7631 48.675C47.7631 51.1235 45.8237 53.1 43.421 53.1Z" fill="url(#paint0_linear_165_1903)"/>
<defs>
<linearGradient id="paint0_linear_165_1903" x1="7.07143" y1="-2.38822e-06" x2="52.2933" y2="70.5301" gradientUnits="userSpaceOnUse">
<stop stop-color="#BDE483"/>
<stop offset="1" stop-color="#FF4488"/>
</linearGradient>
</defs>
</svg>
