<svg width="16" height="19" viewBox="0 0 16 19" fill="none" xmlns="http://www.w3.org/2000/svg">
<path fill-rule="evenodd" clip-rule="evenodd" d="M11.8728 18.2278H4.12763C3.49431 18.2278 2.89201 17.5178 2.78267 16.6415L1.36969 4.75501H14.6308L13.2178 16.6415C13.1084 17.5176 12.5061 18.2278 11.8728 18.2278ZM7.60003 16.0484C7.60003 16.2672 7.77918 16.4447 8.00003 16.4447C8.22089 16.4447 8.40003 16.2672 8.40003 16.0484V6.93444C8.40003 6.71562 8.22089 6.53825 8.00003 6.53825C7.77918 6.53825 7.60003 6.71562 7.60003 6.93444V16.0484ZM10.4137 15.9661C10.3868 16.1834 10.5427 16.3811 10.7619 16.4077C10.9812 16.4344 11.1809 16.2799 11.2077 16.0627L12.3288 7.01682C12.3558 6.79965 12.1999 6.60194 11.9806 6.57525C11.7614 6.54854 11.5618 6.70303 11.5348 6.92021L10.4137 15.9661ZM4.79232 16.0627C4.81915 16.2799 5.01877 16.4344 5.23809 16.4077C5.4573 16.3811 5.61316 16.1834 5.58634 15.9661L4.46517 6.92023C4.43821 6.70307 4.23859 6.54858 4.0194 6.57527C3.80007 6.60197 3.6442 6.79969 3.67115 7.01684L4.79232 16.0627ZM4.05003 2.37753H0.798867C0.356647 2.37753 0 2.73239 0 3.17005C0 3.60693 0.357656 3.96257 0.798867 3.96257H15.2011C15.6434 3.96257 16 3.60784 16 3.17005C16 2.7333 15.6423 2.37753 15.2011 2.37753H11.95V1.58325C11.95 0.707826 11.2326 0 10.3489 0H5.65102C4.76596 0 4.04996 0.707826 4.04996 1.58325L4.05003 2.37753ZM5.65004 2.37753H10.3499C10.3499 2.10251 10.3498 1.58501 10.3487 1.58501C10.3487 1.58501 5.64987 1.58386 5.64987 1.58323L5.65004 2.37753Z" fill="#989898"/>
</svg>
