<svg width="80" height="80" viewBox="0 0 80 80" fill="none" xmlns="http://www.w3.org/2000/svg">
<circle cx="40" cy="40" r="40" fill="white"/>
<path d="M59.6123 50.2305C59.6123 50.0645 59.4462 50.0645 59.4462 49.8984C58.782 48.5701 57.2876 46.9096 55.2951 45.0831C54.2988 44.2529 53.8007 43.5887 53.4686 43.2566C52.9704 42.5924 52.9705 42.0943 53.1365 41.4301C53.3025 40.932 53.9667 40.1017 55.129 38.6073C55.7932 37.7771 56.1253 37.2789 56.6234 36.7808C59.1141 33.4599 60.2764 31.3013 59.9443 30.305L59.7783 30.139C59.6123 29.9729 59.4462 29.8069 59.1141 29.8069C58.782 29.6408 58.2839 29.6408 57.7858 29.8069H51.476C51.31 29.8069 51.31 29.8069 50.9779 29.8069C50.8118 29.8069 50.6458 29.8069 50.6458 29.8069H50.4798H50.3137L50.1476 29.9729C49.9816 30.139 49.9816 30.139 49.9816 30.305C49.3174 32.1315 48.4872 33.6259 47.657 35.2864C47.1588 36.1166 46.6607 36.9469 46.1626 37.611C45.6644 38.2752 45.3323 38.7733 45.0002 39.1054C44.6681 39.4375 44.336 39.6036 44.17 39.9357C44.0039 40.1017 43.6719 40.2678 43.6719 40.1017C43.5058 40.1017 43.3398 40.1017 43.3398 39.9357C43.1737 39.7696 43.0077 39.6036 42.8416 39.4375C42.6756 39.2715 42.6756 38.9394 42.5095 38.6073C42.5095 38.2752 42.5095 37.9431 42.5095 37.7771C42.5095 37.611 42.5095 37.1129 42.5095 36.7808C42.5095 36.2827 42.5095 35.9506 42.5095 35.7845C42.5095 35.2864 42.5095 34.6222 42.5095 33.958C42.5095 33.2939 42.5095 32.7957 42.5095 32.4636C42.5095 32.1315 42.5095 31.6334 42.5095 31.3013C42.5095 30.8032 42.5095 30.4711 42.5095 30.305C42.5095 30.139 42.3435 29.8069 42.3435 29.6408C42.1775 29.4748 42.0114 29.3087 41.8454 29.1427C41.6793 28.9766 41.3472 28.9766 41.1812 28.8106C40.3509 28.6446 39.3547 28.4785 38.1924 28.4785C35.5356 28.4785 33.7091 28.6446 33.0449 28.9767C32.7129 29.1427 32.3808 29.3087 32.2147 29.6408C31.8826 29.9729 31.8826 30.139 32.0487 30.139C32.8789 30.305 33.5431 30.6371 33.8752 31.1352L34.0412 31.4673C34.2073 31.6334 34.2072 31.9655 34.3733 32.4636C34.5393 32.9617 34.5393 33.4599 34.5393 34.1241C34.5393 35.1203 34.5393 36.1166 34.5393 36.7808C34.5393 37.611 34.3733 38.1092 34.3733 38.6073C34.3733 39.1054 34.2073 39.4375 34.0412 39.6036C33.8752 39.9357 33.8752 40.1017 33.7091 40.1017C33.7091 40.1017 33.7091 40.2678 33.5431 40.2678C33.377 40.2678 33.211 40.4338 32.8789 40.4338C32.7128 40.4338 32.3808 40.2678 32.2147 40.1017C31.8826 39.9357 31.5505 39.6036 31.3845 39.2715C31.0524 38.9394 30.7203 38.4413 30.3882 37.7771C30.0561 37.1129 29.5579 36.4487 29.2259 35.4524L28.8938 34.7883C28.7277 34.4562 28.3957 33.792 28.0636 32.9617C27.7315 32.1315 27.3994 31.4673 27.0673 30.6371C26.9012 30.305 26.7352 30.139 26.5692 29.9729H26.4031C26.4031 29.9729 26.237 29.8069 26.071 29.8069C25.905 29.8069 25.7389 29.6408 25.5729 29.6408H19.5952C18.931 29.6408 18.5989 29.8069 18.4329 29.9729L18.2668 30.139C18.2668 30.139 18.2668 30.305 18.2668 30.4711C18.2668 30.6371 18.2669 30.8031 18.4329 31.1352C19.2631 33.1278 20.2594 35.1203 21.2557 37.1129C22.252 38.9394 23.2482 40.5999 23.9124 41.7622C24.7426 42.9245 25.4068 44.0868 26.2371 45.0831C27.0673 46.0794 27.5654 46.7436 27.7315 47.0756C28.0635 47.4077 28.2296 47.5738 28.3956 47.7398L28.8938 48.238C29.2259 48.5701 29.724 49.0682 30.3882 49.5663C31.0524 50.0645 31.8826 50.5626 32.7128 51.0607C33.5431 51.5589 34.5394 51.891 35.5356 52.2231C36.698 52.5552 37.6942 52.7212 38.6905 52.5552H41.1812C41.6793 52.5552 42.0114 52.3891 42.3435 52.057L42.5095 51.891C42.5095 51.7249 42.6756 51.7249 42.6756 51.5589C42.6756 51.3928 42.6756 51.2268 42.6756 50.8947C42.6756 50.2305 42.6756 49.7324 42.8416 49.2342C43.0077 48.7361 43.0077 48.404 43.1737 48.0719C43.3398 47.7398 43.5058 47.5738 43.6719 47.4077C43.8379 47.2417 44.004 47.0756 44.004 47.0756H44.17C44.5021 46.9096 45.0002 47.0756 45.3323 47.4077C45.8305 47.7398 46.3286 48.238 46.6607 48.7361C46.9928 49.2342 47.4909 49.7324 48.1551 50.3966C48.8193 51.0607 49.3174 51.5589 49.6495 51.7249L50.1476 52.057C50.4797 52.2231 50.8118 52.3891 51.31 52.5552C51.8081 52.7212 52.1402 52.7212 52.4723 52.7212L58.1179 52.5552C58.616 52.5552 59.1141 52.3891 59.4462 52.2231C59.7783 52.057 59.9443 51.891 59.9443 51.5589C59.9443 51.3928 59.9443 51.0608 59.9443 50.8947C59.6122 50.5626 59.6123 50.3966 59.6123 50.2305Z" fill="black"/>
</svg>
